<svg width="236" height="139" viewBox="0 0 236 139" fill="none" xmlns="http://www.w3.org/2000/svg">
<rect x="0.134033" y="0.5" width="235" height="138" fill="#F0F0F0"/>
<path d="M58.222 40.9042H59.486L64.302 52.2322H62.734L61.582 49.4482H55.918L54.75 52.2322H53.23L58.222 40.9042ZM58.83 42.6322H58.798L56.446 48.2002H61.07L58.83 42.6322ZM65.5837 46.5202C65.5837 46.1788 65.573 45.8588 65.5517 45.5602C65.5303 45.2615 65.5197 44.9895 65.5197 44.7442H66.7037C66.7037 44.9468 66.709 45.1495 66.7197 45.3522C66.7303 45.5548 66.7357 45.7628 66.7357 45.9762H66.7677C66.853 45.7948 66.9703 45.6188 67.1197 45.4482C67.2797 45.2775 67.4663 45.1282 67.6797 45.0002C67.893 44.8615 68.133 44.7548 68.3997 44.6802C68.6663 44.5948 68.9543 44.5522 69.2637 44.5522C69.7543 44.5522 70.1757 44.6268 70.5277 44.7762C70.8903 44.9255 71.189 45.1335 71.4237 45.4002C71.6583 45.6668 71.829 45.9922 71.9357 46.3762C72.053 46.7495 72.1117 47.1602 72.1117 47.6082V52.2322H70.8637V47.7362C70.8637 47.1068 70.725 46.6108 70.4477 46.2482C70.1703 45.8855 69.7383 45.7042 69.1517 45.7042C68.7463 45.7042 68.3943 45.7735 68.0957 45.9122C67.8077 46.0508 67.5677 46.2482 67.3757 46.5042C67.1943 46.7602 67.0557 47.0642 66.9597 47.4162C66.8743 47.7682 66.8317 48.1575 66.8317 48.5842V52.2322H65.5837V46.5202ZM74.5863 44.7442H75.8343V52.2322H74.5863V44.7442ZM74.2983 41.8162C74.2983 41.5708 74.3836 41.3575 74.5543 41.1762C74.7356 40.9948 74.9543 40.9042 75.2103 40.9042C75.4663 40.9042 75.6796 40.9948 75.8503 41.1762C76.0316 41.3575 76.1223 41.5708 76.1223 41.8162C76.1223 42.0828 76.0369 42.3015 75.8663 42.4722C75.6956 42.6428 75.477 42.7282 75.2103 42.7282C74.9436 42.7282 74.7249 42.6428 74.5543 42.4722C74.3836 42.3015 74.2983 42.0828 74.2983 41.8162ZM78.318 46.5202C78.318 46.1788 78.3074 45.8588 78.286 45.5602C78.2647 45.2615 78.254 44.9895 78.254 44.7442H79.438C79.438 44.9468 79.4434 45.1495 79.454 45.3522C79.4647 45.5548 79.47 45.7628 79.47 45.9762H79.502C79.5874 45.7948 79.7047 45.6188 79.854 45.4482C80.014 45.2775 80.2007 45.1282 80.414 45.0002C80.6274 44.8615 80.8674 44.7548 81.134 44.6802C81.4007 44.5948 81.6887 44.5522 81.998 44.5522C82.4034 44.5522 82.7394 44.6055 83.006 44.7122C83.2834 44.8082 83.5127 44.9308 83.694 45.0802C83.8754 45.2188 84.014 45.3735 84.11 45.5442C84.2167 45.7042 84.302 45.8482 84.366 45.9762C84.6434 45.5282 84.9634 45.1815 85.326 44.9362C85.6887 44.6802 86.158 44.5522 86.734 44.5522C87.2674 44.5522 87.7154 44.6268 88.078 44.7762C88.4407 44.9148 88.734 45.1228 88.958 45.4002C89.182 45.6668 89.342 45.9975 89.438 46.3922C89.534 46.7762 89.582 47.2082 89.582 47.6882V52.2322H88.334V47.7522C88.334 47.4962 88.3074 47.2455 88.254 47.0002C88.2007 46.7548 88.1047 46.5362 87.966 46.3442C87.8274 46.1522 87.6407 45.9975 87.406 45.8802C87.1714 45.7628 86.8727 45.7042 86.51 45.7042C86.2434 45.7042 85.9927 45.7575 85.758 45.8642C85.5234 45.9708 85.3154 46.1202 85.134 46.3122C84.9634 46.5042 84.8247 46.7388 84.718 47.0162C84.622 47.2828 84.574 47.5815 84.574 47.9122V52.2322H83.326V47.9922C83.326 47.1602 83.214 46.5735 82.99 46.2322C82.766 45.8802 82.398 45.7042 81.886 45.7042C81.4807 45.7042 81.1287 45.7735 80.83 45.9122C80.542 46.0508 80.302 46.2482 80.11 46.5042C79.9287 46.7602 79.79 47.0642 79.694 47.4162C79.6087 47.7682 79.566 48.1575 79.566 48.5842V52.2322H78.318V46.5202ZM91.847 45.7042C92.231 45.3095 92.6844 45.0215 93.207 44.8402C93.7404 44.6482 94.279 44.5522 94.823 44.5522C95.9324 44.5522 96.7324 44.8135 97.223 45.3362C97.7137 45.8588 97.959 46.6535 97.959 47.7202V50.9362C97.959 51.1495 97.9697 51.3735 97.991 51.6082C98.0124 51.8322 98.039 52.0402 98.071 52.2322H96.871C96.8284 52.0615 96.8017 51.8748 96.791 51.6722C96.791 51.4588 96.791 51.2722 96.791 51.1122H96.759C96.5137 51.4962 96.183 51.8108 95.767 52.0562C95.3617 52.3015 94.871 52.4242 94.295 52.4242C93.911 52.4242 93.5484 52.3762 93.207 52.2802C92.8764 52.1842 92.583 52.0455 92.327 51.8642C92.0817 51.6722 91.8844 51.4375 91.735 51.1602C91.5857 50.8828 91.511 50.5628 91.511 50.2002C91.511 49.5815 91.671 49.0962 91.991 48.7442C92.311 48.3922 92.7057 48.1308 93.175 47.9602C93.655 47.7895 94.167 47.6828 94.711 47.6402C95.2657 47.5975 95.7724 47.5762 96.231 47.5762H96.711V47.3522C96.711 46.8082 96.5457 46.3975 96.215 46.1202C95.895 45.8428 95.4417 45.7042 94.855 45.7042C94.4497 45.7042 94.0497 45.7735 93.655 45.9122C93.271 46.0402 92.9297 46.2428 92.631 46.5202L91.847 45.7042ZM95.463 48.6322C94.663 48.6322 94.0284 48.7442 93.559 48.9682C93.0897 49.1922 92.855 49.5602 92.855 50.0722C92.855 50.5415 93.0097 50.8775 93.319 51.0802C93.639 51.2722 94.0337 51.3682 94.503 51.3682C94.8657 51.3682 95.1804 51.3095 95.447 51.1922C95.7244 51.0642 95.9537 50.8988 96.135 50.6962C96.3164 50.4935 96.455 50.2588 96.551 49.9922C96.647 49.7148 96.7004 49.4215 96.711 49.1122V48.6322H95.463ZM104.336 45.8002H102.128V49.5442C102.128 49.7895 102.133 50.0188 102.144 50.2322C102.155 50.4348 102.197 50.6162 102.272 50.7762C102.347 50.9255 102.459 51.0482 102.608 51.1442C102.757 51.2295 102.971 51.2722 103.248 51.2722C103.429 51.2722 103.616 51.2508 103.808 51.2082C104 51.1655 104.181 51.1015 104.352 51.0162L104.4 52.1522C104.187 52.2482 103.947 52.3175 103.68 52.3602C103.424 52.4028 103.179 52.4242 102.944 52.4242C102.496 52.4242 102.139 52.3655 101.872 52.2482C101.605 52.1308 101.397 51.9655 101.248 51.7522C101.099 51.5388 100.997 51.2775 100.944 50.9682C100.901 50.6482 100.88 50.2962 100.88 49.9122V45.8002H99.2479V44.7442H100.88V42.6162H102.128V44.7442H104.336V45.8002ZM112.553 50.8722C112.105 51.4482 111.614 51.8535 111.081 52.0882C110.548 52.3122 109.929 52.4242 109.225 52.4242C108.638 52.4242 108.11 52.3228 107.641 52.1202C107.172 51.9068 106.772 51.6242 106.441 51.2722C106.121 50.9202 105.87 50.5042 105.689 50.0242C105.518 49.5442 105.433 49.0322 105.433 48.4882C105.433 47.9122 105.529 47.3842 105.721 46.9042C105.913 46.4135 106.18 45.9975 106.521 45.6562C106.862 45.3042 107.268 45.0322 107.737 44.8402C108.206 44.6482 108.718 44.5522 109.273 44.5522C109.796 44.5522 110.276 44.6428 110.713 44.8242C111.15 44.9948 111.524 45.2508 111.833 45.5922C112.153 45.9228 112.398 46.3335 112.569 46.8242C112.74 47.3042 112.825 47.8535 112.825 48.4722V48.8722H106.777C106.798 49.1922 106.873 49.5015 107.001 49.8002C107.14 50.0882 107.316 50.3442 107.529 50.5682C107.742 50.7815 107.993 50.9522 108.281 51.0802C108.569 51.2082 108.884 51.2722 109.225 51.2722C109.769 51.2722 110.228 51.1762 110.601 50.9842C110.974 50.7922 111.31 50.5095 111.609 50.1362L112.553 50.8722ZM111.481 47.8162C111.46 47.1762 111.252 46.6642 110.857 46.2802C110.462 45.8962 109.918 45.7042 109.225 45.7042C108.532 45.7042 107.972 45.8962 107.545 46.2802C107.118 46.6642 106.862 47.1762 106.777 47.8162H111.481ZM120.98 50.9042H120.948C120.713 51.3308 120.34 51.6935 119.828 51.9922C119.326 52.2802 118.74 52.4242 118.068 52.4242C117.545 52.4242 117.054 52.3282 116.596 52.1362C116.137 51.9335 115.737 51.6562 115.396 51.3042C115.065 50.9522 114.804 50.5362 114.612 50.0562C114.42 49.5762 114.324 49.0535 114.324 48.4882C114.324 47.9228 114.42 47.4002 114.612 46.9202C114.804 46.4402 115.07 46.0242 115.412 45.6722C115.753 45.3202 116.164 45.0482 116.644 44.8562C117.134 44.6535 117.673 44.5522 118.26 44.5522C118.804 44.5522 119.3 44.6642 119.748 44.8882C120.206 45.1122 120.606 45.4268 120.948 45.8322H120.98V40.1362H122.228V52.2322H120.98V50.9042ZM120.98 48.4882C120.98 48.0935 120.916 47.7308 120.788 47.4002C120.67 47.0588 120.494 46.7655 120.26 46.5202C120.025 46.2642 119.742 46.0668 119.412 45.9282C119.092 45.7788 118.729 45.7042 118.324 45.7042C117.918 45.7042 117.55 45.7788 117.22 45.9282C116.9 46.0668 116.622 46.2642 116.388 46.5202C116.153 46.7655 115.972 47.0588 115.844 47.4002C115.726 47.7308 115.668 48.0935 115.668 48.4882C115.668 48.8828 115.726 49.2508 115.844 49.5922C115.972 49.9228 116.153 50.2162 116.388 50.4722C116.622 50.7175 116.9 50.9148 117.22 51.0642C117.55 51.2028 117.918 51.2722 118.324 51.2722C118.729 51.2722 119.092 51.2028 119.412 51.0642C119.742 50.9148 120.025 50.7175 120.26 50.4722C120.494 50.2162 120.67 49.9228 120.788 49.5922C120.916 49.2508 120.98 48.8828 120.98 48.4882ZM136.462 51.8962C136.462 53.2615 136.11 54.2962 135.406 55.0002C134.713 55.7148 133.705 56.0722 132.382 56.0722C131.646 56.0722 130.979 55.9655 130.382 55.7522C129.795 55.5388 129.235 55.1708 128.702 54.6482L129.598 53.6242C129.993 54.0508 130.409 54.3708 130.846 54.5842C131.294 54.8082 131.806 54.9202 132.382 54.9202C132.937 54.9202 133.395 54.8348 133.758 54.6642C134.131 54.5042 134.425 54.2802 134.638 53.9922C134.851 53.7148 135.001 53.3948 135.086 53.0322C135.171 52.6695 135.214 52.2908 135.214 51.8962V50.9362H135.182C134.883 51.4162 134.494 51.7682 134.014 51.9922C133.534 52.2162 133.043 52.3282 132.542 52.3282C131.955 52.3282 131.417 52.2322 130.926 52.0402C130.435 51.8482 130.014 51.5815 129.662 51.2402C129.31 50.8988 129.038 50.4935 128.846 50.0242C128.654 49.5548 128.558 49.0428 128.558 48.4882C128.558 47.8802 128.654 47.3308 128.846 46.8402C129.038 46.3495 129.305 45.9388 129.646 45.6082C129.998 45.2668 130.419 45.0055 130.91 44.8242C131.401 44.6428 131.945 44.5522 132.542 44.5522C132.798 44.5522 133.054 44.5842 133.31 44.6482C133.566 44.7015 133.811 44.7922 134.046 44.9202C134.291 45.0375 134.51 45.1922 134.702 45.3842C134.894 45.5655 135.054 45.7788 135.182 46.0242H135.214V44.7442H136.462V51.8962ZM129.902 48.4882C129.902 48.8722 129.971 49.2295 130.11 49.5602C130.249 49.8802 130.435 50.1628 130.67 50.4082C130.915 50.6428 131.198 50.8295 131.518 50.9682C131.838 51.1068 132.179 51.1762 132.542 51.1762C132.969 51.1762 133.347 51.1015 133.678 50.9522C134.009 50.8028 134.286 50.6055 134.51 50.3602C134.745 50.1042 134.921 49.8162 135.038 49.4962C135.155 49.1655 135.214 48.8188 135.214 48.4562C135.214 48.0508 135.15 47.6828 135.022 47.3522C134.894 47.0108 134.713 46.7175 134.478 46.4722C134.243 46.2268 133.961 46.0402 133.63 45.9122C133.299 45.7735 132.937 45.7042 132.542 45.7042C132.147 45.7042 131.785 45.7788 131.454 45.9282C131.134 46.0668 130.857 46.2642 130.622 46.5202C130.398 46.7655 130.222 47.0588 130.094 47.4002C129.966 47.7308 129.902 48.0935 129.902 48.4882ZM138.883 44.7442H140.131V52.2322H138.883V44.7442ZM138.595 41.8162C138.595 41.5708 138.68 41.3575 138.851 41.1762C139.032 40.9948 139.251 40.9042 139.507 40.9042C139.763 40.9042 139.976 40.9948 140.147 41.1762C140.328 41.3575 140.419 41.5708 140.419 41.8162C140.419 42.0828 140.334 42.3015 140.163 42.4722C139.992 42.6428 139.774 42.7282 139.507 42.7282C139.24 42.7282 139.022 42.6428 138.851 42.4722C138.68 42.3015 138.595 42.0828 138.595 41.8162ZM143.255 45.8002H141.623V44.7442H143.255V43.0642C143.255 42.6055 143.298 42.1895 143.383 41.8162C143.468 41.4322 143.612 41.1015 143.815 40.8242C144.028 40.5468 144.306 40.3335 144.647 40.1842C144.988 40.0242 145.41 39.9442 145.911 39.9442C146.071 39.9442 146.242 39.9602 146.423 39.9922C146.604 40.0242 146.754 40.0722 146.871 40.1362L146.695 41.2562C146.396 41.1495 146.114 41.0962 145.847 41.0962C145.527 41.0962 145.276 41.1548 145.095 41.2722C144.914 41.3788 144.775 41.5335 144.679 41.7362C144.594 41.9282 144.54 42.1628 144.519 42.4402C144.508 42.7175 144.503 43.0162 144.503 43.3362V44.7442H146.327V45.8002H144.503V52.2322H143.255V45.8002ZM151.683 48.4882C151.683 47.9015 151.784 47.3682 151.987 46.8882C152.19 46.4082 152.467 45.9975 152.819 45.6562C153.171 45.3042 153.592 45.0322 154.083 44.8402C154.574 44.6482 155.107 44.5522 155.683 44.5522C156.259 44.5522 156.792 44.6482 157.283 44.8402C157.774 45.0322 158.195 45.3042 158.547 45.6562C158.899 45.9975 159.176 46.4082 159.379 46.8882C159.582 47.3682 159.683 47.9015 159.683 48.4882C159.683 49.0748 159.582 49.6082 159.379 50.0882C159.176 50.5682 158.899 50.9842 158.547 51.3362C158.195 51.6775 157.774 51.9442 157.283 52.1362C156.792 52.3282 156.259 52.4242 155.683 52.4242C155.107 52.4242 154.574 52.3282 154.083 52.1362C153.592 51.9442 153.171 51.6775 152.819 51.3362C152.467 50.9842 152.19 50.5682 151.987 50.0882C151.784 49.6082 151.683 49.0748 151.683 48.4882ZM153.027 48.4882C153.027 48.8828 153.086 49.2508 153.203 49.5922C153.331 49.9228 153.512 50.2162 153.747 50.4722C153.982 50.7175 154.259 50.9148 154.579 51.0642C154.91 51.2028 155.278 51.2722 155.683 51.2722C156.088 51.2722 156.451 51.2028 156.771 51.0642C157.102 50.9148 157.384 50.7175 157.619 50.4722C157.854 50.2162 158.03 49.9228 158.147 49.5922C158.275 49.2508 158.339 48.8828 158.339 48.4882C158.339 48.0935 158.275 47.7308 158.147 47.4002C158.03 47.0588 157.854 46.7655 157.619 46.5202C157.384 46.2642 157.102 46.0668 156.771 45.9282C156.451 45.7788 156.088 45.7042 155.683 45.7042C155.278 45.7042 154.91 45.7788 154.579 45.9282C154.259 46.0668 153.982 46.2642 153.747 46.5202C153.512 46.7655 153.331 47.0588 153.203 47.4002C153.086 47.7308 153.027 48.0935 153.027 48.4882ZM162.255 45.8002H160.623V44.7442H162.255V43.0642C162.255 42.6055 162.298 42.1895 162.383 41.8162C162.468 41.4322 162.612 41.1015 162.815 40.8242C163.028 40.5468 163.306 40.3335 163.647 40.1842C163.988 40.0242 164.41 39.9442 164.911 39.9442C165.071 39.9442 165.242 39.9602 165.423 39.9922C165.604 40.0242 165.754 40.0722 165.871 40.1362L165.695 41.2562C165.396 41.1495 165.114 41.0962 164.847 41.0962C164.527 41.0962 164.276 41.1548 164.095 41.2722C163.914 41.3788 163.775 41.5335 163.679 41.7362C163.594 41.9282 163.54 42.1628 163.519 42.4402C163.508 42.7175 163.503 43.0162 163.503 43.3362V44.7442H165.327V45.8002H163.503V52.2322H162.255V45.8002ZM54.254 66.7442H55.502V67.8322H55.534C55.8754 67.4268 56.27 67.1122 56.718 66.8882C57.1767 66.6642 57.678 66.5522 58.222 66.5522C58.8087 66.5522 59.342 66.6535 59.822 66.8562C60.3127 67.0482 60.7287 67.3202 61.07 67.6722C61.4114 68.0242 61.678 68.4402 61.87 68.9202C62.062 69.4002 62.158 69.9228 62.158 70.4882C62.158 71.0535 62.062 71.5762 61.87 72.0562C61.678 72.5362 61.4114 72.9522 61.07 73.3042C60.7394 73.6562 60.3447 73.9335 59.886 74.1362C59.4274 74.3282 58.9367 74.4242 58.414 74.4242C57.742 74.4242 57.15 74.2802 56.638 73.9922C56.1367 73.6935 55.7687 73.3308 55.534 72.9042H55.502V77.8802H54.254V66.7442ZM55.502 70.4882C55.502 70.8828 55.5607 71.2508 55.678 71.5922C55.806 71.9228 55.9874 72.2162 56.222 72.4722C56.4567 72.7175 56.734 72.9148 57.054 73.0642C57.3847 73.2028 57.7527 73.2722 58.158 73.2722C58.5634 73.2722 58.926 73.2028 59.246 73.0642C59.5767 72.9148 59.8594 72.7175 60.094 72.4722C60.3287 72.2162 60.5047 71.9228 60.622 71.5922C60.75 71.2508 60.814 70.8828 60.814 70.4882C60.814 70.0935 60.75 69.7308 60.622 69.4002C60.5047 69.0588 60.3287 68.7655 60.094 68.5202C59.8594 68.2642 59.5767 68.0668 59.246 67.9282C58.926 67.7788 58.5634 67.7042 58.158 67.7042C57.7527 67.7042 57.3847 67.7788 57.054 67.9282C56.734 68.0668 56.4567 68.2642 56.222 68.5202C55.9874 68.7655 55.806 69.0588 55.678 69.4002C55.5607 69.7308 55.502 70.0935 55.502 70.4882ZM63.6673 70.4882C63.6673 69.9015 63.7686 69.3682 63.9713 68.8882C64.1739 68.4082 64.4513 67.9975 64.8033 67.6562C65.1553 67.3042 65.5766 67.0322 66.0673 66.8402C66.558 66.6482 67.0913 66.5522 67.6673 66.5522C68.2433 66.5522 68.7766 66.6482 69.2673 66.8402C69.758 67.0322 70.1793 67.3042 70.5313 67.6562C70.8833 67.9975 71.1606 68.4082 71.3633 68.8882C71.566 69.3682 71.6673 69.9015 71.6673 70.4882C71.6673 71.0748 71.566 71.6082 71.3633 72.0882C71.1606 72.5682 70.8833 72.9842 70.5313 73.3362C70.1793 73.6775 69.758 73.9442 69.2673 74.1362C68.7766 74.3282 68.2433 74.4242 67.6673 74.4242C67.0913 74.4242 66.558 74.3282 66.0673 74.1362C65.5766 73.9442 65.1553 73.6775 64.8033 73.3362C64.4513 72.9842 64.1739 72.5682 63.9713 72.0882C63.7686 71.6082 63.6673 71.0748 63.6673 70.4882ZM65.0113 70.4882C65.0113 70.8828 65.07 71.2508 65.1873 71.5922C65.3153 71.9228 65.4966 72.2162 65.7313 72.4722C65.966 72.7175 66.2433 72.9148 66.5633 73.0642C66.8939 73.2028 67.262 73.2722 67.6673 73.2722C68.0726 73.2722 68.4353 73.2028 68.7553 73.0642C69.086 72.9148 69.3686 72.7175 69.6033 72.4722C69.838 72.2162 70.014 71.9228 70.1313 71.5922C70.2593 71.2508 70.3233 70.8828 70.3233 70.4882C70.3233 70.0935 70.2593 69.7308 70.1313 69.4002C70.014 69.0588 69.838 68.7655 69.6033 68.5202C69.3686 68.2642 69.086 68.0668 68.7553 67.9282C68.4353 67.7788 68.0726 67.7042 67.6673 67.7042C67.262 67.7042 66.8939 67.7788 66.5633 67.9282C66.2433 68.0668 65.966 68.2642 65.7313 68.5202C65.4966 68.7655 65.3153 69.0588 65.1873 69.4002C65.07 69.7308 65.0113 70.0935 65.0113 70.4882ZM73.1673 70.4882C73.1673 69.9015 73.2686 69.3682 73.4713 68.8882C73.6739 68.4082 73.9513 67.9975 74.3033 67.6562C74.6553 67.3042 75.0766 67.0322 75.5673 66.8402C76.058 66.6482 76.5913 66.5522 77.1673 66.5522C77.7433 66.5522 78.2766 66.6482 78.7673 66.8402C79.258 67.0322 79.6793 67.3042 80.0313 67.6562C80.3833 67.9975 80.6606 68.4082 80.8633 68.8882C81.066 69.3682 81.1673 69.9015 81.1673 70.4882C81.1673 71.0748 81.066 71.6082 80.8633 72.0882C80.6606 72.5682 80.3833 72.9842 80.0313 73.3362C79.6793 73.6775 79.258 73.9442 78.7673 74.1362C78.2766 74.3282 77.7433 74.4242 77.1673 74.4242C76.5913 74.4242 76.058 74.3282 75.5673 74.1362C75.0766 73.9442 74.6553 73.6775 74.3033 73.3362C73.9513 72.9842 73.6739 72.5682 73.4713 72.0882C73.2686 71.6082 73.1673 71.0748 73.1673 70.4882ZM74.5113 70.4882C74.5113 70.8828 74.57 71.2508 74.6873 71.5922C74.8153 71.9228 74.9966 72.2162 75.2313 72.4722C75.466 72.7175 75.7433 72.9148 76.0633 73.0642C76.3939 73.2028 76.762 73.2722 77.1673 73.2722C77.5726 73.2722 77.9353 73.2028 78.2553 73.0642C78.586 72.9148 78.8686 72.7175 79.1033 72.4722C79.338 72.2162 79.514 71.9228 79.6313 71.5922C79.7593 71.2508 79.8233 70.8828 79.8233 70.4882C79.8233 70.0935 79.7593 69.7308 79.6313 69.4002C79.514 69.0588 79.338 68.7655 79.1033 68.5202C78.8686 68.2642 78.586 68.0668 78.2553 67.9282C77.9353 67.7788 77.5726 67.7042 77.1673 67.7042C76.762 67.7042 76.3939 67.7788 76.0633 67.9282C75.7433 68.0668 75.466 68.2642 75.2313 68.5202C74.9966 68.7655 74.8153 69.0588 74.6873 69.4002C74.57 69.7308 74.5113 70.0935 74.5113 70.4882ZM83.0353 66.7442H84.2833V67.8322H84.3153C84.6566 67.4268 85.0513 67.1122 85.4993 66.8882C85.958 66.6642 86.4593 66.5522 87.0033 66.5522C87.59 66.5522 88.1233 66.6535 88.6033 66.8562C89.094 67.0482 89.51 67.3202 89.8513 67.6722C90.1926 68.0242 90.4593 68.4402 90.6513 68.9202C90.8433 69.4002 90.9393 69.9228 90.9393 70.4882C90.9393 71.0535 90.8433 71.5762 90.6513 72.0562C90.4593 72.5362 90.1926 72.9522 89.8513 73.3042C89.5206 73.6562 89.126 73.9335 88.6673 74.1362C88.2086 74.3282 87.718 74.4242 87.1953 74.4242C86.5233 74.4242 85.9313 74.2802 85.4193 73.9922C84.9179 73.6935 84.5499 73.3308 84.3153 72.9042H84.2833V77.8802H83.0353V66.7442ZM84.2833 70.4882C84.2833 70.8828 84.3419 71.2508 84.4593 71.5922C84.5873 71.9228 84.7686 72.2162 85.0033 72.4722C85.2379 72.7175 85.5153 72.9148 85.8353 73.0642C86.166 73.2028 86.534 73.2722 86.9393 73.2722C87.3446 73.2722 87.7073 73.2028 88.0273 73.0642C88.358 72.9148 88.6406 72.7175 88.8753 72.4722C89.11 72.2162 89.286 71.9228 89.4033 71.5922C89.5313 71.2508 89.5953 70.8828 89.5953 70.4882C89.5953 70.0935 89.5313 69.7308 89.4033 69.4002C89.286 69.0588 89.11 68.7655 88.8753 68.5202C88.6406 68.2642 88.358 68.0668 88.0273 67.9282C87.7073 67.7788 87.3446 67.7042 86.9393 67.7042C86.534 67.7042 86.166 67.7788 85.8353 67.9282C85.5153 68.0668 85.2379 68.2642 85.0033 68.5202C84.7686 68.7655 84.5873 69.0588 84.4593 69.4002C84.3419 69.7308 84.2833 70.0935 84.2833 70.4882ZM93.0405 72.2642C93.2859 72.5735 93.5525 72.8188 93.8405 73.0002C94.1392 73.1815 94.5125 73.2722 94.9605 73.2722C95.1525 73.2722 95.3445 73.2508 95.5365 73.2082C95.7392 73.1655 95.9205 73.0962 96.0805 73.0002C96.2405 72.9042 96.3685 72.7868 96.4645 72.6482C96.5605 72.4988 96.6085 72.3228 96.6085 72.1202C96.6085 71.9175 96.5605 71.7522 96.4645 71.6242C96.3792 71.4962 96.2619 71.3895 96.1125 71.3042C95.9632 71.2082 95.7925 71.1335 95.6005 71.0802C95.4085 71.0268 95.2112 70.9788 95.0085 70.9362C94.6565 70.8615 94.3205 70.7762 94.0005 70.6802C93.6805 70.5842 93.3979 70.4615 93.1525 70.3122C92.9179 70.1522 92.7259 69.9495 92.5765 69.7042C92.4379 69.4588 92.3685 69.1442 92.3685 68.7602C92.3685 68.3975 92.4485 68.0775 92.6085 67.8002C92.7685 67.5228 92.9819 67.2935 93.2485 67.1122C93.5152 66.9308 93.8139 66.7922 94.1445 66.6962C94.4752 66.6002 94.8165 66.5522 95.1685 66.5522C95.7019 66.5522 96.1925 66.6588 96.6405 66.8722C97.0992 67.0855 97.4565 67.4322 97.7125 67.9122L96.6725 68.6002C96.5125 68.3335 96.2992 68.1202 96.0325 67.9602C95.7765 67.7895 95.4619 67.7042 95.0885 67.7042C94.9179 67.7042 94.7419 67.7255 94.5605 67.7682C94.3899 67.8108 94.2352 67.8748 94.0965 67.9602C93.9579 68.0455 93.8405 68.1575 93.7445 68.2962C93.6592 68.4242 93.6165 68.5735 93.6165 68.7442C93.6165 68.9042 93.6645 69.0428 93.7605 69.1602C93.8672 69.2668 94.0059 69.3628 94.1765 69.4482C94.3579 69.5335 94.5605 69.6082 94.7845 69.6722C95.0192 69.7362 95.2592 69.7895 95.5045 69.8322C95.8352 69.8962 96.1499 69.9815 96.4485 70.0882C96.7472 70.1842 97.0085 70.3175 97.2325 70.4882C97.4565 70.6588 97.6325 70.8722 97.7605 71.1282C97.8885 71.3842 97.9525 71.6988 97.9525 72.0722C97.9525 72.4988 97.8672 72.8615 97.6965 73.1602C97.5259 73.4588 97.2965 73.7042 97.0085 73.8962C96.7312 74.0775 96.4112 74.2108 96.0485 74.2962C95.6965 74.3815 95.3339 74.4242 94.9605 74.4242C94.3205 74.4242 93.7659 74.3282 93.2965 74.1362C92.8379 73.9335 92.4219 73.5655 92.0485 73.0322L93.0405 72.2642ZM110.37 72.9042H110.338C110.103 73.3308 109.73 73.6935 109.218 73.9922C108.717 74.2802 108.13 74.4242 107.458 74.4242C106.935 74.4242 106.445 74.3282 105.986 74.1362C105.527 73.9335 105.127 73.6562 104.786 73.3042C104.455 72.9522 104.194 72.5362 104.002 72.0562C103.81 71.5762 103.714 71.0535 103.714 70.4882C103.714 69.9228 103.81 69.4002 104.002 68.9202C104.194 68.4402 104.461 68.0242 104.802 67.6722C105.143 67.3202 105.554 67.0482 106.034 66.8562C106.525 66.6535 107.063 66.5522 107.65 66.5522C108.194 66.5522 108.69 66.6642 109.138 66.8882C109.597 67.1122 109.997 67.4268 110.338 67.8322H110.37V62.1362H111.618V74.2322H110.37V72.9042ZM110.37 70.4882C110.37 70.0935 110.306 69.7308 110.178 69.4002C110.061 69.0588 109.885 68.7655 109.65 68.5202C109.415 68.2642 109.133 68.0668 108.802 67.9282C108.482 67.7788 108.119 67.7042 107.714 67.7042C107.309 67.7042 106.941 67.7788 106.61 67.9282C106.29 68.0668 106.013 68.2642 105.778 68.5202C105.543 68.7655 105.362 69.0588 105.234 69.4002C105.117 69.7308 105.058 70.0935 105.058 70.4882C105.058 70.8828 105.117 71.2508 105.234 71.5922C105.362 71.9228 105.543 72.2162 105.778 72.4722C106.013 72.7175 106.29 72.9148 106.61 73.0642C106.941 73.2028 107.309 73.2722 107.714 73.2722C108.119 73.2722 108.482 73.2028 108.802 73.0642C109.133 72.9148 109.415 72.7175 109.65 72.4722C109.885 72.2162 110.061 71.9228 110.178 71.5922C110.306 71.2508 110.37 70.8828 110.37 70.4882ZM113.927 68.5202C113.927 68.1788 113.917 67.8588 113.895 67.5602C113.874 67.2615 113.863 66.9895 113.863 66.7442H115.047C115.047 66.9468 115.053 67.1495 115.063 67.3522C115.074 67.5548 115.079 67.7628 115.079 67.9762H115.111C115.197 67.7948 115.314 67.6188 115.463 67.4482C115.623 67.2775 115.81 67.1282 116.023 67.0002C116.237 66.8615 116.477 66.7548 116.743 66.6802C117.01 66.5948 117.298 66.5522 117.607 66.5522C117.693 66.5522 117.778 66.5575 117.863 66.5682C117.949 66.5788 118.034 66.6002 118.119 66.6322L118.039 67.8962C117.826 67.8322 117.602 67.8002 117.367 67.8002C116.599 67.8002 116.039 68.0508 115.687 68.5522C115.346 69.0428 115.175 69.7202 115.175 70.5842V74.2322H113.927V68.5202ZM118.839 70.4882C118.839 69.9015 118.94 69.3682 119.143 68.8882C119.346 68.4082 119.623 67.9975 119.975 67.6562C120.327 67.3042 120.748 67.0322 121.239 66.8402C121.73 66.6482 122.263 66.5522 122.839 66.5522C123.415 66.5522 123.948 66.6482 124.439 66.8402C124.93 67.0322 125.351 67.3042 125.703 67.6562C126.055 67.9975 126.332 68.4082 126.535 68.8882C126.738 69.3682 126.839 69.9015 126.839 70.4882C126.839 71.0748 126.738 71.6082 126.535 72.0882C126.332 72.5682 126.055 72.9842 125.703 73.3362C125.351 73.6775 124.93 73.9442 124.439 74.1362C123.948 74.3282 123.415 74.4242 122.839 74.4242C122.263 74.4242 121.73 74.3282 121.239 74.1362C120.748 73.9442 120.327 73.6775 119.975 73.3362C119.623 72.9842 119.346 72.5682 119.143 72.0882C118.94 71.6082 118.839 71.0748 118.839 70.4882ZM120.183 70.4882C120.183 70.8828 120.242 71.2508 120.359 71.5922C120.487 71.9228 120.668 72.2162 120.903 72.4722C121.138 72.7175 121.415 72.9148 121.735 73.0642C122.066 73.2028 122.434 73.2722 122.839 73.2722C123.244 73.2722 123.607 73.2028 123.927 73.0642C124.258 72.9148 124.54 72.7175 124.775 72.4722C125.01 72.2162 125.186 71.9228 125.303 71.5922C125.431 71.2508 125.495 70.8828 125.495 70.4882C125.495 70.0935 125.431 69.7308 125.303 69.4002C125.186 69.0588 125.01 68.7655 124.775 68.5202C124.54 68.2642 124.258 68.0668 123.927 67.9282C123.607 67.7788 123.244 67.7042 122.839 67.7042C122.434 67.7042 122.066 67.7788 121.735 67.9282C121.415 68.0668 121.138 68.2642 120.903 68.5202C120.668 68.7655 120.487 69.0588 120.359 69.4002C120.242 69.7308 120.183 70.0935 120.183 70.4882ZM136.803 74.2322H135.571L133.443 68.4722H133.411L131.523 74.2322H130.243L127.811 66.7442H129.187L130.899 72.5042H130.931L132.867 66.7442H134.179L136.147 72.5042H136.179L137.875 66.7442H139.219L136.803 74.2322ZM140.631 68.5202C140.631 68.1788 140.62 67.8588 140.599 67.5602C140.577 67.2615 140.567 66.9895 140.567 66.7442H141.751C141.751 66.9468 141.756 67.1495 141.767 67.3522C141.777 67.5548 141.783 67.7628 141.783 67.9762H141.815C141.9 67.7948 142.017 67.6188 142.167 67.4482C142.327 67.2775 142.513 67.1282 142.727 67.0002C142.94 66.8615 143.18 66.7548 143.447 66.6802C143.713 66.5948 144.001 66.5522 144.311 66.5522C144.801 66.5522 145.223 66.6268 145.575 66.7762C145.937 66.9255 146.236 67.1335 146.471 67.4002C146.705 67.6668 146.876 67.9922 146.983 68.3762C147.1 68.7495 147.159 69.1602 147.159 69.6082V74.2322H145.911V69.7362C145.911 69.1068 145.772 68.6108 145.495 68.2482C145.217 67.8855 144.785 67.7042 144.199 67.7042C143.793 67.7042 143.441 67.7735 143.143 67.9122C142.855 68.0508 142.615 68.2482 142.423 68.5042C142.241 68.7602 142.103 69.0642 142.007 69.4162C141.921 69.7682 141.879 70.1575 141.879 70.5842V74.2322H140.631V68.5202ZM149.633 66.7442H150.881V74.2322H149.633V66.7442ZM149.345 63.8162C149.345 63.5708 149.43 63.3575 149.601 63.1762C149.782 62.9948 150.001 62.9042 150.257 62.9042C150.513 62.9042 150.726 62.9948 150.897 63.1762C151.078 63.3575 151.169 63.5708 151.169 63.8162C151.169 64.0828 151.084 64.3015 150.913 64.4722C150.742 64.6428 150.524 64.7282 150.257 64.7282C149.99 64.7282 149.772 64.6428 149.601 64.4722C149.43 64.3015 149.345 64.0828 149.345 63.8162ZM153.365 68.5202C153.365 68.1788 153.354 67.8588 153.333 67.5602C153.312 67.2615 153.301 66.9895 153.301 66.7442H154.485C154.485 66.9468 154.49 67.1495 154.501 67.3522C154.512 67.5548 154.517 67.7628 154.517 67.9762H154.549C154.634 67.7948 154.752 67.6188 154.901 67.4482C155.061 67.2775 155.248 67.1282 155.461 67.0002C155.674 66.8615 155.914 66.7548 156.181 66.6802C156.448 66.5948 156.736 66.5522 157.045 66.5522C157.536 66.5522 157.957 66.6268 158.309 66.7762C158.672 66.9255 158.97 67.1335 159.205 67.4002C159.44 67.6668 159.61 67.9922 159.717 68.3762C159.834 68.7495 159.893 69.1602 159.893 69.6082V74.2322H158.645V69.7362C158.645 69.1068 158.506 68.6108 158.229 68.2482C157.952 67.8855 157.52 67.7042 156.933 67.7042C156.528 67.7042 156.176 67.7735 155.877 67.9122C155.589 68.0508 155.349 68.2482 155.157 68.5042C154.976 68.7602 154.837 69.0642 154.741 69.4162C154.656 69.7682 154.613 70.1575 154.613 70.5842V74.2322H153.365V68.5202ZM169.728 73.8962C169.728 75.2615 169.376 76.2962 168.672 77.0002C167.978 77.7148 166.97 78.0722 165.648 78.0722C164.912 78.0722 164.245 77.9655 163.648 77.7522C163.061 77.5388 162.501 77.1708 161.968 76.6482L162.864 75.6242C163.258 76.0508 163.674 76.3708 164.112 76.5842C164.56 76.8082 165.072 76.9202 165.648 76.9202C166.202 76.9202 166.661 76.8348 167.024 76.6642C167.397 76.5042 167.69 76.2802 167.904 75.9922C168.117 75.7148 168.266 75.3948 168.352 75.0322C168.437 74.6695 168.48 74.2908 168.48 73.8962V72.9362H168.448C168.149 73.4162 167.76 73.7682 167.28 73.9922C166.8 74.2162 166.309 74.3282 165.808 74.3282C165.221 74.3282 164.682 74.2322 164.192 74.0402C163.701 73.8482 163.28 73.5815 162.928 73.2402C162.576 72.8988 162.304 72.4935 162.112 72.0242C161.92 71.5548 161.824 71.0428 161.824 70.4882C161.824 69.8802 161.92 69.3308 162.112 68.8402C162.304 68.3495 162.57 67.9388 162.912 67.6082C163.264 67.2668 163.685 67.0055 164.176 66.8242C164.666 66.6428 165.21 66.5522 165.808 66.5522C166.064 66.5522 166.32 66.5842 166.576 66.6482C166.832 66.7015 167.077 66.7922 167.312 66.9202C167.557 67.0375 167.776 67.1922 167.968 67.3842C168.16 67.5655 168.32 67.7788 168.448 68.0242H168.48V66.7442H169.728V73.8962ZM163.168 70.4882C163.168 70.8722 163.237 71.2295 163.376 71.5602C163.514 71.8802 163.701 72.1628 163.936 72.4082C164.181 72.6428 164.464 72.8295 164.784 72.9682C165.104 73.1068 165.445 73.1762 165.808 73.1762C166.234 73.1762 166.613 73.1015 166.944 72.9522C167.274 72.8028 167.552 72.6055 167.776 72.3602C168.01 72.1042 168.186 71.8162 168.304 71.4962C168.421 71.1655 168.48 70.8188 168.48 70.4562C168.48 70.0508 168.416 69.6828 168.288 69.3522C168.16 69.0108 167.978 68.7175 167.744 68.4722C167.509 68.2268 167.226 68.0402 166.896 67.9122C166.565 67.7735 166.202 67.7042 165.808 67.7042C165.413 67.7042 165.05 67.7788 164.72 67.9282C164.4 68.0668 164.122 68.2642 163.888 68.5202C163.664 68.7655 163.488 69.0588 163.36 69.4002C163.232 69.7308 163.168 70.0935 163.168 70.4882ZM176.602 66.7442H177.85V74.2322H176.602V66.7442ZM176.314 63.8162C176.314 63.5708 176.399 63.3575 176.57 63.1762C176.751 62.9948 176.97 62.9042 177.226 62.9042C177.482 62.9042 177.695 62.9948 177.866 63.1762C178.047 63.3575 178.138 63.5708 178.138 63.8162C178.138 64.0828 178.053 64.3015 177.882 64.4722C177.711 64.6428 177.493 64.7282 177.226 64.7282C176.959 64.7282 176.741 64.6428 176.57 64.4722C176.399 64.3015 176.314 64.0828 176.314 63.8162ZM180.334 68.5202C180.334 68.1788 180.323 67.8588 180.302 67.5602C180.28 67.2615 180.27 66.9895 180.27 66.7442H181.454C181.454 66.9468 181.459 67.1495 181.47 67.3522C181.48 67.5548 181.486 67.7628 181.486 67.9762H181.518C181.603 67.7948 181.72 67.6188 181.87 67.4482C182.03 67.2775 182.216 67.1282 182.43 67.0002C182.643 66.8615 182.883 66.7548 183.15 66.6802C183.416 66.5948 183.704 66.5522 184.014 66.5522C184.504 66.5522 184.926 66.6268 185.278 66.7762C185.64 66.9255 185.939 67.1335 186.174 67.4002C186.408 67.6668 186.579 67.9922 186.686 68.3762C186.803 68.7495 186.862 69.1602 186.862 69.6082V74.2322H185.614V69.7362C185.614 69.1068 185.475 68.6108 185.198 68.2482C184.92 67.8855 184.488 67.7042 183.902 67.7042C183.496 67.7042 183.144 67.7735 182.846 67.9122C182.558 68.0508 182.318 68.2482 182.126 68.5042C181.944 68.7602 181.806 69.0642 181.71 69.4162C181.624 69.7682 181.582 70.1575 181.582 70.5842V74.2322H180.334V68.5202ZM54.478 94.2642C54.7234 94.5735 54.99 94.8188 55.278 95.0002C55.5767 95.1815 55.95 95.2722 56.398 95.2722C56.59 95.2722 56.782 95.2508 56.974 95.2082C57.1767 95.1655 57.358 95.0962 57.518 95.0002C57.678 94.9042 57.806 94.7868 57.902 94.6482C57.998 94.4988 58.046 94.3228 58.046 94.1202C58.046 93.9175 57.998 93.7522 57.902 93.6242C57.8167 93.4962 57.6994 93.3895 57.55 93.3042C57.4007 93.2082 57.23 93.1335 57.038 93.0802C56.846 93.0268 56.6487 92.9788 56.446 92.9362C56.094 92.8615 55.758 92.7762 55.438 92.6802C55.118 92.5842 54.8354 92.4615 54.59 92.3122C54.3554 92.1522 54.1634 91.9495 54.014 91.7042C53.8754 91.4588 53.806 91.1442 53.806 90.7602C53.806 90.3975 53.886 90.0775 54.046 89.8002C54.206 89.5228 54.4194 89.2935 54.686 89.1122C54.9527 88.9308 55.2514 88.7922 55.582 88.6962C55.9127 88.6002 56.254 88.5522 56.606 88.5522C57.1394 88.5522 57.63 88.6588 58.078 88.8722C58.5367 89.0855 58.894 89.4322 59.15 89.9122L58.11 90.6002C57.95 90.3335 57.7367 90.1202 57.47 89.9602C57.214 89.7895 56.8994 89.7042 56.526 89.7042C56.3554 89.7042 56.1794 89.7255 55.998 89.7682C55.8274 89.8108 55.6727 89.8748 55.534 89.9602C55.3954 90.0455 55.278 90.1575 55.182 90.2962C55.0967 90.4242 55.054 90.5735 55.054 90.7442C55.054 90.9042 55.102 91.0428 55.198 91.1602C55.3047 91.2668 55.4434 91.3628 55.614 91.4482C55.7954 91.5335 55.998 91.6082 56.222 91.6722C56.4567 91.7362 56.6967 91.7895 56.942 91.8322C57.2727 91.8962 57.5874 91.9815 57.886 92.0882C58.1847 92.1842 58.446 92.3175 58.67 92.4882C58.894 92.6588 59.07 92.8722 59.198 93.1282C59.326 93.3842 59.39 93.6988 59.39 94.0722C59.39 94.4988 59.3047 94.8615 59.134 95.1602C58.9634 95.4588 58.734 95.7042 58.446 95.8962C58.1687 96.0775 57.8487 96.2108 57.486 96.2962C57.134 96.3815 56.7714 96.4242 56.398 96.4242C55.758 96.4242 55.2034 96.3282 54.734 96.1362C54.2754 95.9335 53.8594 95.5655 53.486 95.0322L54.478 94.2642ZM61.1305 84.1362H62.3785V89.7842H62.4105C62.4959 89.6348 62.6132 89.4908 62.7625 89.3522C62.9119 89.2028 63.0879 89.0695 63.2905 88.9522C63.5039 88.8348 63.7385 88.7388 63.9945 88.6642C64.2505 88.5895 64.5225 88.5522 64.8105 88.5522C65.3012 88.5522 65.7225 88.6268 66.0745 88.7762C66.4372 88.9255 66.7359 89.1335 66.9705 89.4002C67.2052 89.6668 67.3759 89.9922 67.4825 90.3762C67.5999 90.7495 67.6585 91.1602 67.6585 91.6082V96.2322H66.4105V91.7362C66.4105 91.1068 66.2719 90.6108 65.9945 90.2482C65.7172 89.8855 65.2852 89.7042 64.6985 89.7042C64.2932 89.7042 63.9412 89.7735 63.6425 89.9122C63.3545 90.0508 63.1145 90.2482 62.9225 90.5042C62.7412 90.7602 62.6025 91.0642 62.5065 91.4162C62.4212 91.7682 62.3785 92.1575 62.3785 92.5842V96.2322H61.1305V84.1362ZM72.8692 87.2882L75.1412 86.5202L75.4452 87.4482L73.1892 88.2162L74.6132 90.1202L73.8292 90.7282L72.3892 88.7602L70.9972 90.7282L70.1972 90.1202L71.5892 88.2162L69.3332 87.4482L69.6372 86.5202L71.9092 87.2882V84.9042H72.8692V87.2882ZM81.2265 89.8002H79.0185V93.5442C79.0185 93.7895 79.0239 94.0188 79.0345 94.2322C79.0452 94.4348 79.0879 94.6162 79.1625 94.7762C79.2372 94.9255 79.3492 95.0482 79.4985 95.1442C79.6479 95.2295 79.8612 95.2722 80.1385 95.2722C80.3199 95.2722 80.5065 95.2508 80.6985 95.2082C80.8905 95.1655 81.0719 95.1015 81.2425 95.0162L81.2905 96.1522C81.0772 96.2482 80.8372 96.3175 80.5705 96.3602C80.3145 96.4028 80.0692 96.4242 79.8345 96.4242C79.3865 96.4242 79.0292 96.3655 78.7625 96.2482C78.4959 96.1308 78.2879 95.9655 78.1385 95.7522C77.9892 95.5388 77.8879 95.2775 77.8345 94.9682C77.7919 94.6482 77.7705 94.2962 77.7705 93.9122V89.8002H76.1385V88.7442H77.7705V86.6162H79.0185V88.7442H81.2265V89.8002Z" fill="#333333"/>
</svg>
