<svg width="100" height="100" viewBox="0 0 50 50" fill="none" xmlns="http://www.w3.org/2000/svg">
<path d="M12.5068 4.47617C2.22344 10.0348 0 13.092 0 22.2637C0 31.4353 3.89101 34.7705 17.2316 37.2719C33.9074 40.3291 39.7439 37.5498 43.9129 25.043C48.6377 8.92305 48.0818 5.58789 40.0219 2.53066C30.2943 -1.36035 22.2344 -0.804489 12.5068 4.47617Z" fill="#B36C4E"/>
<path d="M13.2225 5.79446L13.2201 5.79573C8.07921 8.57459 5.24151 10.5891 3.62214 12.8807C2.05251 15.1018 1.5 17.7747 1.5 22.2637C1.5 26.637 2.42128 29.2475 4.59661 31.1366C6.90393 33.1403 10.8457 34.5482 17.505 35.797C25.8217 37.3215 31.0312 37.2947 34.6337 35.632C38.1212 34.0224 40.4405 30.7064 42.4812 24.5946C43.6553 20.5871 44.4859 17.4248 44.9567 14.8817C45.431 12.3197 45.5169 10.5002 45.2834 9.14263C45.0607 7.84868 44.5449 6.94984 43.6945 6.18909C42.7915 5.38139 41.454 4.67818 39.4899 3.93316L39.4773 3.92838L39.4648 3.92338C34.7626 2.04251 30.5438 1.26685 26.3695 1.56034C22.1904 1.85419 17.9519 3.22707 13.2225 5.79446Z" stroke="black" stroke-opacity="0.25" stroke-width="3"/>
<circle cx="21.2398" cy="13.698" r="3.17509" transform="rotate(-1.18086 21.2398 13.698)" fill="white"/>
<circle cx="21.2398" cy="13.698" r="4.17509" transform="rotate(-1.18086 21.2398 13.698)" stroke="black" stroke-opacity="0.25" stroke-width="2"/>
<circle cx="31.7602" cy="13.2398" r="3.17509" transform="rotate(-1.18086 31.7602 13.2398)" fill="white"/>
<circle cx="31.7602" cy="13.2398" r="4.17509" transform="rotate(-1.18086 31.7602 13.2398)" stroke="black" stroke-opacity="0.25" stroke-width="2"/>
<path d="M20 26C20 26 23.9451 23.4074 27 23.5C29.8817 23.5873 33.5 26 33.5 26" stroke="#86513A" stroke-width="3" stroke-linecap="round"/>
</svg>
