<svg width="96" height="60" viewBox="0 0 96 60" fill="none" xmlns="http://www.w3.org/2000/svg">
<path d="M18.5068 10.4762C8.22344 16.0348 6 19.092 6 28.2637C6 37.4353 9.89101 40.7705 23.2316 43.2719C39.9074 46.3291 45.7439 43.5498 49.9129 31.043C54.6377 14.923 54.0818 11.5879 46.0219 8.53066C36.2943 4.63965 28.2344 5.19551 18.5068 10.4762Z" fill="#B36C4E"/>
<path d="M19.2225 11.7945L19.2201 11.7957C14.0792 14.5746 11.2415 16.5891 9.62214 18.8807C8.05251 21.1018 7.5 23.7747 7.5 28.2637C7.5 32.637 8.42128 35.2475 10.5966 37.1366C12.9039 39.1403 16.8457 40.5482 23.5051 41.797C31.8217 43.3215 37.0312 43.2947 40.6337 41.632C44.1212 40.0224 46.4405 36.7064 48.4812 30.5945C49.6554 26.5871 50.4859 23.4248 50.9567 20.8817C51.431 18.3197 51.5169 16.5002 51.2834 15.1426C51.0607 13.8487 50.5449 12.9498 49.6945 12.1891C48.7916 11.3814 47.454 10.6782 45.4899 9.93316L45.4773 9.92838L45.4648 9.92338C40.7626 8.04251 36.5438 7.26685 32.3695 7.56034C28.1904 7.85419 23.9519 9.22707 19.2225 11.7945Z" stroke="black" stroke-opacity="0.25" stroke-width="3"/>
<circle cx="27.2398" cy="19.698" r="3.17509" transform="rotate(-1.18086 27.2398 19.698)" fill="white"/>
<circle cx="27.2398" cy="19.698" r="4.17509" transform="rotate(-1.18086 27.2398 19.698)" stroke="black" stroke-opacity="0.25" stroke-width="2"/>
<circle cx="37.7602" cy="19.2398" r="3.17509" transform="rotate(-1.18086 37.7602 19.2398)" fill="white"/>
<circle cx="37.7602" cy="19.2398" r="4.17509" transform="rotate(-1.18086 37.7602 19.2398)" stroke="black" stroke-opacity="0.25" stroke-width="2"/>
<ellipse cx="31.5" cy="32" rx="6.5" ry="6" fill="white"/>
<g filter="url(#filter0_d_299_126)">
<path d="M13.72 42.912C13.688 43.136 13.588 43.256 13.42 43.272C13.036 43.168 12.8 43.06 12.712 42.948C11.584 42.476 11.02 42.108 11.02 41.844C11.02 41.796 11.036 41.752 11.068 41.712C11.092 41.488 11.196 41.368 11.38 41.352C11.748 41.456 12.424 41.856 13.408 42.552C13.6 42.608 13.704 42.728 13.72 42.912ZM19.1223 42.912C19.0903 43.136 18.9903 43.256 18.8223 43.272C18.4383 43.168 18.2023 43.06 18.1143 42.948C16.9863 42.476 16.4223 42.108 16.4223 41.844C16.4223 41.796 16.4383 41.752 16.4703 41.712C16.4943 41.488 16.5983 41.368 16.7823 41.352C17.1503 41.456 17.8263 41.856 18.8103 42.552C19.0023 42.608 19.1063 42.728 19.1223 42.912ZM26.5161 41.316C26.7961 41.316 26.9361 41.804 26.9361 42.78L27.0081 44.652H27.0321L28.9521 43.908C29.1441 42.276 29.3201 41.46 29.4801 41.46L29.6361 41.436C29.7721 41.436 29.8961 41.544 30.0081 41.76C29.7281 43.136 29.5881 44.328 29.5881 45.336V45.852C29.5881 46.588 29.7641 47.288 30.1161 47.952C30.0361 48.176 29.9081 48.288 29.7321 48.288C29.3481 48.288 29.0641 47.512 28.8801 45.96V44.736H28.8081C27.6081 45.16 27.0081 45.432 27.0081 45.552C27.0081 47.456 26.8321 48.408 26.4801 48.408H26.4321C26.2641 48.408 26.1561 48.268 26.1081 47.988C26.2281 47.116 26.2881 46.44 26.2881 45.96L25.7601 46.236L25.6521 46.26C25.4521 46.188 25.3521 46.064 25.3521 45.888C25.3521 45.712 25.6641 45.436 26.2881 45.06V45.036C26.2641 43.66 26.2121 42.52 26.1321 41.616C26.1321 41.44 26.2601 41.34 26.5161 41.316ZM34.2186 41.076C34.3626 41.076 34.4626 41.2 34.5186 41.448C34.5186 41.592 34.2666 41.792 33.7626 42.048C33.1386 42.592 32.6746 43.528 32.3706 44.856V45.072C33.0666 44.728 33.5666 44.52 33.8706 44.448C33.9666 44.448 34.0826 44.532 34.2186 44.7V44.928C34.2186 45.016 33.8666 45.192 33.1626 45.456C32.6346 45.744 32.3706 45.908 32.3706 45.948V46.056C32.3706 46.504 32.6586 46.892 33.2346 47.22L33.6426 47.292C33.9066 47.292 34.2986 47.128 34.8186 46.8H34.9626C35.1306 46.88 35.2146 46.996 35.2146 47.148V47.22C34.7186 47.74 34.1706 48 33.5706 48C32.7146 48 32.0906 47.424 31.6986 46.272L30.9426 46.428C30.5746 46.372 30.3906 46.252 30.3906 46.068C30.3906 45.884 30.4986 45.752 30.7146 45.672L30.9906 45.72C31.4066 45.6 31.6146 45.512 31.6146 45.456C31.6146 44.096 32.1306 42.836 33.1626 41.676C33.6826 41.276 34.0346 41.076 34.2186 41.076ZM36.3389 41.868C36.5309 41.868 36.6549 42.168 36.7109 42.768L36.7589 43.416C36.7589 43.904 36.6709 45.176 36.4949 47.232H36.5669V47.268L36.6149 47.232H36.7109L38.1149 47.34H38.2109L38.8109 47.16H38.8949C39.0229 47.24 39.1109 47.352 39.1589 47.496C39.1589 47.8 38.8189 47.988 38.1389 48.06L36.9149 47.94H36.6869L36.1109 48.096C35.8949 48.016 35.7869 47.888 35.7869 47.712L36.0389 43.596V43.416L35.9669 42.216C35.9669 42.016 36.0909 41.9 36.3389 41.868ZM41.78 40.116H41.972C43.276 40.116 44.112 40.588 44.48 41.532L44.516 41.916V42.036C44.516 42.964 43.952 43.824 42.824 44.616C42.552 44.696 42.416 44.784 42.416 44.88C42.736 46.104 42.896 47.104 42.896 47.88V48.036C42.896 48.356 42.764 48.516 42.5 48.516C42.3 48.492 42.2 48.392 42.2 48.216V47.916C42.2 46.996 42.032 45.996 41.696 44.916C41.048 44.86 40.688 44.684 40.616 44.388V44.316C40.616 44.172 40.728 44.06 40.952 43.98L41.48 44.16V44.136C41.208 42.952 41.072 42.152 41.072 41.736C41.072 41.504 41.208 41.388 41.48 41.388C41.728 41.388 41.852 41.812 41.852 42.66L42.2 44.088C42.776 43.896 43.224 43.52 43.544 42.96C43.712 42.64 43.796 42.356 43.796 42.108V41.952C43.796 41.296 43.236 40.924 42.116 40.836H41.624C40.528 40.956 39.98 41.216 39.98 41.616V41.688C39.98 41.808 40.044 41.996 40.172 42.252C40.172 42.428 40.032 42.54 39.752 42.588C39.432 42.436 39.272 42.124 39.272 41.652C39.272 40.772 40.108 40.26 41.78 40.116ZM53.0004 39.24H53.0364C53.2364 39.344 53.3364 39.46 53.3364 39.588L53.0364 41.868C53.0364 42.7 53.2844 44.424 53.7804 47.04L54.3804 48.54C54.3804 48.644 54.2964 48.76 54.1284 48.888H53.9004C53.7404 48.84 53.5004 48.348 53.1804 47.412C52.9724 46.66 52.7644 45.5 52.5564 43.932H52.4844C52.0204 45.308 51.6924 46.02 51.5004 46.068L51.3084 46.116C51.1404 46.116 50.9324 45.788 50.6844 45.132H50.6004C50.5044 47.108 50.3164 48.096 50.0364 48.096H50.0004C49.7444 48.096 49.6044 47.896 49.5804 47.496C49.7804 46.728 49.8804 45.928 49.8804 45.096L49.5564 41.916V41.688C49.5564 41.384 49.6644 41.232 49.8804 41.232C50.1924 41.232 50.4684 41.844 50.7084 43.068C51.0604 44.18 51.2764 44.78 51.3564 44.868C51.5404 44.58 51.7244 44.068 51.9084 43.332C52.0524 42.956 52.1924 42.368 52.3284 41.568L52.2804 41.532L52.3284 41.34V41.268C52.4004 39.916 52.6244 39.24 53.0004 39.24ZM58.3593 41.076C58.5033 41.076 58.6033 41.2 58.6593 41.448C58.6593 41.592 58.4073 41.792 57.9033 42.048C57.2793 42.592 56.8153 43.528 56.5113 44.856V45.072C57.2073 44.728 57.7073 44.52 58.0113 44.448C58.1073 44.448 58.2233 44.532 58.3593 44.7V44.928C58.3593 45.016 58.0073 45.192 57.3033 45.456C56.7753 45.744 56.5113 45.908 56.5113 45.948V46.056C56.5113 46.504 56.7993 46.892 57.3753 47.22L57.7833 47.292C58.0473 47.292 58.4393 47.128 58.9593 46.8H59.1033C59.2713 46.88 59.3553 46.996 59.3553 47.148V47.22C58.8593 47.74 58.3113 48 57.7113 48C56.8553 48 56.2313 47.424 55.8393 46.272L55.0833 46.428C54.7153 46.372 54.5312 46.252 54.5312 46.068C54.5312 45.884 54.6393 45.752 54.8553 45.672L55.1313 45.72C55.5473 45.6 55.7553 45.512 55.7553 45.456C55.7553 44.096 56.2713 42.836 57.3033 41.676C57.8233 41.276 58.1753 41.076 58.3593 41.076ZM67.9309 42.912C67.8989 43.136 67.7989 43.256 67.6309 43.272C67.2469 43.168 67.0109 43.06 66.9229 42.948C65.7949 42.476 65.2309 42.108 65.2309 41.844C65.2309 41.796 65.2469 41.752 65.2789 41.712C65.3029 41.488 65.4069 41.368 65.5909 41.352C65.9589 41.456 66.6349 41.856 67.6189 42.552C67.8109 42.608 67.9149 42.728 67.9309 42.912ZM73.3333 42.912C73.3013 43.136 73.2013 43.256 73.0333 43.272C72.6493 43.168 72.4133 43.06 72.3253 42.948C71.1973 42.476 70.6333 42.108 70.6333 41.844C70.6333 41.796 70.6493 41.752 70.6813 41.712C70.7053 41.488 70.8093 41.368 70.9933 41.352C71.3613 41.456 72.0373 41.856 73.0213 42.552C73.2133 42.608 73.3173 42.728 73.3333 42.912Z" fill="black"/>
<path d="M13.72 42.912L14.215 42.9827L14.2231 42.9259L14.2181 42.8687L13.72 42.912ZM13.42 43.272L13.2893 43.7546L13.377 43.7784L13.4674 43.7697L13.42 43.272ZM12.712 42.948L13.1052 42.6391L13.0249 42.5369L12.905 42.4868L12.712 42.948ZM11.068 41.712L11.4584 42.0243L11.5496 41.9104L11.5652 41.7653L11.068 41.712ZM11.38 41.352L11.516 40.8708L11.4279 40.8459L11.3367 40.8539L11.38 41.352ZM13.408 42.552L13.1193 42.9602L13.1876 43.0086L13.268 43.032L13.408 42.552ZM13.225 42.8413C13.2166 42.9004 13.2066 42.8862 13.2369 42.8499C13.2537 42.8298 13.2775 42.8096 13.307 42.7946C13.3358 42.78 13.3599 42.7755 13.3726 42.7743L13.4674 43.7697C13.671 43.7504 13.8635 43.66 14.0051 43.4901C14.1354 43.3338 14.1914 43.1476 14.215 42.9827L13.225 42.8413ZM13.5507 42.7894C13.3728 42.7412 13.2466 42.6966 13.1631 42.6583C13.0672 42.6145 13.0744 42.6 13.1052 42.6391L12.3188 43.2569C12.4376 43.408 12.6068 43.5035 12.7469 43.5677C12.8994 43.6374 13.0832 43.6988 13.2893 43.7546L13.5507 42.7894ZM12.905 42.4868C12.3503 42.2546 11.9602 42.0584 11.7162 41.8993C11.5932 41.819 11.528 41.7613 11.4988 41.7286C11.4633 41.6889 11.52 41.7316 11.52 41.844H10.52C10.52 42.0884 10.6472 42.2761 10.7527 42.3944C10.8645 42.5197 11.0108 42.633 11.1698 42.7367C11.4898 42.9456 11.9457 43.1694 12.519 43.4092L12.905 42.4868ZM11.52 41.844C11.52 41.8768 11.5143 41.9117 11.5019 41.9459C11.4896 41.9796 11.4733 42.0058 11.4584 42.0243L10.6776 41.3997C10.5798 41.5219 10.52 41.6745 10.52 41.844H11.52ZM11.5652 41.7653C11.5707 41.7138 11.5793 41.7383 11.5418 41.7815C11.5222 41.8041 11.4972 41.823 11.4705 41.8356C11.4451 41.8476 11.427 41.8498 11.4233 41.8501L11.3367 40.8539C11.1379 40.8712 10.9371 40.9524 10.7862 41.1265C10.6447 41.2897 10.5893 41.4862 10.5708 41.6587L11.5652 41.7653ZM11.244 41.8332C11.3624 41.8666 11.5771 41.9643 11.9084 42.1603C12.2303 42.3508 12.6332 42.6164 13.1193 42.9602L13.6967 42.1438C13.1988 41.7916 12.7717 41.5092 12.4176 41.2997C12.0729 41.0957 11.7656 40.9414 11.516 40.8708L11.244 41.8332ZM13.268 43.032C13.2956 43.04 13.2776 43.0409 13.2522 43.0115C13.2401 42.9975 13.2316 42.9826 13.2264 42.9696C13.2216 42.9573 13.2215 42.9513 13.2219 42.9553L14.2181 42.8687C14.2025 42.6894 14.1397 42.5087 14.0078 42.3565C13.8784 42.2071 13.7124 42.12 13.548 42.072L13.268 43.032ZM19.1223 42.912L19.6173 42.9827L19.6254 42.9259L19.6205 42.8687L19.1223 42.912ZM18.8223 43.272L18.6916 43.7546L18.7793 43.7784L18.8697 43.7697L18.8223 43.272ZM18.1143 42.948L18.5075 42.6391L18.4272 42.5369L18.3073 42.4868L18.1143 42.948ZM16.4703 41.712L16.8608 42.0243L16.952 41.9104L16.9675 41.7653L16.4703 41.712ZM16.7823 41.352L16.9183 40.8708L16.8302 40.8459L16.739 40.8539L16.7823 41.352ZM18.8103 42.552L18.5216 42.9602L18.59 43.0086L18.6703 43.032L18.8103 42.552ZM18.6274 42.8413C18.6189 42.9004 18.609 42.8862 18.6392 42.8499C18.656 42.8298 18.6798 42.8096 18.7093 42.7946C18.7381 42.78 18.7622 42.7755 18.7749 42.7743L18.8697 43.7697C19.0734 43.7504 19.2658 43.66 19.4075 43.4901C19.5377 43.3338 19.5938 43.1476 19.6173 42.9827L18.6274 42.8413ZM18.9531 42.7894C18.7752 42.7412 18.649 42.6966 18.5654 42.6583C18.4695 42.6145 18.4768 42.6 18.5075 42.6391L17.7212 43.2569C17.8399 43.408 18.0092 43.5035 18.1493 43.5677C18.3017 43.6374 18.4855 43.6988 18.6916 43.7546L18.9531 42.7894ZM18.3073 42.4868C17.7527 42.2546 17.3625 42.0584 17.1186 41.8993C16.9955 41.819 16.9303 41.7613 16.9011 41.7286C16.8657 41.6889 16.9223 41.7316 16.9223 41.844H15.9223C15.9223 42.0884 16.0495 42.2761 16.155 42.3944C16.2669 42.5197 16.4132 42.633 16.5721 42.7367C16.8922 42.9456 17.348 43.1694 17.9213 43.4092L18.3073 42.4868ZM16.9223 41.844C16.9223 41.8768 16.9167 41.9117 16.9042 41.9459C16.892 41.9796 16.8756 42.0058 16.8608 42.0243L16.0799 41.3997C15.9821 41.5219 15.9223 41.6745 15.9223 41.844H16.9223ZM16.9675 41.7653C16.973 41.7138 16.9816 41.7383 16.9442 41.7815C16.9245 41.8041 16.8995 41.823 16.8728 41.8356C16.8475 41.8476 16.8294 41.8498 16.8257 41.8501L16.739 40.8539C16.5403 40.8712 16.3394 40.9524 16.1885 41.1265C16.047 41.2897 15.9917 41.4862 15.9732 41.6587L16.9675 41.7653ZM16.6464 41.8332C16.7648 41.8666 16.9795 41.9643 17.3107 42.1603C17.6327 42.3508 18.0355 42.6164 18.5216 42.9602L19.0991 42.1438C18.6012 41.7916 18.174 41.5092 17.82 41.2997C17.4752 41.0957 17.1679 40.9414 16.9183 40.8708L16.6464 41.8332ZM18.6703 43.032C18.6979 43.04 18.68 43.0409 18.6545 43.0115C18.6424 42.9975 18.6339 42.9826 18.6288 42.9696C18.6239 42.9573 18.6239 42.9513 18.6242 42.9553L19.6205 42.8687C19.6049 42.6894 19.542 42.5087 19.4102 42.3565C19.2807 42.2071 19.1148 42.12 18.9503 42.072L18.6703 43.032ZM26.5161 41.316V40.816H26.4927L26.4695 40.8182L26.5161 41.316ZM26.9361 42.78H26.4361V42.7896L26.4365 42.7992L26.9361 42.78ZM27.0081 44.652L26.5085 44.6712L26.527 45.152H27.0081V44.652ZM27.0321 44.652V45.152H27.1256L27.2128 45.1182L27.0321 44.652ZM28.9521 43.908L29.1328 44.3742L29.4135 44.2654L29.4487 43.9664L28.9521 43.908ZM29.4801 41.46V41.96H29.5184L29.5562 41.9542L29.4801 41.46ZM29.6361 41.436V40.936H29.5979L29.5601 40.9418L29.6361 41.436ZM30.0081 41.76L30.4981 41.8597L30.5333 41.6866L30.452 41.5298L30.0081 41.76ZM30.1161 47.952L30.587 48.1202L30.6611 47.9126L30.5579 47.7178L30.1161 47.952ZM28.8801 45.96H28.3801V45.9895L28.3836 46.0189L28.8801 45.96ZM28.8801 44.736H29.3801V44.236H28.8801V44.736ZM28.8081 44.736V44.236H28.7224L28.6416 44.2646L28.8081 44.736ZM26.1081 47.988L25.6128 47.9198L25.6023 47.9964L25.6153 48.0725L26.1081 47.988ZM26.2881 45.96H26.7881V45.1344L26.0565 45.5169L26.2881 45.96ZM25.7601 46.236L25.8686 46.7241L25.9331 46.7097L25.9918 46.6791L25.7601 46.236ZM25.6521 46.26L25.4828 46.7304L25.6191 46.7795L25.7606 46.7481L25.6521 46.26ZM26.2881 45.06L26.5462 45.4883L26.7881 45.3425V45.06H26.2881ZM26.2881 45.036H26.7882L26.788 45.0273L26.2881 45.036ZM26.1321 41.616H25.6321V41.6381L25.6341 41.6601L26.1321 41.616ZM26.5161 41.816C26.4179 41.816 26.3476 41.7647 26.3209 41.7337C26.307 41.7175 26.3252 41.7315 26.3505 41.8199C26.4007 41.9949 26.4361 42.3041 26.4361 42.78H27.4361C27.4361 42.2799 27.4015 41.8571 27.3117 41.5441C27.2671 41.3885 27.1978 41.2195 27.0788 41.0813C26.9472 40.9283 26.7543 40.816 26.5161 40.816V41.816ZM26.4365 42.7992L26.5085 44.6712L27.5078 44.6328L27.4358 42.7608L26.4365 42.7992ZM27.0081 45.152H27.0321V44.152H27.0081V45.152ZM27.2128 45.1182L29.1328 44.3742L28.7715 43.4418L26.8515 44.1858L27.2128 45.1182ZM29.4487 43.9664C29.5443 43.1542 29.6341 42.5614 29.7169 42.1774C29.7591 41.9817 29.7947 41.8635 29.8195 41.8034C29.8329 41.7708 29.8321 41.7829 29.8091 41.8115C29.7942 41.83 29.6863 41.96 29.4801 41.96V40.96C29.234 40.96 29.0855 41.1155 29.0297 41.185C28.9657 41.2646 28.9234 41.3532 28.8948 41.4226C28.8355 41.5665 28.7851 41.7543 28.7394 41.9666C28.6462 42.3986 28.552 43.0298 28.4555 43.8496L29.4487 43.9664ZM29.5562 41.9542L29.7122 41.9302L29.5601 40.9418L29.4041 40.9658L29.5562 41.9542ZM29.6361 41.936C29.602 41.936 29.5702 41.9288 29.5441 41.918C29.5192 41.9077 29.5057 41.8966 29.5027 41.894C29.5001 41.8918 29.5057 41.8961 29.5177 41.9126C29.5296 41.929 29.5455 41.954 29.5642 41.9902L30.452 41.5298C30.3235 41.2819 30.0725 40.936 29.6361 40.936V41.936ZM29.5182 41.6603C29.2339 43.0574 29.0881 44.2843 29.0881 45.336H30.0881C30.0881 44.3717 30.2224 43.2146 30.4981 41.8597L29.5182 41.6603ZM29.0881 45.336V45.852H30.0881V45.336H29.0881ZM29.0881 45.852C29.0881 46.6714 29.285 47.4516 29.6744 48.1862L30.5579 47.7178C30.2433 47.1244 30.0881 46.5046 30.0881 45.852H29.0881ZM29.6453 47.7838C29.6348 47.8131 29.6261 47.8291 29.622 47.8358C29.618 47.8422 29.62 47.8372 29.6309 47.8277C29.6426 47.8175 29.6601 47.806 29.6823 47.7978C29.7042 47.7897 29.7223 47.788 29.7321 47.788V48.788C29.9366 48.788 30.1308 48.719 30.2894 48.5803C30.4381 48.4502 30.5291 48.2822 30.587 48.1202L29.6453 47.7838ZM29.7321 47.788C29.8262 47.788 29.8638 47.8419 29.8418 47.8163C29.8142 47.7842 29.7621 47.702 29.7007 47.5342C29.579 47.2019 29.4674 46.6663 29.3766 45.9011L28.3836 46.0189C28.4769 46.8057 28.5992 47.4341 28.7616 47.8778C28.8421 48.098 28.9445 48.3068 29.0839 48.4687C29.2289 48.6371 29.446 48.788 29.7321 48.788V47.788ZM29.3801 45.96V44.736H28.3801V45.96H29.3801ZM28.8801 44.236H28.8081V45.236H28.8801V44.236ZM28.6416 44.2646C28.038 44.4778 27.5717 44.6575 27.2517 44.8026C27.0943 44.874 26.9543 44.9449 26.8472 45.0149C26.7951 45.0489 26.7307 45.0955 26.6736 45.1556C26.6316 45.1999 26.5081 45.3384 26.5081 45.552H27.5081C27.5081 45.7356 27.4034 45.8394 27.3989 45.8441C27.3793 45.8647 27.3711 45.8671 27.3941 45.8521C27.4369 45.8241 27.522 45.778 27.6646 45.7134C27.9445 45.5865 28.3782 45.4182 28.9747 45.2074L28.6416 44.2646ZM26.5081 45.552C26.5081 46.4968 26.4639 47.1735 26.3845 47.6031C26.3439 47.8226 26.3008 47.9385 26.2739 47.987C26.2439 48.041 26.2998 47.908 26.4801 47.908V48.908C26.8365 48.908 27.0463 48.656 27.1484 48.472C27.2535 48.2825 27.3204 48.0414 27.3678 47.7849C27.4644 47.2625 27.5081 46.5112 27.5081 45.552H26.5081ZM26.4801 47.908H26.4321V48.908H26.4801V47.908ZM26.4321 47.908C26.4619 47.908 26.5021 47.9148 26.5436 47.9358C26.5842 47.9565 26.6091 47.9821 26.621 47.9976C26.6317 48.0114 26.6305 48.0149 26.6241 47.9977C26.6178 47.9807 26.609 47.9507 26.6009 47.9035L25.6153 48.0725C25.6456 48.2493 25.704 48.446 25.8292 48.6084C25.9721 48.7936 26.1839 48.908 26.4321 48.908V47.908ZM26.6035 48.0562C26.7245 47.1769 26.7881 46.4743 26.7881 45.96H25.7881C25.7881 46.4057 25.7318 47.0551 25.6128 47.9198L26.6035 48.0562ZM26.0565 45.5169L25.5285 45.7929L25.9918 46.6791L26.5198 46.4031L26.0565 45.5169ZM25.6517 45.7479L25.5437 45.7719L25.7606 46.7481L25.8686 46.7241L25.6517 45.7479ZM25.8215 45.7896C25.7797 45.7745 25.7926 45.7697 25.8163 45.7991C25.8285 45.8142 25.8387 45.8326 25.8452 45.8521C25.8515 45.871 25.8521 45.8843 25.8521 45.888H24.8521C24.8521 46.0775 24.9086 46.2665 25.0379 46.4269C25.1617 46.5803 25.3245 46.6735 25.4828 46.7304L25.8215 45.7896ZM25.8521 45.888C25.8521 45.9878 25.8108 46.0377 25.8221 46.0213C25.8296 46.0105 25.8558 45.978 25.9174 45.9235C26.0399 45.8151 26.244 45.6704 26.5462 45.4883L26.0301 44.6317C25.7083 44.8256 25.4443 45.0069 25.2548 45.1745C25.1604 45.258 25.0697 45.351 24.9991 45.4532C24.9324 45.5498 24.8521 45.7002 24.8521 45.888H25.8521ZM26.7881 45.06V45.036H25.7881V45.06H26.7881ZM26.788 45.0273C26.7639 43.6448 26.7116 42.492 26.6302 41.5719L25.6341 41.6601C25.7126 42.548 25.7643 43.6752 25.7882 45.0447L26.788 45.0273ZM26.6321 41.616C26.6321 41.6333 26.6287 41.6676 26.6097 41.7086C26.5901 41.7509 26.5621 41.7826 26.5359 41.803C26.5121 41.8217 26.4966 41.8257 26.5018 41.8241C26.5071 41.8223 26.5258 41.8173 26.5628 41.8138L26.4695 40.8182C26.297 40.8343 26.0917 40.8811 25.9203 41.015C25.7238 41.1685 25.6321 41.3889 25.6321 41.616H26.6321ZM34.5186 41.448H35.0186V41.3923L35.0063 41.3379L34.5186 41.448ZM33.7626 42.048L33.5362 41.6022L33.4808 41.6303L33.4341 41.6711L33.7626 42.048ZM32.3706 44.856L31.8832 44.7444L31.8706 44.7995V44.856H32.3706ZM32.3706 45.072H31.8706V45.8769L32.5922 45.5202L32.3706 45.072ZM33.8706 44.448V43.948H33.8122L33.7554 43.9615L33.8706 44.448ZM34.2186 44.7H34.7186V44.523L34.6072 44.3854L34.2186 44.7ZM33.1626 45.456L32.9871 44.9878L32.9541 45.0002L32.9232 45.0171L33.1626 45.456ZM33.2346 47.22L32.9872 47.6545L33.0625 47.6973L33.1477 47.7124L33.2346 47.22ZM33.6426 47.292L33.5557 47.7844L33.5988 47.792H33.6426V47.292ZM34.8186 46.8V46.3H34.6741L34.5519 46.3771L34.8186 46.8ZM34.9626 46.8L35.1776 46.3486L35.0756 46.3H34.9626V46.8ZM35.2146 47.22L35.5764 47.5651L35.7146 47.4202V47.22H35.2146ZM31.6986 46.272L32.172 46.1109L32.0298 45.6931L31.5976 45.7823L31.6986 46.272ZM30.9426 46.428L30.8674 46.9223L30.956 46.9358L31.0437 46.9177L30.9426 46.428ZM30.7146 45.672L30.8003 45.1794L30.6674 45.1563L30.541 45.2031L30.7146 45.672ZM30.9906 45.72L30.905 46.2126L31.0185 46.2324L31.1292 46.2004L30.9906 45.72ZM33.1626 41.676L32.8578 41.2797L32.8204 41.3084L32.7891 41.3437L33.1626 41.676ZM34.2186 41.576C34.1801 41.576 34.1352 41.567 34.0919 41.545C34.0499 41.5237 34.0245 41.4979 34.0124 41.4829C34.0013 41.4691 34.0014 41.4645 34.0073 41.4786C34.013 41.4923 34.0218 41.5176 34.0309 41.5581L35.0063 41.3379C34.9705 41.179 34.9091 41.0017 34.7908 40.8551C34.6574 40.6896 34.4592 40.576 34.2186 40.576V41.576ZM34.0186 41.448C34.0186 41.3377 34.0655 41.2745 34.068 41.271C34.0727 41.2647 34.0626 41.2796 34.0188 41.3144C33.9316 41.3836 33.7771 41.4798 33.5362 41.6022L33.9891 42.4938C34.2521 42.3602 34.4757 42.2284 34.6405 42.0976C34.7226 42.0324 34.8071 41.9543 34.8747 41.862C34.9403 41.7725 35.0186 41.6303 35.0186 41.448H34.0186ZM33.4341 41.6711C32.6937 42.3165 32.1969 43.3741 31.8832 44.7444L32.858 44.9676C33.1523 43.6819 33.5835 42.8674 34.0912 42.4249L33.4341 41.6711ZM31.8706 44.856V45.072H32.8706V44.856H31.8706ZM32.5922 45.5202C33.2896 45.1755 33.7435 44.9919 33.9859 44.9345L33.7554 43.9615C33.3897 44.0481 32.8436 44.2805 32.1491 44.6238L32.5922 45.5202ZM33.8706 44.948C33.8209 44.948 33.7835 44.9371 33.7622 44.9286C33.7416 44.9204 33.7329 44.9135 33.7364 44.916C33.7395 44.9182 33.7497 44.9262 33.7668 44.9433C33.7837 44.9602 33.8048 44.9834 33.83 45.0146L34.6072 44.3854C34.5241 44.2827 34.4297 44.1834 34.3229 44.106C34.2194 44.0311 34.0643 43.948 33.8706 43.948V44.948ZM33.7186 44.7V44.928H34.7186V44.7H33.7186ZM33.7186 44.928C33.7186 44.775 33.7915 44.678 33.8117 44.6528C33.8374 44.6206 33.8575 44.6068 33.8526 44.6105C33.8443 44.6167 33.8096 44.6395 33.731 44.6788C33.5789 44.7548 33.3346 44.8575 32.9871 44.9878L33.3382 45.9242C33.6947 45.7905 33.9783 45.6732 34.1782 45.5732C34.2756 45.5245 34.3729 45.4703 34.4526 45.4105C34.4917 45.3812 34.5448 45.3371 34.5926 45.2775C34.6347 45.2248 34.7186 45.103 34.7186 44.928H33.7186ZM32.9232 45.0171C32.657 45.1622 32.4491 45.2806 32.3048 45.3703C32.2344 45.414 32.1678 45.4579 32.1144 45.4991C32.0893 45.5185 32.0523 45.5486 32.0168 45.5868C31.9993 45.6056 31.9707 45.6385 31.944 45.6835C31.9214 45.7215 31.8706 45.8162 31.8706 45.948H32.8706C32.8706 46.0748 32.822 46.1635 32.8035 46.1946C32.7808 46.2327 32.7585 46.2576 32.7492 46.2676C32.7302 46.288 32.7179 46.2965 32.7258 46.2904C32.7385 46.2806 32.7709 46.258 32.8325 46.2197C32.9522 46.1454 33.1402 46.0378 33.4021 45.8949L32.9232 45.0171ZM31.8706 45.948V46.056H32.8706V45.948H31.8706ZM31.8706 46.056C31.8706 46.7615 32.3371 47.2843 32.9872 47.6545L33.482 46.7855C32.9801 46.4997 32.8706 46.2465 32.8706 46.056H31.8706ZM33.1477 47.7124L33.5557 47.7844L33.7295 46.7996L33.3215 46.7276L33.1477 47.7124ZM33.6426 47.792C33.869 47.792 34.1033 47.7241 34.3276 47.6303C34.5578 47.534 34.8113 47.3958 35.0854 47.2229L34.5519 46.3771C34.3059 46.5322 34.1035 46.64 33.9416 46.7077C33.774 46.7779 33.6802 46.792 33.6426 46.792V47.792ZM34.8186 47.3H34.9626V46.3H34.8186V47.3ZM34.7477 47.2514C34.778 47.2659 34.7663 47.2673 34.7467 47.2403C34.7366 47.2264 34.7277 47.2093 34.7218 47.1903C34.7159 47.1716 34.7146 47.1566 34.7146 47.148H35.7146C35.7146 46.9735 35.6643 46.8024 35.5566 46.6537C35.453 46.5107 35.3152 46.4141 35.1776 46.3486L34.7477 47.2514ZM34.7146 47.148V47.22H35.7146V47.148H34.7146ZM34.8528 46.8749C34.431 47.3171 34.0073 47.5 33.5706 47.5V48.5C34.334 48.5 35.0062 48.1629 35.5764 47.5651L34.8528 46.8749ZM33.5706 47.5C33.2672 47.5 33.0186 47.4026 32.7998 47.2006C32.5698 46.9883 32.352 46.6401 32.172 46.1109L31.2253 46.4331C31.4372 47.0559 31.7275 47.5717 32.1215 47.9354C32.5267 48.3094 33.018 48.5 33.5706 48.5V47.5ZM31.5976 45.7823L30.8416 45.9383L31.0437 46.9177L31.7997 46.7617L31.5976 45.7823ZM31.0178 45.9337C30.9449 45.9226 30.8911 45.9098 30.853 45.8976C30.8141 45.8852 30.8003 45.8763 30.8018 45.8772C30.8041 45.8787 30.8289 45.8955 30.8529 45.9351C30.8789 45.9781 30.8906 46.0261 30.8906 46.068H29.8906C29.8906 46.3636 30.0537 46.5832 30.2555 46.7148C30.4351 46.8319 30.6553 46.89 30.8674 46.9223L31.0178 45.9337ZM30.8906 46.068C30.8906 46.0714 30.89 46.0839 30.884 46.1015C30.8778 46.1195 30.8685 46.1355 30.8586 46.1476C30.8399 46.1705 30.8355 46.1604 30.8883 46.1409L30.541 45.2031C30.3778 45.2636 30.2113 45.3595 30.0846 45.5144C29.9516 45.677 29.8906 45.8703 29.8906 46.068H30.8906ZM30.629 46.1646L30.905 46.2126L31.0763 45.2274L30.8003 45.1794L30.629 46.1646ZM31.1292 46.2004C31.3424 46.1389 31.5214 46.0804 31.6534 46.0245C31.7165 45.9978 31.7923 45.9621 31.8602 45.9151C31.8937 45.8919 31.9453 45.8525 31.9929 45.7938C32.0388 45.7374 32.1146 45.6212 32.1146 45.456H31.1146C31.1146 45.3048 31.184 45.2036 31.2168 45.1632C31.2515 45.1205 31.2835 45.0981 31.291 45.0929C31.3069 45.0819 31.3047 45.0862 31.2638 45.1035C31.1879 45.1356 31.0549 45.1811 30.852 45.2396L31.1292 46.2004ZM32.1146 45.456C32.1146 44.2359 32.5733 43.0906 33.5362 42.0083L32.7891 41.3437C31.6879 42.5814 31.1146 43.9561 31.1146 45.456H32.1146ZM33.4675 42.0723C33.7189 41.8789 33.9162 41.7445 34.0636 41.6607C34.2345 41.5636 34.2685 41.576 34.2186 41.576V40.576C33.9847 40.576 33.7507 40.6884 33.5696 40.7913C33.365 40.9075 33.1264 41.0731 32.8578 41.2797L33.4675 42.0723ZM36.3389 41.868V41.368H36.3068L36.2749 41.3721L36.3389 41.868ZM36.7109 42.768L37.2096 42.7311L37.2087 42.7215L36.7109 42.768ZM36.7589 43.416H37.2589V43.3975L37.2575 43.3791L36.7589 43.416ZM36.4949 47.232L35.9967 47.1894L35.9502 47.732H36.4949V47.232ZM36.5669 47.232H37.0669V46.732H36.5669V47.232ZM36.5669 47.268H36.0669V48.268L36.8669 47.668L36.5669 47.268ZM36.6149 47.232V46.732H36.4482L36.3149 46.832L36.6149 47.232ZM36.7109 47.232L36.7492 46.7335L36.7301 46.732H36.7109V47.232ZM38.1149 47.34L38.0765 47.8385L38.0957 47.84H38.1149V47.34ZM38.2109 47.34V47.84H38.2843L38.3545 47.8189L38.2109 47.34ZM38.8109 47.16V46.66H38.7375L38.6672 46.6811L38.8109 47.16ZM38.8949 47.16L39.1599 46.736L39.0383 46.66H38.8949V47.16ZM39.1589 47.496H39.6589V47.4149L39.6332 47.3379L39.1589 47.496ZM38.1389 48.06L38.0901 48.5576L38.1408 48.5626L38.1915 48.5572L38.1389 48.06ZM36.9149 47.94L36.9637 47.4424L36.9393 47.44H36.9149V47.94ZM36.6869 47.94V47.44H36.6204L36.5562 47.4574L36.6869 47.94ZM36.1109 48.096L35.9372 48.5649L36.0872 48.6204L36.2416 48.5786L36.1109 48.096ZM35.7869 47.712L35.2878 47.6814L35.2869 47.6967V47.712H35.7869ZM36.0389 43.596L36.5379 43.6266L36.5389 43.6113V43.596H36.0389ZM36.0389 43.416H36.5389V43.401L36.538 43.3861L36.0389 43.416ZM35.9669 42.216H35.4669V42.231L35.4678 42.2459L35.9669 42.216ZM36.3389 42.368C36.2413 42.368 36.1658 42.3247 36.1259 42.2869C36.0958 42.2584 36.0976 42.2449 36.1138 42.284C36.1469 42.364 36.1864 42.5293 36.213 42.8145L37.2087 42.7215C37.1793 42.4066 37.1289 42.122 37.038 41.902C36.9571 41.7064 36.7556 41.368 36.3389 41.368V42.368ZM36.2122 42.8049L36.2602 43.4529L37.2575 43.3791L37.2095 42.7311L36.2122 42.8049ZM36.2589 43.416C36.2589 43.8776 36.1734 45.1246 35.9967 47.1894L36.9931 47.2746C37.1683 45.2274 37.2589 43.9304 37.2589 43.416H36.2589ZM36.4949 47.732H36.5669V46.732H36.4949V47.732ZM36.0669 47.232V47.268H37.0669V47.232H36.0669ZM36.8669 47.668L36.9149 47.632L36.3149 46.832L36.2669 46.868L36.8669 47.668ZM36.6149 47.732H36.7109V46.732H36.6149V47.732ZM36.6725 47.7305L38.0765 47.8385L38.1532 46.8415L36.7492 46.7335L36.6725 47.7305ZM38.1149 47.84H38.2109V46.84H38.1149V47.84ZM38.3545 47.8189L38.9545 47.6389L38.6672 46.6811L38.0672 46.8611L38.3545 47.8189ZM38.8109 47.66H38.8949V46.66H38.8109V47.66ZM38.6299 47.584C38.6587 47.602 38.6731 47.6197 38.6845 47.6541L39.6332 47.3379C39.5487 47.0843 39.387 46.878 39.1599 46.736L38.6299 47.584ZM38.6589 47.496C38.6589 47.4722 38.6675 47.4415 38.6838 47.418C38.6963 47.3999 38.6989 47.407 38.6619 47.4274C38.579 47.4733 38.4026 47.5293 38.0862 47.5628L38.1915 48.5572C38.5551 48.5187 38.8888 48.4447 39.1458 48.3026C39.4235 48.149 39.6589 47.8821 39.6589 47.496H38.6589ZM38.1877 47.5624L36.9637 47.4424L36.8661 48.4376L38.0901 48.5576L38.1877 47.5624ZM36.9149 47.44H36.6869V48.44H36.9149V47.44ZM36.5562 47.4574L35.9802 47.6134L36.2416 48.5786L36.8176 48.4226L36.5562 47.4574ZM36.2845 47.6271C36.2285 47.6064 36.2313 47.5954 36.25 47.6176C36.2603 47.6297 36.2709 47.6468 36.2783 47.6676C36.2855 47.688 36.2869 47.7042 36.2869 47.712H35.2869C35.2869 47.9115 35.3515 48.1034 35.4857 48.2624C35.6124 48.4126 35.7773 48.5056 35.9372 48.5649L36.2845 47.6271ZM36.2859 47.7426L36.5379 43.6266L35.5398 43.5654L35.2878 47.6814L36.2859 47.7426ZM36.5389 43.596V43.416H35.5389V43.596H36.5389ZM36.538 43.3861L36.466 42.1861L35.4678 42.2459L35.5398 43.4459L36.538 43.3861ZM36.4669 42.216C36.4669 42.2176 36.4666 42.2363 36.4556 42.2644C36.4439 42.2942 36.4248 42.3223 36.4015 42.3441C36.3585 42.3844 36.336 42.3725 36.4029 42.3639L36.2749 41.3721C36.0938 41.3955 35.8853 41.4576 35.7183 41.6139C35.5372 41.7833 35.4669 42.0044 35.4669 42.216H36.4669ZM41.78 40.116V39.616H41.7585L41.7371 39.6178L41.78 40.116ZM44.48 41.532L44.9778 41.4853L44.9713 41.4156L44.9459 41.3504L44.48 41.532ZM44.516 41.916H45.016V41.8926L45.0138 41.8693L44.516 41.916ZM42.824 44.616L42.9651 45.0957L43.044 45.0725L43.1113 45.0252L42.824 44.616ZM42.416 44.88H41.916V44.9443L41.9323 45.0065L42.416 44.88ZM42.5 48.516L42.4405 49.0124L42.4701 49.016H42.5V48.516ZM41.696 44.916L42.1735 44.7675L42.0737 44.4468L41.7391 44.4179L41.696 44.916ZM40.616 44.388H40.116V44.4479L40.1302 44.5062L40.616 44.388ZM40.952 43.98L41.1134 43.5067L40.9482 43.4504L40.7839 43.5091L40.952 43.98ZM41.48 44.16L41.3187 44.6333L41.98 44.8587V44.16H41.48ZM41.48 44.136H41.98V44.0793L41.9673 44.0241L41.48 44.136ZM41.852 42.66H41.352V42.72L41.3662 42.7784L41.852 42.66ZM42.2 44.088L41.7142 44.2064L41.8429 44.7341L42.3581 44.5623L42.2 44.088ZM43.544 42.96L43.9782 43.2081L43.9826 43.2003L43.9867 43.1924L43.544 42.96ZM42.116 40.836L42.1552 40.3375L42.1356 40.336H42.116V40.836ZM41.624 40.836V40.336H41.5967L41.5696 40.339L41.624 40.836ZM40.172 42.252H40.672V42.134L40.6192 42.0284L40.172 42.252ZM39.752 42.588L39.5375 43.0396L39.6805 43.1076L39.8365 43.0808L39.752 42.588ZM41.78 40.616H41.972V39.616H41.78V40.616ZM41.972 40.616C42.5675 40.616 43.0103 40.7242 43.3312 40.9054C43.643 41.0814 43.8696 41.3426 44.0142 41.7136L44.9459 41.3504C44.7225 40.7774 44.3471 40.3306 43.8229 40.0346C43.3077 39.7438 42.6806 39.616 41.972 39.616V40.616ZM43.9822 41.5787L44.0182 41.9627L45.0138 41.8693L44.9778 41.4853L43.9822 41.5787ZM44.016 41.916V42.036H45.016V41.916H44.016ZM44.016 42.036C44.016 42.7326 43.5995 43.4606 42.5367 44.2068L43.1113 45.0252C44.3045 44.1874 45.016 43.1954 45.016 42.036H44.016ZM42.6829 44.1363C42.5298 44.1814 42.3741 44.2396 42.2464 44.3222C42.135 44.3943 41.916 44.5711 41.916 44.88H42.916C42.916 44.9823 42.8777 45.0606 42.8436 45.1067C42.8277 45.1283 42.8131 45.1425 42.8042 45.1503C42.7953 45.1582 42.7897 45.1618 42.7897 45.1618C42.7895 45.1619 42.793 45.1597 42.8011 45.1555C42.8092 45.1515 42.8206 45.1462 42.8359 45.1398C42.867 45.127 42.9094 45.1121 42.9651 45.0957L42.6829 44.1363ZM41.9323 45.0065C42.2474 46.2116 42.396 47.1649 42.396 47.88H43.396C43.396 47.0431 43.2247 45.9964 42.8998 44.7535L41.9323 45.0065ZM42.396 47.88V48.036H43.396V47.88H42.396ZM42.396 48.036C42.396 48.0833 42.391 48.1069 42.3892 48.1134C42.3877 48.1188 42.3914 48.1019 42.4113 48.0778C42.4329 48.0516 42.4606 48.0326 42.486 48.0224C42.5082 48.0134 42.5165 48.016 42.5 48.016V49.016C42.7372 49.016 42.9968 48.9395 43.1827 48.7142C43.3534 48.5073 43.396 48.2522 43.396 48.036H42.396ZM42.5596 48.0196C42.5248 48.0154 42.5719 48.0127 42.6286 48.0694C42.6574 48.0982 42.6774 48.1317 42.6889 48.1634C42.6997 48.1932 42.7 48.2132 42.7 48.216H41.7C41.7 48.4023 41.756 48.611 41.9215 48.7766C42.0782 48.9333 42.2752 48.9926 42.4405 49.0124L42.5596 48.0196ZM42.7 48.216V47.916H41.7V48.216H42.7ZM42.7 47.916C42.7 46.9356 42.5211 45.885 42.1735 44.7675L41.2186 45.0645C41.5429 46.107 41.7 47.0564 41.7 47.916H42.7ZM41.7391 44.4179C41.443 44.3923 41.2606 44.3421 41.1596 44.2928C41.0681 44.2481 41.0924 44.2309 41.1019 44.2698L40.1302 44.5062C40.2117 44.8411 40.452 45.0599 40.7204 45.1912C40.9795 45.3179 41.301 45.3837 41.653 45.4141L41.7391 44.4179ZM41.116 44.388V44.316H40.116V44.388H41.116ZM41.116 44.316C41.116 44.3468 41.1096 44.3813 41.0951 44.4144C41.081 44.4466 41.0638 44.4673 41.0536 44.4776C41.0441 44.487 41.0415 44.4868 41.0531 44.4801C41.0646 44.4736 41.0858 44.4631 41.1202 44.4509L40.7839 43.5091C40.5079 43.6077 40.116 43.8385 40.116 44.316H41.116ZM40.7907 44.4533L41.3187 44.6333L41.6414 43.6867L41.1134 43.5067L40.7907 44.4533ZM41.98 44.16V44.136H40.98V44.16H41.98ZM41.9673 44.0241C41.6934 42.8316 41.572 42.0862 41.572 41.736H40.572C40.572 42.2178 40.7227 43.0724 40.9927 44.2479L41.9673 44.0241ZM41.572 41.736C41.572 41.7257 41.5736 41.7391 41.5632 41.7657C41.5516 41.7954 41.5301 41.8285 41.4985 41.8554C41.4392 41.906 41.4034 41.888 41.48 41.888V40.888C41.2847 40.888 41.0449 40.928 40.8496 41.0946C40.639 41.2742 40.572 41.5203 40.572 41.736H41.572ZM41.48 41.888C41.3775 41.888 41.3009 41.836 41.2669 41.7973C41.2458 41.7732 41.2582 41.7748 41.2791 41.8463C41.3206 41.9882 41.352 42.2484 41.352 42.66H42.352C42.352 42.2236 42.3214 41.8478 42.2389 41.5657C42.1978 41.4252 42.1328 41.2678 42.0186 41.1377C41.8917 40.993 41.7066 40.888 41.48 40.888V41.888ZM41.3662 42.7784L41.7142 44.2064L42.6858 43.9696L42.3378 42.5416L41.3662 42.7784ZM42.3581 44.5623C43.0585 44.3289 43.6013 43.8676 43.9782 43.2081L43.1099 42.7119C42.8468 43.1724 42.4935 43.4631 42.0419 43.6137L42.3581 44.5623ZM43.9867 43.1924C44.1764 42.8312 44.296 42.4655 44.296 42.108H43.296C43.296 42.2465 43.2477 42.4488 43.1013 42.7276L43.9867 43.1924ZM44.296 42.108V41.952H43.296V42.108H44.296ZM44.296 41.952C44.296 41.4516 44.068 41.0404 43.6527 40.7645C43.2691 40.5097 42.7498 40.3843 42.1552 40.3375L42.0769 41.3345C42.6023 41.3757 42.9229 41.4803 43.0994 41.5975C43.244 41.6936 43.296 41.7964 43.296 41.952H44.296ZM42.116 40.336H41.624V41.336H42.116V40.336ZM41.5696 40.339C41.0038 40.4009 40.5266 40.5032 40.1767 40.6693C39.8293 40.8341 39.48 41.1318 39.48 41.616H40.48C40.48 41.7002 40.4047 41.6679 40.6054 41.5727C40.8034 41.4788 41.1483 41.3911 41.6785 41.333L41.5696 40.339ZM39.48 41.616V41.688H40.48V41.616H39.48ZM39.48 41.688C39.48 41.938 39.5976 42.2211 39.7248 42.4756L40.6192 42.0284C40.5614 41.9126 40.5237 41.8234 40.5014 41.7579C40.477 41.6864 40.48 41.669 40.48 41.688H39.48ZM39.672 42.252C39.672 42.2279 39.6773 42.1921 39.6961 42.1534C39.7148 42.115 39.7387 42.0903 39.7547 42.0776C39.769 42.0661 39.7735 42.0668 39.7578 42.0728C39.7423 42.0787 39.7136 42.0873 39.6675 42.0952L39.8365 43.0808C40.0159 43.0501 40.2155 42.9895 40.3794 42.8584C40.5654 42.7096 40.672 42.4952 40.672 42.252H39.672ZM39.9666 42.1364C39.8803 42.0954 39.772 42.0067 39.772 41.652H38.772C38.772 42.2413 38.9838 42.7766 39.5375 43.0396L39.9666 42.1364ZM39.772 41.652C39.772 41.4085 39.8704 41.2119 40.1602 41.0344C40.4806 40.8381 41.0165 40.6836 41.8229 40.6142L41.7371 39.6178C40.8715 39.6924 40.1535 39.8659 39.6379 40.1816C39.0917 40.5161 38.772 41.0155 38.772 41.652H39.772ZM53.0364 39.24L53.2671 38.7964L53.1586 38.74H53.0364V39.24ZM53.3364 39.588L53.8321 39.6532L53.8364 39.6208V39.588H53.3364ZM53.0364 41.868L52.5407 41.8028L52.5364 41.8352V41.868H53.0364ZM53.7804 47.04L53.2892 47.1331L53.2982 47.1807L53.3162 47.2257L53.7804 47.04ZM54.3804 48.54H54.8804V48.4437L54.8446 48.3543L54.3804 48.54ZM54.1284 48.888V49.388H54.2972L54.4314 49.2857L54.1284 48.888ZM53.9004 48.888L53.7567 49.3669L53.827 49.388H53.9004V48.888ZM53.1804 47.412L52.6985 47.5453L52.7025 47.5597L52.7073 47.5737L53.1804 47.412ZM52.5564 43.932L53.0521 43.8662L52.9945 43.432H52.5564V43.932ZM52.4844 43.932V43.432H52.1253L52.0106 43.7722L52.4844 43.932ZM51.5004 46.068L51.3791 45.5829L51.3791 45.5829L51.5004 46.068ZM51.3084 46.116V46.616H51.37L51.4297 46.6011L51.3084 46.116ZM50.6844 45.132L51.1521 44.9552L51.0299 44.632H50.6844V45.132ZM50.6004 45.132V44.632H50.1241L50.101 45.1077L50.6004 45.132ZM49.5804 47.496L49.0965 47.37L49.0766 47.4468L49.0813 47.5259L49.5804 47.496ZM49.8804 45.096H50.3804V45.0706L50.3778 45.0453L49.8804 45.096ZM49.5564 41.916H49.0564V41.9414L49.059 41.9667L49.5564 41.916ZM50.7084 43.068L50.2177 43.1642L50.2232 43.1919L50.2317 43.2189L50.7084 43.068ZM51.3564 44.868L50.9864 45.2043L51.426 45.6878L51.7778 45.1372L51.3564 44.868ZM51.9084 43.332L51.4415 43.1532L51.4307 43.1814L51.4233 43.2107L51.9084 43.332ZM52.3284 41.568L52.8213 41.6518L52.8725 41.351L52.6284 41.168L52.3284 41.568ZM52.2804 41.532L51.7953 41.4107L51.7148 41.7328L51.9804 41.932L52.2804 41.532ZM52.3284 41.34L52.8135 41.4613L52.8284 41.4016V41.34H52.3284ZM52.3284 41.268L51.8291 41.2414L51.8284 41.2547V41.268H52.3284ZM53.0004 39.74H53.0364V38.74H53.0004V39.74ZM52.8057 39.6836C52.8376 39.7002 52.8589 39.7138 52.872 39.7235C52.8852 39.7332 52.887 39.7364 52.8827 39.7315C52.8781 39.7261 52.8659 39.7105 52.855 39.6839C52.8436 39.656 52.8364 39.623 52.8364 39.588H53.8364C53.8364 39.1624 53.5027 38.9189 53.2671 38.7964L52.8057 39.6836ZM52.8407 39.5228L52.5407 41.8028L53.5321 41.9332L53.8321 39.6532L52.8407 39.5228ZM52.5364 41.868C52.5364 42.7556 52.7951 44.5272 53.2892 47.1331L54.2717 46.9469C53.7737 44.3208 53.5364 42.6444 53.5364 41.868H52.5364ZM53.3162 47.2257L53.9162 48.7257L54.8446 48.3543L54.2446 46.8543L53.3162 47.2257ZM53.8804 48.54C53.8804 48.4536 53.9154 48.4076 53.9124 48.4117C53.9118 48.4126 53.9059 48.4205 53.8909 48.435C53.876 48.4494 53.8548 48.4679 53.8254 48.4903L54.4314 49.2857C54.5377 49.2047 54.6416 49.1098 54.7224 48.9983C54.8034 48.8864 54.8804 48.7304 54.8804 48.54H53.8804ZM54.1284 48.388H53.9004V49.388H54.1284V48.388ZM54.0441 48.4091C54.1696 48.4467 54.2071 48.5251 54.1672 48.4711C54.1432 48.4387 54.1036 48.3741 54.0498 48.2638C53.9434 48.0456 53.8112 47.7116 53.6535 47.2503L52.7073 47.5737C52.8696 48.0484 53.0174 48.4284 53.151 48.7022C53.2172 48.8379 53.2877 48.9638 53.3636 49.0664C53.4237 49.1474 53.5512 49.3053 53.7567 49.3669L54.0441 48.4091ZM53.6623 47.2787C53.4639 46.5614 53.2594 45.4296 53.0521 43.8662L52.0607 43.9978C52.2694 45.5704 52.4809 46.7586 52.6985 47.5453L53.6623 47.2787ZM52.5564 43.432H52.4844V44.432H52.5564V43.432ZM52.0106 43.7722C51.7804 44.455 51.5891 44.9571 51.4363 45.2888C51.3591 45.4564 51.2992 45.5639 51.2573 45.6252C51.2362 45.6559 51.2284 45.662 51.235 45.6558C51.2368 45.6541 51.2851 45.6064 51.3791 45.5829L51.6217 46.5531C51.7638 46.5176 51.8643 46.4371 51.9226 46.3819C51.9856 46.3222 52.0386 46.2541 52.0826 46.1898C52.1706 46.0611 52.2577 45.8956 52.3445 45.7072C52.5197 45.3269 52.7244 44.785 52.9582 44.0918L52.0106 43.7722ZM51.3791 45.5829L51.1871 45.6309L51.4297 46.6011L51.6217 46.5531L51.3791 45.5829ZM51.3084 45.616C51.4341 45.616 51.5025 45.6768 51.5036 45.6777C51.5072 45.6808 51.4875 45.6635 51.4487 45.6022C51.3719 45.4811 51.272 45.2724 51.1521 44.9552L50.2167 45.3088C50.3448 45.6476 50.4729 45.9309 50.6042 46.1378C50.6693 46.2405 50.7487 46.3462 50.8462 46.4313C50.9413 46.5142 51.0987 46.616 51.3084 46.616V45.616ZM50.6844 44.632H50.6004V45.632H50.6844V44.632ZM50.101 45.1077C50.0533 46.0902 49.9835 46.8029 49.8962 47.2615C49.8517 47.4955 49.8084 47.6311 49.7773 47.6967C49.7616 47.7298 49.7621 47.7166 49.7906 47.6892C49.8251 47.6561 49.9096 47.596 50.0364 47.596V48.596C50.2332 48.596 50.3848 48.5051 50.4836 48.4102C50.5763 48.3211 50.6382 48.2152 50.681 48.1248C50.767 47.9434 50.8291 47.7085 50.8786 47.4485C50.9793 46.9191 51.0515 46.1498 51.0998 45.1563L50.101 45.1077ZM50.0364 47.596H50.0004V48.596H50.0364V47.596ZM50.0004 47.596C50.0026 47.596 50.0251 47.5968 50.0556 47.6122C50.0869 47.628 50.1056 47.6486 50.113 47.6593C50.1186 47.6672 50.1118 47.6607 50.1025 47.6267C50.0932 47.5929 50.084 47.5409 50.0795 47.4661L49.0813 47.5259C49.0957 47.7651 49.1469 48.0229 49.2938 48.2327C49.4626 48.4739 49.7186 48.596 50.0004 48.596V47.596ZM50.0643 47.622C50.2755 46.8109 50.3804 45.9685 50.3804 45.096H49.3804C49.3804 45.8875 49.2853 46.6451 49.0965 47.37L50.0643 47.622ZM50.3778 45.0453L50.0538 41.8653L49.059 41.9667L49.383 45.1467L50.3778 45.0453ZM50.0564 41.916V41.688H49.0564V41.916H50.0564ZM50.0564 41.688C50.0564 41.64 50.0608 41.6137 50.0632 41.6037C50.0655 41.5939 50.0635 41.6095 50.045 41.6356C50.0242 41.6648 49.9919 41.694 49.951 41.7132C49.9127 41.7311 49.8849 41.732 49.8804 41.732V40.732C49.6399 40.732 49.3934 40.8261 49.2298 41.0564C49.0885 41.2553 49.0564 41.492 49.0564 41.688H50.0564ZM49.8804 41.732C49.7789 41.732 49.7328 41.6783 49.7471 41.6932C49.7649 41.7117 49.8081 41.7689 49.8656 41.8966C49.9797 42.1495 50.1 42.5636 50.2177 43.1642L51.1991 42.9718C51.0768 42.3484 50.9391 41.8445 50.7772 41.4854C50.6968 41.3071 50.5974 41.1348 50.4682 41.0003C50.3355 40.8622 50.1379 40.732 49.8804 40.732V41.732ZM50.2317 43.2189C50.4084 43.7769 50.5527 44.2122 50.664 44.5214C50.7194 44.6753 50.7688 44.8041 50.8116 44.9036C50.8329 44.9531 50.8551 45.0013 50.8778 45.0444C50.8957 45.0782 50.9318 45.1442 50.9864 45.2043L51.7264 44.5317C51.761 44.5698 51.7729 44.5978 51.7622 44.5776C51.7565 44.5667 51.7459 44.5449 51.7302 44.5084C51.699 44.4359 51.6574 44.3287 51.6049 44.1826C51.5002 43.8918 51.3605 43.4711 51.1851 42.9171L50.2317 43.2189ZM51.7778 45.1372C52.009 44.7752 52.2084 44.1936 52.3935 43.4533L51.4233 43.2107C51.2404 43.9424 51.0718 44.3848 50.9351 44.5988L51.7778 45.1372ZM52.3753 43.5108C52.5377 43.0867 52.6842 42.4585 52.8213 41.6518L51.8355 41.4842C51.7006 42.2775 51.5671 42.8253 51.4415 43.1532L52.3753 43.5108ZM52.6284 41.168L52.5804 41.132L51.9804 41.932L52.0284 41.968L52.6284 41.168ZM52.7655 41.6533L52.8135 41.4613L51.8433 41.2187L51.7953 41.4107L52.7655 41.6533ZM52.8284 41.34V41.268H51.8284V41.34H52.8284ZM52.8277 41.2946C52.8631 40.6307 52.9345 40.1775 53.025 39.9043C53.0706 39.7667 53.1094 39.7116 53.1209 39.6987C53.1219 39.6975 53.0781 39.74 53.0004 39.74V38.74C52.7347 38.74 52.5219 38.867 52.373 39.0348C52.2344 39.1909 52.1422 39.3893 52.0758 39.5897C51.9423 39.9925 51.8658 40.5533 51.8291 41.2414L52.8277 41.2946ZM58.6593 41.448H59.1593V41.3923L59.147 41.3379L58.6593 41.448ZM57.9033 42.048L57.6768 41.6022L57.6215 41.6303L57.5747 41.6711L57.9033 42.048ZM56.5113 44.856L56.0239 44.7444L56.0113 44.7995V44.856H56.5113ZM56.5113 45.072H56.0113V45.8769L56.7328 45.5202L56.5113 45.072ZM58.0113 44.448V43.948H57.9528L57.896 43.9615L58.0113 44.448ZM58.3593 44.7H58.8593V44.523L58.7479 44.3854L58.3593 44.7ZM57.3033 45.456L57.1277 44.9878L57.0947 45.0002L57.0638 45.0171L57.3033 45.456ZM57.3753 47.22L57.1278 47.6545L57.2031 47.6973L57.2884 47.7124L57.3753 47.22ZM57.7833 47.292L57.6964 47.7844L57.7395 47.792H57.7833V47.292ZM58.9593 46.8V46.3H58.8147L58.6925 46.3771L58.9593 46.8ZM59.1033 46.8L59.3182 46.3486L59.2162 46.3H59.1033V46.8ZM59.3553 47.22L59.7171 47.5651L59.8553 47.4202V47.22H59.3553ZM55.8393 46.272L56.3126 46.1109L56.1704 45.6931L55.7382 45.7823L55.8393 46.272ZM55.0833 46.428L55.008 46.9223L55.0966 46.9358L55.1843 46.9177L55.0833 46.428ZM54.8553 45.672L54.9409 45.1794L54.8081 45.1563L54.6816 45.2031L54.8553 45.672ZM55.1313 45.72L55.0456 46.2126L55.1591 46.2324L55.2698 46.2004L55.1313 45.72ZM57.3033 41.676L56.9984 41.2797L56.961 41.3084L56.9297 41.3437L57.3033 41.676ZM58.3593 41.576C58.3208 41.576 58.2758 41.567 58.2325 41.545C58.1906 41.5237 58.1651 41.4979 58.153 41.4829C58.1419 41.4691 58.142 41.4645 58.1479 41.4786C58.1537 41.4923 58.1624 41.5176 58.1715 41.5581L59.147 41.3379C59.1111 41.179 59.0497 41.0017 58.9315 40.8551C58.798 40.6896 58.5998 40.576 58.3593 40.576V41.576ZM58.1593 41.448C58.1593 41.3377 58.2061 41.2745 58.2086 41.271C58.2133 41.2647 58.2033 41.2796 58.1594 41.3144C58.0722 41.3836 57.9177 41.4798 57.6768 41.6022L58.1297 42.4938C58.3928 42.3602 58.6163 42.2284 58.7811 42.0976C58.8632 42.0324 58.9477 41.9543 59.0154 41.862C59.0809 41.7725 59.1593 41.6303 59.1593 41.448H58.1593ZM57.5747 41.6711C56.8343 42.3165 56.3376 43.3741 56.0239 44.7444L56.9986 44.9676C57.2929 43.6819 57.7242 42.8674 58.2318 42.4249L57.5747 41.6711ZM56.0113 44.856V45.072H57.0113V44.856H56.0113ZM56.7328 45.5202C57.4302 45.1755 57.8841 44.9919 58.1265 44.9345L57.896 43.9615C57.5304 44.0481 56.9843 44.2805 56.2897 44.6238L56.7328 45.5202ZM58.0113 44.948C57.9616 44.948 57.9242 44.9371 57.9028 44.9286C57.8822 44.9204 57.8735 44.9135 57.877 44.916C57.8801 44.9182 57.8903 44.9262 57.9074 44.9433C57.9243 44.9602 57.9454 44.9834 57.9706 45.0146L58.7479 44.3854C58.6647 44.2827 58.5703 44.1834 58.4635 44.106C58.36 44.0311 58.2049 43.948 58.0113 43.948V44.948ZM57.8593 44.7V44.928H58.8593V44.7H57.8593ZM57.8593 44.928C57.8593 44.775 57.9321 44.678 57.9523 44.6528C57.978 44.6206 57.9981 44.6068 57.9933 44.6105C57.985 44.6167 57.9502 44.6395 57.8716 44.6788C57.7196 44.7548 57.4752 44.8575 57.1277 44.9878L57.4788 45.9242C57.8353 45.7905 58.1189 45.6732 58.3189 45.5732C58.4163 45.5245 58.5135 45.4703 58.5933 45.4105C58.6324 45.3812 58.6855 45.3371 58.7332 45.2775C58.7754 45.2248 58.8593 45.103 58.8593 44.928H57.8593ZM57.0638 45.0171C56.7977 45.1622 56.5897 45.2806 56.4454 45.3703C56.375 45.414 56.3084 45.4579 56.255 45.4991C56.2299 45.5185 56.1929 45.5486 56.1574 45.5868C56.1399 45.6056 56.1113 45.6385 56.0846 45.6835C56.062 45.7215 56.0113 45.8162 56.0113 45.948H57.0113C57.0113 46.0748 56.9626 46.1635 56.9441 46.1946C56.9215 46.2327 56.8991 46.2576 56.8898 46.2676C56.8709 46.288 56.8586 46.2965 56.8665 46.2904C56.8791 46.2806 56.9115 46.258 56.9731 46.2197C57.0928 46.1454 57.2808 46.0378 57.5427 45.8949L57.0638 45.0171ZM56.0113 45.948V46.056H57.0113V45.948H56.0113ZM56.0113 46.056C56.0113 46.7615 56.4778 47.2843 57.1278 47.6545L57.6227 46.7855C57.1207 46.4997 57.0113 46.2465 57.0113 46.056H56.0113ZM57.2884 47.7124L57.6964 47.7844L57.8701 46.7996L57.4621 46.7276L57.2884 47.7124ZM57.7833 47.792C58.0096 47.792 58.2439 47.7241 58.4682 47.6303C58.6984 47.534 58.9519 47.3958 59.226 47.2229L58.6925 46.3771C58.4466 46.5322 58.2441 46.64 58.0823 46.7077C57.9146 46.7779 57.8209 46.792 57.7833 46.792V47.792ZM58.9593 47.3H59.1033V46.3H58.9593V47.3ZM58.8883 47.2514C58.9187 47.2659 58.9069 47.2673 58.8873 47.2403C58.8773 47.2264 58.8683 47.2093 58.8624 47.1903C58.8565 47.1716 58.8553 47.1566 58.8553 47.148H59.8553C59.8553 46.9735 59.8049 46.8024 59.6972 46.6537C59.5936 46.5107 59.4558 46.4141 59.3182 46.3486L58.8883 47.2514ZM58.8553 47.148V47.22H59.8553V47.148H58.8553ZM58.9934 46.8749C58.5717 47.3171 58.1479 47.5 57.7113 47.5V48.5C58.4746 48.5 59.1468 48.1629 59.7171 47.5651L58.9934 46.8749ZM57.7113 47.5C57.4078 47.5 57.1592 47.4026 56.9404 47.2006C56.7104 46.9883 56.4926 46.6401 56.3126 46.1109L55.3659 46.4331C55.5779 47.0559 55.8681 47.5717 56.2621 47.9354C56.6673 48.3094 57.1587 48.5 57.7113 48.5V47.5ZM55.7382 45.7823L54.9822 45.9383L55.1843 46.9177L55.9403 46.7617L55.7382 45.7823ZM55.1585 45.9337C55.0855 45.9226 55.0317 45.9098 54.9936 45.8976C54.9547 45.8852 54.941 45.8763 54.9424 45.8772C54.9447 45.8787 54.9695 45.8955 54.9935 45.9351C55.0195 45.9781 55.0312 46.0261 55.0312 46.068H54.0312C54.0312 46.3636 54.1943 46.5832 54.3961 46.7148C54.5757 46.8319 54.7959 46.89 55.008 46.9223L55.1585 45.9337ZM55.0312 46.068C55.0312 46.0714 55.0306 46.0839 55.0246 46.1015C55.0185 46.1195 55.0091 46.1355 54.9992 46.1476C54.9805 46.1705 54.9761 46.1604 55.0289 46.1409L54.6816 45.2031C54.5184 45.2636 54.352 45.3595 54.2253 45.5144C54.0922 45.677 54.0312 45.8703 54.0312 46.068H55.0312ZM54.7696 46.1646L55.0456 46.2126L55.2169 45.2274L54.9409 45.1794L54.7696 46.1646ZM55.2698 46.2004C55.483 46.1389 55.662 46.0804 55.7941 46.0245C55.8572 45.9978 55.933 45.9621 56.0009 45.9151C56.0343 45.8919 56.0859 45.8525 56.1336 45.7938C56.1794 45.7374 56.2553 45.6212 56.2553 45.456H55.2553C55.2553 45.3048 55.3246 45.2036 55.3574 45.1632C55.3921 45.1205 55.4242 45.0981 55.4316 45.0929C55.4475 45.0819 55.4453 45.0862 55.4044 45.1035C55.3285 45.1356 55.1955 45.1811 54.9927 45.2396L55.2698 46.2004ZM56.2553 45.456C56.2553 44.2359 56.7139 43.0906 57.6768 42.0083L56.9297 41.3437C55.8286 42.5814 55.2553 43.9561 55.2553 45.456H56.2553ZM57.6081 42.0723C57.8595 41.8789 58.0568 41.7445 58.2043 41.6607C58.3752 41.5636 58.4091 41.576 58.3593 41.576V40.576C58.1254 40.576 57.8913 40.6884 57.7102 40.7913C57.5057 40.9075 57.267 41.0731 56.9984 41.2797L57.6081 42.0723ZM67.9309 42.912L68.4259 42.9827L68.434 42.9259L68.4291 42.8687L67.9309 42.912ZM67.6309 43.272L67.5002 43.7546L67.5879 43.7784L67.6783 43.7697L67.6309 43.272ZM66.9229 42.948L67.3161 42.6391L67.2358 42.5369L67.1159 42.4868L66.9229 42.948ZM65.2789 41.712L65.6694 42.0243L65.7605 41.9104L65.7761 41.7653L65.2789 41.712ZM65.5909 41.352L65.7269 40.8708L65.6388 40.8459L65.5476 40.8539L65.5909 41.352ZM67.6189 42.552L67.3302 42.9602L67.3986 43.0086L67.4789 43.032L67.6189 42.552ZM67.436 42.8413C67.4275 42.9004 67.4175 42.8862 67.4478 42.8499C67.4646 42.8298 67.4884 42.8096 67.5179 42.7946C67.5467 42.78 67.5708 42.7755 67.5835 42.7743L67.6783 43.7697C67.882 43.7504 68.0744 43.66 68.216 43.4901C68.3463 43.3338 68.4024 43.1476 68.4259 42.9827L67.436 42.8413ZM67.7616 42.7894C67.5838 42.7412 67.4576 42.6966 67.374 42.6583C67.2781 42.6145 67.2854 42.6 67.3161 42.6391L66.5298 43.2569C66.6485 43.408 66.8178 43.5035 66.9579 43.5677C67.1103 43.6374 67.2941 43.6988 67.5002 43.7546L67.7616 42.7894ZM67.1159 42.4868C66.5613 42.2546 66.1711 42.0584 65.9272 41.8993C65.8041 41.819 65.7389 41.7613 65.7097 41.7286C65.6743 41.6889 65.7309 41.7316 65.7309 41.844H64.7309C64.7309 42.0884 64.8581 42.2761 64.9636 42.3944C65.0755 42.5197 65.2218 42.633 65.3807 42.7367C65.7008 42.9456 66.1566 43.1694 66.7299 43.4092L67.1159 42.4868ZM65.7309 41.844C65.7309 41.8768 65.7253 41.9117 65.7128 41.9459C65.7006 41.9796 65.6842 42.0058 65.6694 42.0243L64.8885 41.3997C64.7907 41.5219 64.7309 41.6745 64.7309 41.844H65.7309ZM65.7761 41.7653C65.7816 41.7138 65.7902 41.7383 65.7528 41.7815C65.7331 41.8041 65.7081 41.823 65.6814 41.8356C65.6561 41.8476 65.638 41.8498 65.6343 41.8501L65.5476 40.8539C65.3489 40.8712 65.148 40.9524 64.9971 41.1265C64.8556 41.2897 64.8003 41.4862 64.7818 41.6587L65.7761 41.7653ZM65.455 41.8332C65.5734 41.8666 65.7881 41.9643 66.1193 42.1603C66.4412 42.3508 66.8441 42.6164 67.3302 42.9602L67.9077 42.1438C67.4098 41.7916 66.9826 41.5092 66.6286 41.2997C66.2838 41.0957 65.9765 40.9414 65.7269 40.8708L65.455 41.8332ZM67.4789 43.032C67.5065 43.04 67.4886 43.0409 67.4631 43.0115C67.451 42.9975 67.4425 42.9826 67.4374 42.9696C67.4325 42.9573 67.4325 42.9513 67.4328 42.9553L68.4291 42.8687C68.4135 42.6894 68.3506 42.5087 68.2188 42.3565C68.0893 42.2071 67.9234 42.12 67.7589 42.072L67.4789 43.032ZM73.3333 42.912L73.8283 42.9827L73.8364 42.9259L73.8314 42.8687L73.3333 42.912ZM73.0333 43.272L72.9026 43.7546L72.9903 43.7784L73.0807 43.7697L73.0333 43.272ZM72.3253 42.948L72.7184 42.6391L72.6382 42.5369L72.5183 42.4868L72.3253 42.948ZM70.6813 41.712L71.0717 42.0243L71.1629 41.9104L71.1784 41.7653L70.6813 41.712ZM70.9933 41.352L71.1293 40.8708L71.0412 40.8459L70.95 40.8539L70.9933 41.352ZM73.0213 42.552L72.7325 42.9602L72.8009 43.0086L72.8813 43.032L73.0213 42.552ZM72.8383 42.8413C72.8299 42.9004 72.8199 42.8862 72.8502 42.8499C72.8669 42.8298 72.8907 42.8096 72.9203 42.7946C72.9491 42.78 72.9732 42.7755 72.9859 42.7743L73.0807 43.7697C73.2843 43.7504 73.4768 43.66 73.6184 43.4901C73.7487 43.3338 73.8047 43.1476 73.8283 42.9827L72.8383 42.8413ZM73.164 42.7894C72.9861 42.7412 72.8599 42.6966 72.7763 42.6583C72.6804 42.6145 72.6877 42.6 72.7184 42.6391L71.9321 43.2569C72.0508 43.408 72.2201 43.5035 72.3602 43.5677C72.5126 43.6374 72.6965 43.6988 72.9026 43.7546L73.164 42.7894ZM72.5183 42.4868C71.9636 42.2546 71.5735 42.0584 71.3295 41.8993C71.2064 41.819 71.1412 41.7613 71.1121 41.7286C71.0766 41.6889 71.1333 41.7316 71.1333 41.844H70.1333C70.1333 42.0884 70.2604 42.2761 70.366 42.3944C70.4778 42.5197 70.6241 42.633 70.7831 42.7367C71.1031 42.9456 71.559 43.1694 72.1323 43.4092L72.5183 42.4868ZM71.1333 41.844C71.1333 41.8768 71.1276 41.9117 71.1152 41.9459C71.1029 41.9796 71.0865 42.0058 71.0717 42.0243L70.2908 41.3997C70.193 41.5219 70.1333 41.6745 70.1333 41.844H71.1333ZM71.1784 41.7653C71.1839 41.7138 71.1926 41.7383 71.1551 41.7815C71.1355 41.8041 71.1104 41.823 71.0838 41.8356C71.0584 41.8476 71.0403 41.8498 71.0366 41.8501L70.95 40.8539C70.7512 40.8712 70.5504 40.9524 70.3994 41.1265C70.258 41.2897 70.2026 41.4862 70.1841 41.6587L71.1784 41.7653ZM70.8573 41.8332C70.9757 41.8666 71.1904 41.9643 71.5217 42.1603C71.8436 42.3508 72.2464 42.6164 72.7325 42.9602L73.31 42.1438C72.8121 41.7916 72.385 41.5092 72.0309 41.2997C71.6862 41.0957 71.3789 40.9414 71.1293 40.8708L70.8573 41.8332ZM72.8813 43.032C72.9088 43.04 72.8909 43.0409 72.8654 43.0115C72.8534 42.9975 72.8448 42.9826 72.8397 42.9696C72.8348 42.9573 72.8348 42.9513 72.8352 42.9553L73.8314 42.8687C73.8158 42.6894 73.753 42.5087 73.6211 42.3565C73.4917 42.2071 73.3257 42.12 73.1613 42.072L72.8813 43.032Z" fill="black"/>
</g>
<defs>
<filter id="filter0_d_299_126" x="7.01999" y="39.24" width="70.3133" height="17.648" filterUnits="userSpaceOnUse" color-interpolation-filters="sRGB">
<feFlood flood-opacity="0" result="BackgroundImageFix"/>
<feColorMatrix in="SourceAlpha" type="matrix" values="0 0 0 0 0 0 0 0 0 0 0 0 0 0 0 0 0 0 127 0" result="hardAlpha"/>
<feOffset dy="4"/>
<feGaussianBlur stdDeviation="2"/>
<feComposite in2="hardAlpha" operator="out"/>
<feColorMatrix type="matrix" values="0 0 0 0 0 0 0 0 0 0 0 0 0 0 0 0 0 0 0.25 0"/>
<feBlend mode="normal" in2="BackgroundImageFix" result="effect1_dropShadow_299_126"/>
<feBlend mode="normal" in="SourceGraphic" in2="effect1_dropShadow_299_126" result="shape"/>
</filter>
</defs>
</svg>
