<svg width="361" height="141" viewBox="0 0 361 141" fill="none" xmlns="http://www.w3.org/2000/svg">
<ellipse cx="77.3324" cy="27.0391" rx="77.1984" ry="9.01301" fill="#DBC8C0"/>
<ellipse cx="77.3324" cy="27.0391" rx="77.1984" ry="9.01301" fill="#DBC8C0"/>
<ellipse cx="151.788" cy="93.657" rx="77.1984" ry="9.01301" fill="#DBC8C0"/>
<ellipse cx="151.788" cy="93.657" rx="77.1984" ry="9.01301" fill="#DBC8C0"/>
<ellipse cx="107.898" cy="45.8489" rx="77.1984" ry="24.6878" fill="#DBC8C0"/>
<ellipse cx="107.898" cy="45.8489" rx="77.1984" ry="24.6878" fill="#DBC8C0"/>
<ellipse cx="118.871" cy="73.2797" rx="59.1724" ry="24.6878" transform="rotate(13.8561 118.871 73.2797)" fill="#DBC8C0"/>
<ellipse cx="118.871" cy="73.2797" rx="59.1724" ry="24.6878" transform="rotate(13.8561 118.871 73.2797)" fill="#DBC8C0"/>
<ellipse cx="153.355" cy="63.8749" rx="62.3073" ry="39.5789" fill="#DBC8C0"/>
<ellipse cx="153.355" cy="63.8749" rx="62.3073" ry="39.5789" fill="#DBC8C0"/>
<ellipse cx="193.326" cy="27.0391" rx="77.1984" ry="9.01301" fill="#DBC8C0"/>
<ellipse cx="193.326" cy="27.0391" rx="77.1984" ry="9.01301" fill="#DBC8C0"/>
<ellipse cx="267.781" cy="93.657" rx="77.1984" ry="9.01301" fill="#DBC8C0"/>
<ellipse cx="267.781" cy="93.657" rx="77.1984" ry="9.01301" fill="#DBC8C0"/>
<ellipse cx="223.892" cy="45.8489" rx="77.1984" ry="24.6878" fill="#DBC8C0"/>
<ellipse cx="223.892" cy="45.8489" rx="77.1984" ry="24.6878" fill="#DBC8C0"/>
<ellipse cx="234.864" cy="73.2797" rx="59.1724" ry="24.6878" transform="rotate(13.8561 234.864 73.2797)" fill="#DBC8C0"/>
<ellipse cx="234.864" cy="73.2797" rx="59.1724" ry="24.6878" transform="rotate(13.8561 234.864 73.2797)" fill="#DBC8C0"/>
<ellipse cx="269.349" cy="63.8749" rx="62.3073" ry="39.5789" fill="#DBC8C0"/>
<ellipse cx="269.349" cy="63.8749" rx="62.3073" ry="39.5789" fill="#DBC8C0"/>
<path d="M155.634 99.6964C157.342 83.8858 149.997 72.7087 142.132 79.8475C137.005 84.4942 130.621 96.5556 130.081 102.607C129.629 107.765 130.303 108.468 138.744 110.091C147.668 111.656 154.158 110.965 154.699 108.151C154.714 107.463 155.416 103.55 155.634 99.6964Z" fill="#EFCEA4"/>
<path d="M154.851 99.6521L154.853 99.6321L154.855 99.6122C155.697 91.8146 154.29 85.2749 151.822 81.603C150.593 79.773 149.156 78.7313 147.673 78.4872C146.208 78.2461 144.505 78.7517 142.658 80.4278L142.658 80.4282C140.193 82.6623 137.366 86.747 135.079 91.0673C132.787 95.3973 131.118 99.8115 130.862 102.676C130.63 105.32 130.766 106.36 131.594 107.086C132.051 107.486 132.783 107.848 133.992 108.212C135.191 108.574 136.778 108.915 138.885 109.321C143.305 110.095 147.074 110.301 149.774 109.985C151.128 109.826 152.162 109.541 152.866 109.169C153.536 108.815 153.83 108.427 153.919 108.052C153.933 107.811 153.984 107.422 154.044 106.976C154.069 106.792 154.097 106.591 154.127 106.376C154.183 105.97 154.247 105.512 154.313 105.008C154.517 103.469 154.744 101.55 154.851 99.6521Z" stroke="black" stroke-opacity="0.15" stroke-width="1.56748"/>
<circle cx="142.963" cy="89.8934" r="3.27218" transform="rotate(-1.18086 142.963 89.8934)" fill="white" stroke="#CBAF8C" stroke-width="1.56748"/>
<circle cx="151.208" cy="89.5344" r="3.27218" transform="rotate(-1.18086 151.208 89.5344)" fill="white" stroke="#CBAF8C" stroke-width="1.56748"/>
<path d="M145.126 98.7512C145.126 98.7512 145.518 96.3606 147.564 96.4004C149.437 96.4369 149.828 98.7512 149.828 98.7512" stroke="#86513A" stroke-width="2.35122" stroke-linecap="round"/>
<path d="M100.704 90.3612C102.412 74.5505 95.0673 63.3735 87.2016 70.5122C82.075 75.159 75.6911 87.2204 75.1512 93.2721C74.699 98.4299 75.3733 99.133 83.8137 100.756C92.7376 102.321 99.2284 101.63 99.7695 98.816C99.7839 98.1274 100.486 94.2149 100.704 90.3612Z" fill="#EFCEA4"/>
<path d="M99.9216 90.3169L99.9227 90.2969L99.9248 90.277C100.767 82.4794 99.3598 75.9397 96.8925 72.2678C95.6628 70.4377 94.226 69.3961 92.7426 69.1519C91.2779 68.9109 89.5751 69.4164 87.7283 71.0926L87.7279 71.0929C85.2632 73.327 82.4362 77.4117 80.149 81.732C77.8567 86.0621 76.1877 90.4763 75.9319 93.3411C75.7002 95.9844 75.8365 97.0244 76.6644 97.7503C77.1209 98.1507 77.8533 98.5126 79.062 98.877C80.2613 99.2385 81.8484 99.5801 83.9555 99.9854C88.3754 100.76 92.1439 100.966 94.8439 100.649C96.1985 100.491 97.2324 100.206 97.9365 99.8334C98.6056 99.4794 98.8998 99.0922 98.9893 98.7171C99.0031 98.4758 99.0536 98.0868 99.1143 97.6408C99.1394 97.4563 99.1671 97.2559 99.197 97.0404C99.2531 96.6352 99.3166 96.177 99.3833 95.6727C99.587 94.1335 99.814 92.2146 99.9216 90.3169Z" stroke="black" stroke-opacity="0.15" stroke-width="1.56748"/>
<circle cx="88.0331" cy="80.5582" r="3.27218" transform="rotate(-1.18086 88.0331 80.5582)" fill="white" stroke="#CBAF8C" stroke-width="1.56748"/>
<circle cx="96.2782" cy="80.1991" r="3.27218" transform="rotate(-1.18086 96.2782 80.1991)" fill="white" stroke="#CBAF8C" stroke-width="1.56748"/>
<path d="M90.1963 89.416C90.1963 89.416 90.5882 87.0253 92.6346 87.0652C94.5069 87.1016 94.8987 89.416 94.8987 89.416" stroke="#86513A" stroke-width="2.35122" stroke-linecap="round"/>
<path d="M32.4865 81.6704C34.1948 65.8598 26.8497 54.6827 18.9841 61.8214C13.8575 66.4682 7.47356 78.5296 6.93372 84.5813C6.48145 89.7391 7.15573 90.4422 15.5962 92.0654C24.5201 93.6298 31.0109 92.9387 31.552 90.1252C31.5664 89.4366 32.2682 85.5241 32.4865 81.6704Z" fill="#EFCEA4"/>
<path d="M31.704 81.6261L31.7052 81.6061L31.7073 81.5862C32.5498 73.7886 31.1423 67.2489 28.675 63.577C27.4453 61.7469 26.0085 60.7053 24.5251 60.4612C23.0604 60.2201 21.3576 60.7257 19.5108 62.4018L19.5104 62.4021C17.0456 64.6362 14.2187 68.7209 11.9315 73.0412C9.63921 77.3713 7.97016 81.7855 7.71441 84.6503C7.48266 87.2936 7.61898 88.3336 8.4469 89.0596C8.90341 89.4599 9.63581 89.8218 10.8445 90.1862C12.0437 90.5477 13.6309 90.8893 15.738 91.2946C20.1579 92.069 23.9263 92.2751 26.6264 91.9586C27.981 91.7998 29.0149 91.5151 29.719 91.1426C30.3881 90.7886 30.6823 90.4014 30.7718 90.0263C30.7855 89.785 30.8361 89.396 30.8968 88.95C30.9218 88.7655 30.9496 88.5651 30.9795 88.3496C31.0356 87.9444 31.0991 87.4862 31.1658 86.9819C31.3695 85.4427 31.5965 83.5238 31.704 81.6261Z" stroke="black" stroke-opacity="0.15" stroke-width="1.56748"/>
<circle cx="19.8153" cy="71.8674" r="3.27218" transform="rotate(-1.18086 19.8153 71.8674)" fill="white" stroke="#CBAF8C" stroke-width="1.56748"/>
<circle cx="28.0604" cy="71.5084" r="3.27218" transform="rotate(-1.18086 28.0604 71.5084)" fill="white" stroke="#CBAF8C" stroke-width="1.56748"/>
<path d="M21.9788 80.7252C21.9788 80.7252 22.3706 78.3345 24.4171 78.3744C26.2893 78.4108 26.6812 80.7252 26.6812 80.7252" stroke="#86513A" stroke-width="2.35122" stroke-linecap="round"/>
<path d="M208.044 76.1842C209.753 60.3736 202.408 49.1965 194.542 56.3353C189.415 60.982 183.031 73.0434 182.492 79.0951C182.039 84.2529 182.714 84.956 191.154 86.5792C200.078 88.1437 206.569 87.4525 207.11 84.6391C207.124 83.9504 207.826 80.0379 208.044 76.1842Z" fill="#EFCEA4"/>
<path d="M207.262 76.1399L207.263 76.1199L207.265 76.1C208.108 68.3024 206.7 61.7627 204.233 58.0908C203.003 56.2608 201.566 55.2191 200.083 54.975C198.618 54.7339 196.915 55.2395 195.069 56.9156L195.068 56.916C192.603 59.1501 189.777 63.2348 187.489 67.555C185.197 71.8851 183.528 76.2993 183.272 79.1641C183.041 81.8074 183.177 82.8474 184.005 83.5734C184.461 83.9737 185.194 84.3356 186.402 84.7C187.602 85.0615 189.189 85.4031 191.296 85.8084C195.716 86.5828 199.484 86.789 202.184 86.4724C203.539 86.3137 204.573 86.0289 205.277 85.6564C205.946 85.3024 206.24 84.9152 206.33 84.5401C206.343 84.2988 206.394 83.9098 206.455 83.4638C206.48 83.2794 206.507 83.0789 206.537 82.8635C206.593 82.4582 206.657 82 206.724 81.4957C206.927 79.9565 207.154 78.0376 207.262 76.1399Z" stroke="black" stroke-opacity="0.15" stroke-width="1.56748"/>
<circle cx="195.373" cy="66.3812" r="3.27218" transform="rotate(-1.18086 195.373 66.3812)" fill="white" stroke="#CBAF8C" stroke-width="1.56748"/>
<circle cx="203.618" cy="66.0222" r="3.27218" transform="rotate(-1.18086 203.618 66.0222)" fill="white" stroke="#CBAF8C" stroke-width="1.56748"/>
<path d="M197.536 75.239C197.536 75.239 197.928 72.8484 199.975 72.8882C201.847 72.9246 202.239 75.239 202.239 75.239" stroke="#86513A" stroke-width="2.35122" stroke-linecap="round"/>
<path d="M294.343 36.2831C296.051 20.4725 288.706 9.29544 280.841 16.4342C275.714 21.0809 269.33 33.1423 268.79 39.194C268.338 44.3519 269.012 45.0549 277.453 46.6781C286.377 48.2426 292.867 47.5514 293.408 44.738C293.423 44.0493 294.125 40.1368 294.343 36.2831Z" fill="#EFCEA4"/>
<path d="M293.56 36.2388L293.562 36.2188L293.564 36.1989C294.406 28.4013 292.999 21.8616 290.531 18.1897C289.302 16.3597 287.865 15.318 286.382 15.0739C284.917 14.8328 283.214 15.3384 281.367 17.0145L281.367 17.0149C278.902 19.249 276.075 23.3337 273.788 27.654C271.496 31.984 269.827 36.3982 269.571 39.263C269.339 41.9063 269.475 42.9463 270.303 43.6723C270.76 44.0726 271.492 44.4345 272.701 44.7989C273.9 45.1604 275.487 45.502 277.594 45.9073C282.014 46.6817 285.783 46.8879 288.483 46.5714C289.837 46.4126 290.871 46.1278 291.575 45.7553C292.244 45.4013 292.539 45.0141 292.628 44.639C292.642 44.3977 292.693 44.0088 292.753 43.5627C292.778 43.3783 292.806 43.1778 292.836 42.9624C292.892 42.5571 292.956 42.0989 293.022 41.5946C293.226 40.0554 293.453 38.1365 293.56 36.2388Z" stroke="black" stroke-opacity="0.15" stroke-width="1.56748"/>
<circle cx="281.672" cy="26.4802" r="3.27218" transform="rotate(-1.18086 281.672 26.4802)" fill="white" stroke="#CBAF8C" stroke-width="1.56748"/>
<circle cx="289.917" cy="26.1211" r="3.27218" transform="rotate(-1.18086 289.917 26.1211)" fill="white" stroke="#CBAF8C" stroke-width="1.56748"/>
<path d="M283.835 35.3379C283.835 35.3379 284.227 32.9473 286.273 32.9871C288.146 33.0236 288.537 35.3379 288.537 35.3379" stroke="#86513A" stroke-width="2.35122" stroke-linecap="round"/>
<path d="M327.841 34.7763C329.527 18.9632 339.076 9.59917 345.248 18.2443C349.272 23.873 352.951 37.0143 352.195 43.0428C351.542 48.1791 350.734 48.7231 342.142 48.5185C333.089 48.1538 326.893 46.1012 326.961 43.237C327.093 42.5609 327.237 38.5886 327.841 34.7763Z" fill="#EFCEA4"/>
<path d="M328.615 34.8991L328.619 34.8793L328.621 34.8594C329.452 27.0605 332.215 20.9684 335.405 17.9037C336.995 16.3762 338.62 15.6631 340.122 15.7393C341.604 15.8145 343.161 16.6698 344.61 18.6997L344.61 18.7001C346.545 21.4063 348.441 25.9978 349.759 30.705C351.081 35.4229 351.775 40.0907 351.417 42.9446C351.083 45.5769 350.729 46.5642 349.766 47.098C349.235 47.3923 348.442 47.5906 347.184 47.6902C345.935 47.7891 344.312 47.7861 342.167 47.7351C337.683 47.554 333.957 46.9559 331.385 46.0737C330.095 45.6311 329.145 45.1335 328.536 44.62C327.957 44.1322 327.752 43.6914 327.744 43.3058C327.782 43.0671 327.815 42.6762 327.85 42.2275C327.865 42.0419 327.88 41.8401 327.897 41.6233C327.928 41.2154 327.963 40.7541 328.005 40.2471C328.133 38.6997 328.318 36.7763 328.615 34.8991Z" stroke="black" stroke-opacity="0.15" stroke-width="1.56748"/>
<circle cx="2.48844" cy="2.48844" r="3.27218" transform="matrix(-0.97265 -0.232275 -0.232275 0.97265 345.302 26.0427)" fill="white" stroke="#CBAF8C" stroke-width="1.56748"/>
<circle cx="2.48844" cy="2.48844" r="3.27218" transform="matrix(-0.97265 -0.232275 -0.232275 0.97265 337.321 23.9424)" fill="white" stroke="#CBAF8C" stroke-width="1.56748"/>
<path d="M338.31 36.0822C338.31 36.0822 338.435 33.6628 336.426 33.2676C334.589 32.9059 333.715 35.0844 333.715 35.0844" stroke="#86513A" stroke-width="2.35122" stroke-linecap="round"/>
<path d="M183.748 64.2216C185.457 48.411 178.111 37.2339 170.246 44.3727C165.119 49.0194 158.735 61.0808 158.195 67.1325C157.743 72.2903 158.417 72.9934 166.858 74.6166C175.782 76.181 182.273 75.4899 182.814 72.6764C182.828 71.9878 183.53 68.0753 183.748 64.2216Z" fill="#EFCEA4"/>
<path d="M182.966 64.1773L182.967 64.1573L182.969 64.1374C183.812 56.3398 182.404 49.8001 179.937 46.1282C178.707 44.2981 177.27 43.2565 175.787 43.0124C174.322 42.7713 172.619 43.2769 170.772 44.953L170.772 44.9533C168.307 47.1874 165.48 51.2721 163.193 55.5924C160.901 59.9225 159.232 64.3367 158.976 67.2015C158.744 69.8448 158.881 70.8848 159.709 71.6108C160.165 72.0111 160.898 72.373 162.106 72.7374C163.305 73.0989 164.893 73.4405 167 73.8458C171.42 74.6202 175.188 74.8263 177.888 74.5098C179.243 74.351 180.277 74.0663 180.981 73.6938C181.65 73.3398 181.944 72.9526 182.033 72.5775C182.047 72.3362 182.098 71.9472 182.158 71.5012C182.184 71.3167 182.211 71.1163 182.241 70.9008C182.297 70.4956 182.361 70.0374 182.428 69.5331C182.631 67.9939 182.858 66.075 182.966 64.1773Z" stroke="black" stroke-opacity="0.15" stroke-width="1.56748"/>
<circle cx="171.077" cy="54.4186" r="3.27218" transform="rotate(-1.18086 171.077 54.4186)" fill="white" stroke="#CBAF8C" stroke-width="1.56748"/>
<circle cx="179.322" cy="54.0596" r="3.27218" transform="rotate(-1.18086 179.322 54.0596)" fill="white" stroke="#CBAF8C" stroke-width="1.56748"/>
<path d="M173.24 63.2764C173.24 63.2764 173.632 60.8857 175.679 60.9256C177.551 60.962 177.943 63.2764 177.943 63.2764" stroke="#86513A" stroke-width="2.35122" stroke-linecap="round"/>
<path d="M31.097 92.0708C23.0375 96.4273 21.2949 98.8234 21.2949 106.012C21.2949 113.2 24.3445 115.814 34.8 117.774C47.8695 120.17 52.4438 117.992 55.7112 108.19C59.4142 95.556 58.9786 92.9421 52.6617 90.5461C45.0378 87.4965 38.7209 87.9322 31.097 92.0708Z" fill="#B36C4E"/>
<path d="M31.6579 93.104L31.656 93.105C27.6269 95.2829 25.4029 96.8618 24.1337 98.6578C22.9036 100.399 22.4705 102.493 22.4705 106.012C22.4705 109.439 23.1926 111.485 24.8975 112.966C26.7058 114.536 29.7952 115.639 35.0144 116.618C41.5324 117.813 45.6153 117.792 48.4388 116.489C51.1721 115.227 52.9898 112.628 54.5891 107.838C55.5094 104.698 56.1603 102.219 56.5293 100.226C56.901 98.2181 56.9684 96.7921 56.7853 95.7281C56.6108 94.714 56.2066 94.0095 55.54 93.4133C54.8324 92.7803 53.7841 92.2291 52.2447 91.6452L52.2348 91.6415L52.225 91.6376C48.5398 90.1635 45.2333 89.5556 41.9618 89.7856C38.6864 90.0159 35.3645 91.0919 31.6579 93.104Z" stroke="black" stroke-opacity="0.25" stroke-width="2.35122"/>
<circle cx="37.9413" cy="99.2983" r="2.48844" transform="rotate(-1.18086 37.9413 99.2983)" fill="white"/>
<circle cx="37.9413" cy="99.2983" r="3.27218" transform="rotate(-1.18086 37.9413 99.2983)" stroke="black" stroke-opacity="0.25" stroke-width="1.56748"/>
<circle cx="46.1867" cy="98.9393" r="2.48844" transform="rotate(-1.18086 46.1867 98.9393)" fill="white"/>
<circle cx="46.1867" cy="98.9393" r="3.27218" transform="rotate(-1.18086 46.1867 98.9393)" stroke="black" stroke-opacity="0.25" stroke-width="1.56748"/>
<path d="M36.9697 108.94C36.9697 108.94 40.0616 106.908 42.4559 106.981C44.7144 107.049 47.5502 108.94 47.5502 108.94" stroke="#86513A" stroke-width="2.35122" stroke-linecap="round"/>
<path d="M176.089 103.043C168.029 107.4 166.287 109.796 166.287 116.984C166.287 124.172 169.336 126.786 179.792 128.747C192.861 131.143 197.436 128.964 200.703 119.162C204.406 106.528 203.971 103.915 197.654 101.518C190.03 98.4689 183.713 98.9045 176.089 103.043Z" fill="#B36C4E"/>
<path d="M176.65 104.076L176.648 104.077C172.619 106.255 170.395 107.834 169.126 109.63C167.896 111.371 167.462 113.466 167.462 116.984C167.462 120.412 168.185 122.457 169.889 123.938C171.698 125.508 174.787 126.612 180.006 127.591C186.524 128.785 190.607 128.764 193.431 127.461C196.164 126.2 197.982 123.601 199.581 118.811C200.501 115.67 201.152 113.192 201.521 111.198C201.893 109.19 201.96 107.764 201.777 106.701C201.603 105.686 201.199 104.982 200.532 104.386C199.824 103.753 198.776 103.202 197.237 102.618L197.227 102.614L197.217 102.61C193.532 101.136 190.225 100.528 186.954 100.758C183.678 100.988 180.356 102.064 176.65 104.076Z" stroke="black" stroke-opacity="0.25" stroke-width="2.35122"/>
<circle cx="182.933" cy="110.271" r="2.48844" transform="rotate(-1.18086 182.933 110.271)" fill="white"/>
<circle cx="182.933" cy="110.271" r="3.27218" transform="rotate(-1.18086 182.933 110.271)" stroke="black" stroke-opacity="0.25" stroke-width="1.56748"/>
<circle cx="191.179" cy="109.912" r="2.48844" transform="rotate(-1.18086 191.179 109.912)" fill="white"/>
<circle cx="191.179" cy="109.912" r="3.27218" transform="rotate(-1.18086 191.179 109.912)" stroke="black" stroke-opacity="0.25" stroke-width="1.56748"/>
<path d="M181.962 119.912C181.962 119.912 185.054 117.88 187.448 117.953C189.706 118.021 192.542 119.912 192.542 119.912" stroke="#86513A" stroke-width="2.35122" stroke-linecap="round"/>
<path d="M321.081 114.016C313.021 118.372 311.279 120.768 311.279 127.956C311.279 135.145 314.328 137.758 324.784 139.719C337.853 142.115 342.428 139.937 345.695 130.135C349.398 117.501 348.962 114.887 342.646 112.491C335.022 109.441 328.705 109.877 321.081 114.016Z" fill="#B36C4E"/>
<path d="M321.642 115.049L321.64 115.05C317.611 117.228 315.387 118.807 314.118 120.603C312.887 122.343 312.454 124.438 312.454 127.956C312.454 131.384 313.176 133.43 314.881 134.91C316.69 136.481 319.779 137.584 324.998 138.563C331.516 139.758 335.599 139.737 338.423 138.434C341.156 137.172 342.974 134.573 344.573 129.783C345.493 126.642 346.144 124.164 346.513 122.171C346.885 120.163 346.952 118.737 346.769 117.673C346.595 116.659 346.19 115.954 345.524 115.358C344.816 114.725 343.768 114.174 342.229 113.59L342.219 113.586L342.209 113.582C338.524 112.108 335.217 111.5 331.946 111.73C328.67 111.961 325.348 113.037 321.642 115.049Z" stroke="black" stroke-opacity="0.25" stroke-width="2.35122"/>
<circle cx="327.925" cy="121.243" r="2.48844" transform="rotate(-1.18086 327.925 121.243)" fill="white"/>
<circle cx="327.925" cy="121.243" r="3.27218" transform="rotate(-1.18086 327.925 121.243)" stroke="black" stroke-opacity="0.25" stroke-width="1.56748"/>
<circle cx="336.171" cy="120.884" r="2.48844" transform="rotate(-1.18086 336.171 120.884)" fill="white"/>
<circle cx="336.171" cy="120.884" r="3.27218" transform="rotate(-1.18086 336.171 120.884)" stroke="black" stroke-opacity="0.25" stroke-width="1.56748"/>
<path d="M326.954 130.885C326.954 130.885 330.046 128.853 332.44 128.925C334.698 128.994 337.534 130.885 337.534 130.885" stroke="#86513A" stroke-width="2.35122" stroke-linecap="round"/>
<path d="M286.057 101.63C293.009 107.598 294.203 110.309 292.678 117.334C291.153 124.358 287.618 126.265 276.984 125.963C263.704 125.531 259.696 122.432 258.583 112.16C257.645 99.0279 258.625 96.5659 265.307 95.5647C273.404 94.2023 279.485 95.9683 286.057 101.63Z" fill="#B36C4E"/>
<path d="M285.29 102.521L285.291 102.522C288.766 105.506 290.605 107.52 291.464 109.545C292.297 111.507 292.276 113.646 291.529 117.084C290.802 120.434 289.662 122.28 287.682 123.365C285.581 124.516 282.328 124.939 277.02 124.788C270.397 124.572 266.412 123.685 263.929 121.813C261.526 120 260.301 117.075 259.754 112.054C259.521 108.79 259.411 106.23 259.473 104.204C259.536 102.163 259.773 100.755 260.178 99.7538C260.563 98.7998 261.108 98.1972 261.886 97.756C262.711 97.2875 263.853 96.9713 265.481 96.7274L265.491 96.7258L265.502 96.7241C269.416 96.0655 272.776 96.1729 275.924 97.0919C279.076 98.0119 282.094 99.7682 285.29 102.521Z" stroke="black" stroke-opacity="0.25" stroke-width="2.35122"/>
<circle cx="2.48844" cy="2.48844" r="2.48844" transform="matrix(-0.97265 -0.232275 -0.232275 0.97265 280.833 105.399)" fill="white"/>
<circle cx="2.48844" cy="2.48844" r="3.27218" transform="matrix(-0.97265 -0.232275 -0.232275 0.97265 280.833 105.399)" stroke="black" stroke-opacity="0.25" stroke-width="1.56748"/>
<circle cx="2.48844" cy="2.48844" r="2.48844" transform="matrix(-0.97265 -0.232275 -0.232275 0.97265 272.852 103.298)" fill="white"/>
<circle cx="2.48844" cy="2.48844" r="3.27218" transform="matrix(-0.97265 -0.232275 -0.232275 0.97265 272.852 103.298)" stroke="black" stroke-opacity="0.25" stroke-width="1.56748"/>
<path d="M276.739 116.869C276.739 116.869 274.148 114.228 271.793 113.79C269.572 113.378 266.399 114.624 266.399 114.624" stroke="#86513A" stroke-width="2.35122" stroke-linecap="round"/>
<path d="M139.253 34.0741C131.194 38.4306 129.451 40.8266 129.451 48.0148C129.451 55.203 132.501 57.8169 142.956 59.7774C156.026 62.1734 160.6 59.9952 163.867 50.1931C167.57 37.5593 167.135 34.9454 160.818 32.5493C153.194 29.4997 146.877 29.9354 139.253 34.0741Z" fill="#B36C4E"/>
<path d="M139.814 35.1073L139.812 35.1083C135.783 37.2862 133.559 38.865 132.29 40.661C131.06 42.4018 130.627 44.4966 130.627 48.0148C130.627 51.4424 131.349 53.4883 133.054 54.9689C134.862 56.5393 137.951 57.6427 143.171 58.6215C149.689 59.8162 153.772 59.7952 156.595 58.4921C159.328 57.2306 161.146 54.6317 162.745 49.8416C163.666 46.7009 164.317 44.2225 164.686 42.2293C165.057 40.2213 165.125 38.7953 164.942 37.7314C164.767 36.7172 164.363 36.0128 163.696 35.4165C162.989 34.7835 161.94 34.2324 160.401 33.6485L160.391 33.6447L160.381 33.6408C156.696 32.1667 153.39 31.5588 150.118 31.7888C146.843 32.0191 143.521 33.0951 139.814 35.1073Z" stroke="black" stroke-opacity="0.25" stroke-width="2.35122"/>
<circle cx="146.098" cy="41.3016" r="2.48844" transform="rotate(-1.18086 146.098 41.3016)" fill="white"/>
<circle cx="146.098" cy="41.3016" r="3.27218" transform="rotate(-1.18086 146.098 41.3016)" stroke="black" stroke-opacity="0.25" stroke-width="1.56748"/>
<circle cx="154.343" cy="40.9425" r="2.48844" transform="rotate(-1.18086 154.343 40.9425)" fill="white"/>
<circle cx="154.343" cy="40.9425" r="3.27218" transform="rotate(-1.18086 154.343 40.9425)" stroke="black" stroke-opacity="0.25" stroke-width="1.56748"/>
<path d="M145.126 50.9432C145.126 50.9432 148.218 48.9112 150.612 48.9838C152.871 49.0522 155.706 50.9432 155.706 50.9432" stroke="#86513A" stroke-width="2.35122" stroke-linecap="round"/>
<path d="M78.5825 97.0808C63.117 100.784 55.0575 111.457 64.4239 116.467C70.523 119.735 84.0281 121.695 89.9094 120.17C94.9193 118.863 95.355 117.992 94.048 109.497C92.5233 100.566 89.6916 94.6847 86.8598 95.1204C86.2064 95.3382 82.2855 95.9917 78.5825 97.0808Z" fill="#EFC0A4"/>
<path d="M78.8037 97.8327L78.7845 97.8383L78.765 97.843C71.1376 99.6693 65.4509 103.192 62.8215 106.75C61.5109 108.523 61.0126 110.226 61.281 111.705C61.5461 113.166 62.5944 114.6 64.7936 115.776L64.794 115.776C67.7264 117.347 72.5234 118.637 77.361 119.34C82.2095 120.044 86.9279 120.133 89.7121 119.412C92.2796 118.742 93.2133 118.264 93.6189 117.24C93.8426 116.676 93.9374 115.864 93.8745 114.604C93.8121 113.353 93.6006 111.743 93.2744 109.622C92.5188 105.199 91.4468 101.58 90.2415 99.1436C89.6369 97.9211 89.0213 97.043 88.4339 96.505C87.8757 95.9937 87.4121 95.8467 87.0288 95.8885C86.7969 95.9566 86.4135 96.0396 85.973 96.1323C85.7909 96.1707 85.5928 96.2119 85.3798 96.2561C84.9793 96.3394 84.5263 96.4336 84.029 96.5402C82.5108 96.8655 80.6271 97.2964 78.8037 97.8327Z" stroke="black" stroke-opacity="0.25" stroke-width="1.56748"/>
<circle cx="73.2099" cy="105.568" r="2.48844" transform="rotate(-1.18086 73.2099 105.568)" fill="white"/>
<circle cx="73.2099" cy="105.568" r="3.27218" transform="rotate(-1.18086 73.2099 105.568)" stroke="black" stroke-opacity="0.25" stroke-width="1.56748"/>
<circle cx="86.9411" cy="105.209" r="2.48844" transform="rotate(-1.18086 86.9411 105.209)" fill="white"/>
<circle cx="86.9411" cy="105.209" r="3.27218" transform="rotate(-1.18086 86.9411 105.209)" stroke="black" stroke-opacity="0.25" stroke-width="1.56748"/>
<path d="M77.7244 112.859C77.7244 112.859 79.0985 112.055 80.1627 112.075C81.1664 112.095 82.4268 112.859 82.4268 112.859" stroke="#86513A" stroke-width="2.35122" stroke-linecap="round"/>
<path d="M223.574 108.053C208.109 111.756 200.049 122.43 209.416 127.44C215.515 130.707 229.02 132.667 234.901 131.143C239.911 129.836 240.347 128.964 239.04 120.469C237.515 111.538 234.684 105.657 231.852 106.093C231.198 106.311 227.277 106.964 223.574 108.053Z" fill="#EFC0A4"/>
<path d="M223.796 108.805L223.776 108.811L223.757 108.815C216.13 110.642 210.443 114.165 207.813 117.722C206.503 119.495 206.005 121.198 206.273 122.678C206.538 124.138 207.586 125.572 209.786 126.748L209.786 126.749C212.718 128.32 217.515 129.61 222.353 130.312C227.201 131.017 231.92 131.106 234.704 130.384C237.272 129.714 238.205 129.236 238.611 128.213C238.835 127.648 238.929 126.837 238.866 125.576C238.804 124.325 238.593 122.715 238.266 120.595C237.511 116.171 236.439 112.553 235.233 110.116C234.629 108.893 234.013 108.015 233.426 107.477C232.868 106.966 232.404 106.819 232.021 106.861C231.789 106.929 231.405 107.012 230.965 107.105C230.783 107.143 230.585 107.184 230.372 107.229C229.971 107.312 229.518 107.406 229.021 107.513C227.503 107.838 225.619 108.269 223.796 108.805Z" stroke="black" stroke-opacity="0.25" stroke-width="1.56748"/>
<circle cx="218.202" cy="116.541" r="2.48844" transform="rotate(-1.18086 218.202 116.541)" fill="white"/>
<circle cx="218.202" cy="116.541" r="3.27218" transform="rotate(-1.18086 218.202 116.541)" stroke="black" stroke-opacity="0.25" stroke-width="1.56748"/>
<circle cx="231.933" cy="116.182" r="2.48844" transform="rotate(-1.18086 231.933 116.182)" fill="white"/>
<circle cx="231.933" cy="116.182" r="3.27218" transform="rotate(-1.18086 231.933 116.182)" stroke="black" stroke-opacity="0.25" stroke-width="1.56748"/>
<path d="M222.716 123.831C222.716 123.831 224.09 123.027 225.154 123.048C226.158 123.067 227.419 123.831 227.419 123.831" stroke="#86513A" stroke-width="2.35122" stroke-linecap="round"/>
<path d="M117.757 33.4024C102.291 37.1054 94.2318 47.7788 103.598 52.7888C109.697 56.0562 123.202 58.0166 129.084 56.4918C134.094 55.1849 134.529 54.3136 133.222 45.8184C131.698 36.8876 128.866 31.0063 126.034 31.442C125.381 31.6598 121.46 32.3133 117.757 33.4024Z" fill="#EFC0A4"/>
<path d="M117.978 34.1543L117.959 34.1599L117.939 34.1646C110.312 35.9909 104.625 39.5138 101.996 43.0713C100.685 44.8444 100.187 46.5477 100.455 48.0269C100.72 49.4874 101.769 50.9214 103.968 52.0977L103.968 52.0979C106.901 53.6688 111.698 54.9591 116.535 55.6617C121.384 56.366 126.102 56.4549 128.886 55.7333C131.454 55.0635 132.388 54.5857 132.793 53.562C133.017 52.9975 133.112 52.1861 133.049 50.9253C132.986 49.6742 132.775 48.0646 132.449 45.9438C131.693 41.5206 130.621 37.902 129.416 35.4652C128.811 34.2428 128.196 33.3646 127.608 32.8266C127.05 32.3154 126.586 32.1683 126.203 32.2101C125.971 32.2782 125.588 32.3612 125.147 32.454C124.965 32.4923 124.767 32.5335 124.554 32.5778C124.154 32.6611 123.701 32.7552 123.203 32.8618C121.685 33.1871 119.801 33.618 117.978 34.1543Z" stroke="black" stroke-opacity="0.25" stroke-width="1.56748"/>
<circle cx="112.384" cy="41.8898" r="2.48844" transform="rotate(-1.18086 112.384 41.8898)" fill="white"/>
<circle cx="112.384" cy="41.8898" r="3.27218" transform="rotate(-1.18086 112.384 41.8898)" stroke="black" stroke-opacity="0.25" stroke-width="1.56748"/>
<circle cx="126.115" cy="41.5308" r="2.48844" transform="rotate(-1.18086 126.115 41.5308)" fill="white"/>
<circle cx="126.115" cy="41.5308" r="3.27218" transform="rotate(-1.18086 126.115 41.5308)" stroke="black" stroke-opacity="0.25" stroke-width="1.56748"/>
<path d="M116.898 49.1802C116.898 49.1802 118.273 48.3762 119.337 48.3969C120.341 48.4164 121.601 49.1802 121.601 49.1802" stroke="#86513A" stroke-width="2.35122" stroke-linecap="round"/>
<path d="M217.292 33.6675C201.826 37.3705 193.767 48.0439 203.133 53.0539C209.232 56.3212 222.737 58.2817 228.619 56.7569C233.629 55.4499 234.064 54.5786 232.757 46.0835C231.233 37.1527 228.401 31.2714 225.569 31.7071C224.916 31.9249 220.995 32.5784 217.292 33.6675Z" fill="#EFC0A4"/>
<path d="M217.513 34.4194L217.494 34.425L217.474 34.4297C209.847 36.256 204.16 39.7789 201.531 43.3364C200.22 45.1095 199.722 46.8128 199.99 48.292C200.255 49.7525 201.304 51.1865 203.503 52.3628L203.503 52.363C206.436 53.9339 211.233 55.2242 216.07 55.9268C220.919 56.6311 225.637 56.72 228.421 55.9984C230.989 55.3286 231.923 54.8508 232.328 53.8271C232.552 53.2626 232.647 52.4512 232.584 51.1903C232.521 49.9393 232.31 48.3296 231.984 46.2089C231.228 41.7857 230.156 38.1671 228.951 35.7303C228.346 34.5078 227.731 33.6297 227.143 33.0917C226.585 32.5804 226.121 32.4334 225.738 32.4752C225.506 32.5433 225.123 32.6263 224.682 32.719C224.5 32.7574 224.302 32.7986 224.089 32.8428C223.689 32.9261 223.236 33.0203 222.738 33.1269C221.22 33.4522 219.336 33.8831 217.513 34.4194Z" stroke="black" stroke-opacity="0.25" stroke-width="1.56748"/>
<circle cx="211.919" cy="42.155" r="2.48844" transform="rotate(-1.18086 211.919 42.155)" fill="white"/>
<circle cx="211.919" cy="42.155" r="3.27218" transform="rotate(-1.18086 211.919 42.155)" stroke="black" stroke-opacity="0.25" stroke-width="1.56748"/>
<circle cx="225.65" cy="41.7959" r="2.48844" transform="rotate(-1.18086 225.65 41.7959)" fill="white"/>
<circle cx="225.65" cy="41.7959" r="3.27218" transform="rotate(-1.18086 225.65 41.7959)" stroke="black" stroke-opacity="0.25" stroke-width="1.56748"/>
<path d="M216.434 49.4453C216.434 49.4453 217.808 48.6413 218.872 48.662C219.876 48.6815 221.136 49.4453 221.136 49.4453" stroke="#86513A" stroke-width="2.35122" stroke-linecap="round"/>
<path d="M282.342 60.8919C266.877 64.5949 258.817 75.2683 268.184 80.2783C274.283 83.5456 287.788 85.506 293.669 83.9813C298.679 82.6743 299.115 81.803 297.808 73.3079C296.283 64.3771 293.451 58.4958 290.62 58.9315C289.966 59.1493 286.045 59.8028 282.342 60.8919Z" fill="#EFC0A4"/>
<path d="M282.563 61.6438L282.544 61.6494L282.525 61.6541C274.897 63.4804 269.211 67.0033 266.581 70.5608C265.271 72.3339 264.772 74.0372 265.041 75.5164C265.306 76.9769 266.354 78.4108 268.553 79.5872L268.554 79.5874C271.486 81.1583 276.283 82.4486 281.121 83.1512C285.969 83.8555 290.688 83.9444 293.472 83.2228C296.039 82.553 296.973 82.0752 297.379 81.0515C297.602 80.487 297.697 79.6756 297.634 78.4147C297.572 77.1637 297.36 75.554 297.034 73.4333C296.279 69.0101 295.207 65.3915 294.001 62.9547C293.397 61.7322 292.781 60.8541 292.194 60.3161C291.635 59.8048 291.172 59.6578 290.789 59.6995C290.557 59.7676 290.173 59.8507 289.733 59.9434C289.551 59.9818 289.353 60.023 289.14 60.0672C288.739 60.1505 288.286 60.2447 287.789 60.3513C286.271 60.6766 284.387 61.1075 282.563 61.6438Z" stroke="black" stroke-opacity="0.25" stroke-width="1.56748"/>
<circle cx="276.969" cy="69.3793" r="2.48844" transform="rotate(-1.18086 276.969 69.3793)" fill="white"/>
<circle cx="276.969" cy="69.3793" r="3.27218" transform="rotate(-1.18086 276.969 69.3793)" stroke="black" stroke-opacity="0.25" stroke-width="1.56748"/>
<circle cx="290.701" cy="69.0203" r="2.48844" transform="rotate(-1.18086 290.701 69.0203)" fill="white"/>
<circle cx="290.701" cy="69.0203" r="3.27218" transform="rotate(-1.18086 290.701 69.0203)" stroke="black" stroke-opacity="0.25" stroke-width="1.56748"/>
<path d="M281.484 76.6697C281.484 76.6697 282.858 75.8657 283.922 75.8864C284.926 75.9059 286.186 76.6697 286.186 76.6697" stroke="#86513A" stroke-width="2.35122" stroke-linecap="round"/>
<path d="M59.5989 38.8641C73.9266 45.7643 79.5379 57.9047 69.3217 60.8132C62.6682 62.7121 49.0546 61.7623 43.6308 59.0244C39.0122 56.6842 38.7714 55.7403 41.8511 47.7159C45.2361 39.312 49.2512 34.1654 51.926 35.192C52.5184 35.5435 56.2113 37.0141 59.5989 38.8641Z" fill="#EFC0A4"/>
<path d="M59.2233 39.5519L59.2408 39.5615L59.2589 39.5702C66.3251 42.9733 71.1348 47.6226 72.9495 51.6571C73.854 53.6678 73.9796 55.4381 73.4034 56.8266C72.8345 58.1977 71.5058 59.3765 69.1071 60.0594L69.1066 60.0596C65.9077 60.9725 60.9461 61.2155 56.0696 60.8758C51.1821 60.5352 46.5523 59.621 43.9846 58.325C41.6176 57.1257 40.8066 56.4606 40.6274 55.3742C40.5286 54.7751 40.6081 53.9621 40.9371 52.7433C41.2635 51.534 41.8118 50.0058 42.5805 48.0026C44.2575 43.8405 46.0728 40.5317 47.7677 38.4061C48.618 37.3398 49.4058 36.6122 50.094 36.2111C50.748 35.83 51.2322 35.7846 51.598 35.9068C51.8101 36.0225 52.1671 36.185 52.5779 36.3691C52.7478 36.4452 52.9327 36.5275 53.1314 36.616C53.5051 36.7823 53.9277 36.9705 54.3912 37.1802C55.8058 37.8202 57.5551 38.6409 59.2233 39.5519Z" stroke="black" stroke-opacity="0.25" stroke-width="1.56748"/>
<circle cx="2.48844" cy="2.48844" r="2.48844" transform="matrix(-0.97265 -0.232275 -0.232275 0.97265 66.0469 46.4559)" fill="white"/>
<circle cx="2.48844" cy="2.48844" r="3.27218" transform="matrix(-0.97265 -0.232275 -0.232275 0.97265 66.0469 46.4559)" stroke="black" stroke-opacity="0.25" stroke-width="1.56748"/>
<circle cx="2.48844" cy="2.48844" r="2.48844" transform="matrix(-0.97265 -0.232275 -0.232275 0.97265 52.7043 43.1915)" fill="white"/>
<circle cx="2.48844" cy="2.48844" r="3.27218" transform="matrix(-0.97265 -0.232275 -0.232275 0.97265 52.7043 43.1915)" stroke="black" stroke-opacity="0.25" stroke-width="1.56748"/>
<path d="M57.0898 54.4648C57.0898 54.4648 55.9175 53.3875 54.8732 53.1819C53.8882 52.9881 52.4944 53.467 52.4944 53.467" stroke="#86513A" stroke-width="2.35122" stroke-linecap="round"/>
<path d="M145.188 63.9683C129.722 67.6713 121.663 78.3447 131.029 83.3546C137.128 86.622 150.633 88.5824 156.515 87.0577C161.525 85.7507 161.96 84.8794 160.653 76.3843C159.129 67.4535 156.297 61.5722 153.465 62.0078C152.812 62.2257 148.891 62.8791 145.188 63.9683Z" fill="#EFC0A4"/>
<path d="M145.409 64.7202L145.39 64.7258L145.37 64.7305C137.743 66.5567 132.056 70.0797 129.427 73.6372C128.116 75.4103 127.618 77.1135 127.886 78.5927C128.151 80.0533 129.2 81.4872 131.399 82.6636L131.399 82.6638C134.332 84.2347 139.129 85.5249 143.966 86.2276C148.815 86.9319 153.533 87.0208 156.317 86.2992C158.885 85.6293 159.819 85.1515 160.224 84.1278C160.448 83.5634 160.543 82.7519 160.48 81.4911C160.417 80.2401 160.206 78.6304 159.88 76.5097C159.124 72.0865 158.052 68.4679 156.847 66.0311C156.242 64.8086 155.627 63.9305 155.039 63.3924C154.481 62.8812 154.017 62.7342 153.634 62.7759C153.402 62.844 153.019 62.9271 152.578 63.0198C152.396 63.0582 152.198 63.0994 151.985 63.1436C151.585 63.2269 151.132 63.3211 150.634 63.4277C149.116 63.753 147.232 64.1838 145.409 64.7202Z" stroke="black" stroke-opacity="0.25" stroke-width="1.56748"/>
<circle cx="139.815" cy="72.4557" r="2.48844" transform="rotate(-1.18086 139.815 72.4557)" fill="white"/>
<circle cx="139.815" cy="72.4557" r="3.27218" transform="rotate(-1.18086 139.815 72.4557)" stroke="black" stroke-opacity="0.25" stroke-width="1.56748"/>
<circle cx="153.546" cy="72.0966" r="2.48844" transform="rotate(-1.18086 153.546 72.0966)" fill="white"/>
<circle cx="153.546" cy="72.0966" r="3.27218" transform="rotate(-1.18086 153.546 72.0966)" stroke="black" stroke-opacity="0.25" stroke-width="1.56748"/>
<path d="M144.329 79.7461C144.329 79.7461 145.704 78.942 146.768 78.9627C147.771 78.9823 149.032 79.7461 149.032 79.7461" stroke="#86513A" stroke-width="2.35122" stroke-linecap="round"/>
<path d="M94.1387 70.4098C86.9505 78.2515 90.4357 88.2714 100.456 89.7962C115.703 92.1923 116.792 91.9744 119.624 83.4793C122.892 74.3306 122.238 72.8059 113.743 69.1029C105.248 65.3998 98.2774 65.8355 94.1387 70.4098Z" fill="#512411"/>
<path d="M94.7199 70.9356L94.7164 70.9394C91.2809 74.6873 90.4672 78.8626 91.5876 82.224C92.7071 85.5824 95.8125 88.2969 100.574 89.0214L100.577 89.0219C104.395 89.6219 107.292 90.0524 109.548 90.2334C111.814 90.4153 113.341 90.3355 114.455 89.976C115.52 89.6326 116.259 89.0169 116.915 87.9707C117.596 86.8838 118.17 85.364 118.881 83.2314L118.883 83.2235L118.886 83.2157C119.702 80.9311 120.254 79.1739 120.507 77.7564C120.759 76.3449 120.699 75.3488 120.37 74.5469C120.042 73.7493 119.402 73.0343 118.269 72.2761C117.128 71.512 115.551 70.746 113.43 69.8213C105.053 66.17 98.5194 66.7361 94.7199 70.9356L94.7199 70.9356Z" stroke="black" stroke-opacity="0.25" stroke-width="1.56748"/>
<circle cx="103.776" cy="73.4349" r="2.48844" transform="rotate(-1.18086 103.776 73.4349)" fill="white"/>
<circle cx="103.776" cy="73.4349" r="3.27218" transform="rotate(-1.18086 103.776 73.4349)" stroke="black" stroke-opacity="0.25" stroke-width="1.56748"/>
<circle cx="112.021" cy="73.0758" r="2.48844" transform="rotate(-1.18086 112.021 73.0758)" fill="white"/>
<circle cx="112.021" cy="73.0758" r="3.27218" transform="rotate(-1.18086 112.021 73.0758)" stroke="black" stroke-opacity="0.25" stroke-width="1.56748"/>
<path d="M106.723 83.0765C106.723 83.0765 108.097 82.2724 109.161 82.2931C110.165 82.3127 111.425 83.0765 111.425 83.0765" stroke="#86513A" stroke-width="2.35122" stroke-linecap="round"/>
<path d="M39.209 61.0746C32.0208 68.9163 35.506 78.9362 45.5259 80.461C60.7736 82.857 61.8628 82.6392 64.6945 74.1441C67.9618 64.9954 67.3084 63.4707 58.8132 59.7677C50.3181 56.0646 43.3477 56.5003 39.209 61.0746Z" fill="#512411"/>
<path d="M39.7902 61.6004L39.7868 61.6042C36.3512 65.3521 35.5375 69.5274 36.6579 72.8888C37.7774 76.2472 40.8828 78.9617 45.6438 79.6862L45.6476 79.6867C49.4653 80.2867 52.3624 80.7172 54.6181 80.8982C56.8844 81.08 58.4113 81.0003 59.5256 80.6408C60.5902 80.2974 61.3289 79.6817 61.985 78.6355C62.6667 77.5486 63.2401 76.0288 63.951 73.8962L63.9536 73.8883L63.9564 73.8805C64.7723 71.5959 65.324 69.8387 65.577 68.4212C65.829 67.0097 65.7694 66.0135 65.4399 65.2117C65.1121 64.4141 64.472 63.6991 63.3395 62.9409C62.1982 62.1768 60.6215 61.4108 58.5 60.4861C50.1234 56.8348 43.5897 57.4009 39.7902 61.6004L39.7902 61.6004Z" stroke="black" stroke-opacity="0.25" stroke-width="1.56748"/>
<circle cx="48.8461" cy="64.0997" r="2.48844" transform="rotate(-1.18086 48.8461 64.0997)" fill="white"/>
<circle cx="48.8461" cy="64.0997" r="3.27218" transform="rotate(-1.18086 48.8461 64.0997)" stroke="black" stroke-opacity="0.25" stroke-width="1.56748"/>
<circle cx="57.0912" cy="63.7406" r="2.48844" transform="rotate(-1.18086 57.0912 63.7406)" fill="white"/>
<circle cx="57.0912" cy="63.7406" r="3.27218" transform="rotate(-1.18086 57.0912 63.7406)" stroke="black" stroke-opacity="0.25" stroke-width="1.56748"/>
<path d="M51.793 73.7413C51.793 73.7413 53.1671 72.9372 54.2313 72.9579C55.235 72.9775 56.4954 73.7413 56.4954 73.7413" stroke="#86513A" stroke-width="2.35122" stroke-linecap="round"/>
<path d="M184.201 72.0469C177.013 79.8886 180.498 89.9086 190.518 91.4333C205.766 93.8294 206.855 93.6116 209.686 85.1164C212.954 75.9678 212.3 74.443 203.805 70.74C195.31 67.037 188.34 67.4726 184.201 72.0469Z" fill="#512411"/>
<path d="M184.782 72.5728L184.779 72.5765C181.343 76.3244 180.529 80.4997 181.65 83.8611C182.769 87.2196 185.875 89.934 190.636 90.6585L190.64 90.6591C194.457 91.259 197.354 91.6896 199.61 91.8706C201.876 92.0524 203.403 91.9726 204.518 91.6132C205.582 91.2698 206.321 90.6541 206.977 89.6079C207.659 88.521 208.232 87.0012 208.943 84.8686L208.946 84.8607L208.948 84.8528C209.764 82.5683 210.316 80.811 210.569 79.3935C210.821 77.9821 210.761 76.9859 210.432 76.184C210.104 75.3865 209.464 74.6715 208.331 73.9133C207.19 73.1492 205.613 72.3832 203.492 71.4585C195.115 67.8071 188.582 68.3733 184.782 72.5728L184.782 72.5728Z" stroke="black" stroke-opacity="0.25" stroke-width="1.56748"/>
<circle cx="193.838" cy="75.072" r="2.48844" transform="rotate(-1.18086 193.838 75.072)" fill="white"/>
<circle cx="193.838" cy="75.072" r="3.27218" transform="rotate(-1.18086 193.838 75.072)" stroke="black" stroke-opacity="0.25" stroke-width="1.56748"/>
<circle cx="202.083" cy="74.713" r="2.48844" transform="rotate(-1.18086 202.083 74.713)" fill="white"/>
<circle cx="202.083" cy="74.713" r="3.27218" transform="rotate(-1.18086 202.083 74.713)" stroke="black" stroke-opacity="0.25" stroke-width="1.56748"/>
<path d="M196.785 84.7136C196.785 84.7136 198.159 83.9095 199.223 83.9303C200.227 83.9498 201.487 84.7136 201.487 84.7136" stroke="#86513A" stroke-width="2.35122" stroke-linecap="round"/>
<path d="M228.874 76.519C221.686 84.3606 225.171 94.3806 235.191 95.9053C250.439 98.3014 251.528 98.0836 254.36 89.5884C257.627 80.4398 256.973 78.915 248.478 75.212C239.983 71.509 233.013 71.9447 228.874 76.519Z" fill="#512411"/>
<path d="M229.455 77.0448L229.452 77.0486C226.016 80.7965 225.203 84.9717 226.323 88.3332C227.442 91.6916 230.548 94.406 235.309 95.1305L235.313 95.1311C239.13 95.731 242.027 96.1616 244.283 96.3426C246.549 96.5244 248.076 96.4446 249.191 96.0852C250.255 95.7418 250.994 95.1261 251.65 94.0799C252.332 92.993 252.905 91.4732 253.616 89.3406L253.619 89.3327L253.621 89.3248C254.437 87.0403 254.989 85.2831 255.242 83.8656C255.494 82.4541 255.434 81.4579 255.105 80.656C254.777 79.8585 254.137 79.1435 253.005 78.3853C251.863 77.6212 250.287 76.8552 248.165 75.9305C239.788 72.2791 233.255 72.8453 229.455 77.0448L229.455 77.0448Z" stroke="black" stroke-opacity="0.25" stroke-width="1.56748"/>
<circle cx="238.511" cy="79.5441" r="2.48844" transform="rotate(-1.18086 238.511 79.5441)" fill="white"/>
<circle cx="238.511" cy="79.5441" r="3.27218" transform="rotate(-1.18086 238.511 79.5441)" stroke="black" stroke-opacity="0.25" stroke-width="1.56748"/>
<circle cx="246.756" cy="79.185" r="2.48844" transform="rotate(-1.18086 246.756 79.185)" fill="white"/>
<circle cx="246.756" cy="79.185" r="3.27218" transform="rotate(-1.18086 246.756 79.185)" stroke="black" stroke-opacity="0.25" stroke-width="1.56748"/>
<path d="M241.458 89.1857C241.458 89.1857 242.832 88.3816 243.896 88.4023C244.9 88.4219 246.16 89.1857 246.16 89.1857" stroke="#86513A" stroke-width="2.35122" stroke-linecap="round"/>
<path d="M50.056 9.49967C55.4167 18.688 49.8848 27.7403 39.7695 27.1043C24.3606 26.2105 23.3425 25.7666 22.3778 16.864C21.1259 7.23043 22.0881 5.87903 31.1755 4.06284C40.2629 2.24665 46.9822 4.15137 50.056 9.49967Z" fill="#512411"/>
<path d="M49.3765 9.89022L49.3791 9.89462C51.9412 14.2861 51.8505 18.539 50.0423 21.5862C48.2357 24.6306 44.6251 26.6243 39.8187 26.3221L39.8149 26.3219C35.9568 26.0981 33.0343 25.9041 30.7916 25.6024C28.5383 25.2992 27.0631 24.8973 26.0505 24.3096C25.0829 23.7481 24.4917 22.9897 24.0725 21.8281C23.637 20.6213 23.3991 19.0145 23.1569 16.7796L23.156 16.7713L23.155 16.763C22.8424 14.3574 22.6761 12.5231 22.7296 11.0842C22.7829 9.65141 23.0524 8.69055 23.5446 7.97685C24.0341 7.267 24.8113 6.7041 26.079 6.20345C27.3564 5.69892 29.0598 5.28493 31.3291 4.83138C40.2898 3.04054 46.5545 4.98012 49.3765 9.89021L49.3765 9.89022Z" stroke="black" stroke-opacity="0.25" stroke-width="1.56748"/>
<circle cx="2.48844" cy="2.48844" r="2.48844" transform="matrix(-0.97265 -0.232275 -0.232275 0.97265 42.9951 8.56871)" fill="white"/>
<circle cx="2.48844" cy="2.48844" r="3.27218" transform="matrix(-0.97265 -0.232275 -0.232275 0.97265 42.9951 8.56871)" stroke="black" stroke-opacity="0.25" stroke-width="1.56748"/>
<circle cx="2.48844" cy="2.48844" r="2.48844" transform="matrix(-0.97265 -0.232275 -0.232275 0.97265 35.0137 6.46835)" fill="white"/>
<circle cx="2.48844" cy="2.48844" r="3.27218" transform="matrix(-0.97265 -0.232275 -0.232275 0.97265 35.0137 6.46835)" stroke="black" stroke-opacity="0.25" stroke-width="1.56748"/>
<path d="M35.071 19.2079C35.071 19.2079 33.8987 18.1305 32.8544 17.925C31.8694 17.7311 30.4756 18.2101 30.4756 18.2101" stroke="#86513A" stroke-width="2.35122" stroke-linecap="round"/>
<path d="M174.012 15.6177C166.824 23.4593 170.309 33.4793 180.329 35.004C195.577 37.4001 196.666 37.1823 199.498 28.6871C202.765 19.5385 202.112 18.0137 193.616 14.3107C185.121 10.6077 178.151 11.0433 174.012 15.6177Z" fill="#512411"/>
<path d="M174.593 16.1435L174.59 16.1473C171.154 19.8952 170.341 24.0704 171.461 27.4319C172.581 30.7903 175.686 33.5047 180.447 34.2292L180.451 34.2298C184.269 34.8297 187.166 35.2603 189.421 35.4413C191.688 35.6231 193.215 35.5433 194.329 35.1839C195.393 34.8405 196.132 34.2248 196.788 33.1786C197.47 32.0917 198.043 30.5719 198.754 28.4393L198.757 28.4314L198.76 28.4235C199.576 26.139 200.127 24.3818 200.38 22.9643C200.632 21.5528 200.573 20.5566 200.243 19.7547C199.915 18.9572 199.275 18.2422 198.143 17.484C197.001 16.7199 195.425 15.9539 193.303 15.0292C184.927 11.3778 178.393 11.944 174.593 16.1435L174.593 16.1435Z" stroke="black" stroke-opacity="0.25" stroke-width="1.56748"/>
<circle cx="183.649" cy="18.6427" r="2.48844" transform="rotate(-1.18086 183.649 18.6427)" fill="white"/>
<circle cx="183.649" cy="18.6427" r="3.27218" transform="rotate(-1.18086 183.649 18.6427)" stroke="black" stroke-opacity="0.25" stroke-width="1.56748"/>
<circle cx="191.894" cy="18.2837" r="2.48844" transform="rotate(-1.18086 191.894 18.2837)" fill="white"/>
<circle cx="191.894" cy="18.2837" r="3.27218" transform="rotate(-1.18086 191.894 18.2837)" stroke="black" stroke-opacity="0.25" stroke-width="1.56748"/>
<path d="M186.596 28.2844C186.596 28.2844 187.97 27.4803 189.034 27.501C190.038 27.5205 191.299 28.2844 191.299 28.2844" stroke="#86513A" stroke-width="2.35122" stroke-linecap="round"/>
</svg>
