<svg width="213" height="145" viewBox="0 0 213 145" fill="none" xmlns="http://www.w3.org/2000/svg">
<path d="M155.143 98.9126L161.151 143.112H153.426" stroke="#B29785" stroke-width="3.43297" stroke-linecap="round"/>
<path d="M124.298 58.1459L111.133 94.9473L116.468 106.176" stroke="#B29785" stroke-width="3.43297" stroke-linecap="round"/>
<path d="M139.694 98.4835L142.269 143.112H134.545" stroke="#B29785" stroke-width="3.43297" stroke-linecap="round"/>
<circle cx="3.21841" cy="3.21841" r="3.21841" transform="matrix(-1 0 0 1 162.1 38.4064)" fill="white"/>
<circle cx="3.21841" cy="3.21841" r="4.36785" transform="matrix(-1 0 0 1 162.1 38.4064)" stroke="black" stroke-opacity="0.25" stroke-width="2.29887"/>
<circle cx="3.21841" cy="3.21841" r="3.21841" transform="matrix(-1 0 0 1 147.848 38.4064)" fill="white"/>
<circle cx="3.21841" cy="3.21841" r="4.36785" transform="matrix(-1 0 0 1 147.848 38.4064)" stroke="black" stroke-opacity="0.25" stroke-width="2.29887"/>
<path d="M182.194 93.9376C183.283 91.5795 185.51 84.6037 187.282 78.2126C190.191 67.2037 190.63 55.2057 188.24 47.8341C186.692 42.7641 182.488 36.1936 179.209 33.5548C175.008 30.222 168.256 29.045 165.866 31.2233C164.479 32.4882 163.188 32.4714 161.343 31.0832C155.485 26.8736 141.286 29.9271 127.19 38.1742C112.554 46.9133 106.884 57.5402 107.838 74.7487C108.365 86.7184 111.083 92.5977 118.172 97.2203C123.51 100.71 131.724 102.09 136.883 100.456C140.45 99.2503 140.775 99.2952 144.547 103.702C149.42 109.151 154.18 110.78 161.945 109.67C168.907 108.609 179.301 100.498 182.194 93.9376Z" fill="#E8B89F"/>
<path d="M180.618 93.2488L180.624 93.235L180.631 93.2214C181.652 91.011 183.843 84.1753 185.621 77.7666C188.484 66.9239 188.852 55.2951 186.603 48.3594L186.598 48.3454L186.594 48.3313C185.877 45.9834 184.518 43.2144 182.92 40.697C181.312 38.1647 179.562 36.0415 178.133 34.8901C176.283 33.4239 173.821 32.4036 171.562 32.0091C170.437 31.8127 169.423 31.7825 168.607 31.896C167.773 32.012 167.28 32.2576 167.029 32.4864C166.136 33.3003 165.053 33.8957 163.73 33.86C162.485 33.8264 161.356 33.2364 160.323 32.4616C158.014 30.8134 153.647 30.3877 147.711 31.6331C141.888 32.8549 134.991 35.5979 128.069 39.6468C120.934 43.908 116.127 48.5429 113.19 54.0851C110.25 59.6303 109.09 66.2552 109.556 74.655L109.557 74.6647L109.557 74.6744C109.816 80.5674 110.611 84.7749 112.108 88.0268C113.581 91.2269 115.79 93.6203 119.114 95.7879L119.116 95.7891C121.552 97.3819 124.708 98.5272 127.886 99.072C131.072 99.6181 134.112 99.5324 136.345 98.8293C136.393 98.813 136.441 98.7967 136.489 98.7804C138.05 98.2514 139.643 97.7114 141.296 98.392C142.1 98.7233 142.794 99.286 143.467 99.9467C144.142 100.609 144.913 101.489 145.844 102.577C148.145 105.147 150.315 106.701 152.721 107.527C155.142 108.357 157.973 108.507 161.692 107.976C164.751 107.507 168.809 105.416 172.535 102.517C176.26 99.6186 179.334 96.1606 180.618 93.2488Z" stroke="black" stroke-opacity="0.25" stroke-width="3.43297"/>
<circle cx="2.14561" cy="2.14561" r="2.14561" transform="matrix(-1 0 0 1 160.721 56.0004)" fill="white"/>
<circle cx="2.14561" cy="2.14561" r="3.29504" transform="matrix(-1 0 0 1 160.721 56.0004)" stroke="black" stroke-opacity="0.25" stroke-width="2.29887"/>
<circle cx="2.14561" cy="2.14561" r="2.14561" transform="matrix(-1 0 0 1 144.844 56.0004)" fill="white"/>
<circle cx="2.14561" cy="2.14561" r="3.29504" transform="matrix(-1 0 0 1 144.844 56.0004)" stroke="black" stroke-opacity="0.25" stroke-width="2.29887"/>
<path d="M184.294 55.8661C183.217 50.5375 181.265 47.0302 178.514 45.2739C174.765 42.8938 174.71 44.9904 178.295 48.8854C180.599 51.3893 181.766 53.736 181.882 56.0181C181.998 58.3002 182.543 59.5086 183.68 59.6659C184.655 59.8007 184.913 58.5416 184.294 55.8661Z" fill="black" fill-opacity="0.25"/>
<path d="M121.594 72.2916C121.604 66.1423 122.405 62.8539 125.578 57.0613C127.723 53.2304 127.651 50.226 125.416 52.2638C124.26 53.3178 120.629 61.2324 119.674 64.6613C118.78 67.6939 118.935 77.1033 119.874 78.1235C121.154 79.5145 121.713 77.8113 121.594 72.2916Z" fill="black" fill-opacity="0.25"/>
<path d="M173.893 78.7443C170.854 84.0899 168.536 86.5566 162.92 90.0332C159.167 92.3099 157.749 94.9596 160.698 94.2879C162.223 93.9405 169.282 88.8426 171.803 86.3296C174.076 84.1316 178.578 75.8677 178.264 74.5174C177.835 72.6761 176.51 73.8828 173.893 78.7443Z" fill="black" fill-opacity="0.25"/>
<path d="M165.382 97.9248C161.842 99.719 159.828 100.19 156.011 99.9367C153.479 99.7413 151.761 100.665 153.275 101.441C154.057 101.843 159.165 101.756 161.284 101.338C163.165 101 168.556 98.1491 169 97.2737C169.606 96.0799 168.54 96.2355 165.382 97.9248Z" fill="black" fill-opacity="0.25"/>
<path d="M121.154 88.3791C118.599 85.3423 117.68 83.4889 117.055 79.7149C116.667 77.2059 115.375 75.7445 114.965 77.3951C114.753 78.2489 116.004 83.2016 116.895 85.1689C117.654 86.9232 121.661 91.5206 122.614 91.7528C123.915 92.0694 123.52 91.0679 121.154 88.3791Z" fill="black" fill-opacity="0.25"/>
<path d="M181.319 69.7323L191.847 94.4188L187.663 104.153" stroke="#B29785" stroke-width="3.43297" stroke-linecap="round"/>
<path d="M183.542 37.4737C185.532 32.0276 183.886 24.1395 176.66 18.8488C175.155 17.7305 173.821 16.8702 173.692 16.9562C173.606 17.0422 174.122 17.8165 174.854 18.6337C176.574 20.6124 177.262 22.8061 176.961 25.6019C176.703 28.1827 175.004 30.8926 174.294 31.7899C173.585 32.6873 172.359 34.2477 172.359 34.2477C172.359 34.4197 171.843 35.0649 171.24 35.7101C170.165 36.8285 170.165 37.0005 170.638 38.549C170.939 39.4523 171.542 40.9148 171.972 41.775C172.875 43.5386 177.348 48.141 178.209 48.141C178.51 48.141 179.101 47.5974 179.843 46.307C180.585 45.0166 181.553 42.9197 183.542 37.4737Z" fill="#AE8A77"/>
<path d="M117.048 37.4737C115.058 32.0276 116.704 24.1395 123.93 18.8488C125.435 17.7304 126.769 16.8702 126.898 16.9562C126.984 17.0422 126.468 17.8165 125.736 18.6337C124.016 20.6124 123.328 22.806 123.629 25.6019C123.887 28.1827 125.586 30.8926 126.296 31.7899C127.005 32.6873 128.231 34.2476 128.231 34.2476C128.231 34.4197 128.747 35.0649 129.35 35.7101C130.425 36.8285 130.425 37.0005 129.952 38.549C129.651 39.4523 129.049 40.9148 128.618 41.775C127.715 43.5386 123.242 48.141 122.381 48.141C122.08 48.141 121.489 47.5974 120.747 46.307C120.005 45.0166 119.037 42.9197 117.048 37.4737Z" fill="#AE8A77"/>
<path d="M148.335 29.1529C159.005 28.9599 161.365 30.4676 167.213 24.9287C169.421 23.8489 172.142 22.7003 173.197 22.4379C174.849 21.968 175.168 22.0656 175.638 23.2457C176.316 25.0227 174.437 30.266 172.158 32.9554C171.213 34.1339 169.24 35.6858 167.713 36.4195C165.012 37.7168 160.285 46.6862 146.989 42.0539C143.02 41.9799 139.593 40.4662 136.429 41.2534C131.265 42.5379 130.377 42.2871 129.714 39.6219C129.023 36.8457 129.344 35.9996 132.011 33.6853C135.553 30.6226 140.411 29.2962 148.335 29.1529Z" fill="#E8D593"/>
<path d="M145.407 55.1787C144.842 54.5131 143.102 53.8389 141.442 53.4035C139.781 52.9681 138.063 52.7352 137.313 53.0562" stroke="#B29785" stroke-width="3.43297" stroke-linecap="round"/>
<path d="M155.91 54.8422C156.529 54.2262 158.172 53.1424 159.863 52.8477C161.554 52.553 163.434 53.0228 164.154 53.4055" stroke="#B29785" stroke-width="3.43297" stroke-linecap="round"/>
<path d="M145.406 68.5964C146.549 67.9571 147.977 67.626 149.2 67.7402C150.453 67.857 151.883 68.4959 152.965 69.3953C154.08 70.3223 154.6 71.3235 154.517 72.096L145.406 68.5964ZM145.406 68.5964C144.238 69.2492 143.566 70.1008 143.479 70.9069M145.406 68.5964L143.479 70.9069M143.479 70.9069C143.366 71.96 143.64 72.1209 143.663 72.1349M143.479 70.9069L143.663 72.1349M143.663 72.1349L143.664 72.1353M143.663 72.1349L143.664 72.1353M143.664 72.1353C143.799 72.2154 144.164 72.2623 144.889 72.0602M143.664 72.1353L144.889 72.0602M144.889 72.0602C145.555 71.8745 146.284 71.5505 146.96 71.2443M144.889 72.0602L146.96 71.2443M146.96 71.2443C146.984 71.2335 147.008 71.2226 147.032 71.2118M146.96 71.2443L147.032 71.2118M147.032 71.2118C147.332 71.0757 147.629 70.9412 147.882 70.8399M147.032 71.2118L147.882 70.8399M147.882 70.8399C148.02 70.7847 148.161 70.7324 148.297 70.6929M147.882 70.8399L148.297 70.6929M148.297 70.6929C148.42 70.657 148.596 70.6137 148.785 70.6137M148.297 70.6929L148.785 70.6137M148.785 70.6137C149.025 70.6136 149.234 70.6896 149.364 70.7444M148.785 70.6137L149.364 70.7444M149.364 70.7444C149.509 70.8059 149.655 70.8854 149.789 70.966M149.364 70.7444L149.789 70.966M149.789 70.966C150.058 71.1267 150.368 71.3419 150.677 71.5592M149.789 70.966L150.677 71.5592M150.677 71.5592C150.724 71.5922 150.771 71.6255 150.819 71.6589M150.677 71.5592L150.819 71.6589M150.819 71.6589C151.423 72.0842 152.065 72.5365 152.686 72.8653M150.819 71.6589L152.686 72.8653M152.686 72.8653C153.018 73.0409 153.312 73.1633 153.561 73.227M152.686 72.8653L153.561 73.227M153.561 73.227C153.814 73.2917 153.964 73.2819 154.045 73.2591M153.561 73.227L154.045 73.2591M154.045 73.2591C154.045 73.259 154.046 73.2588 154.046 73.2587M154.045 73.2591L154.046 73.2587M154.046 73.2587C154.09 73.2464 154.402 73.1592 154.517 72.096L154.046 73.2587Z" fill="#747070" stroke="#B29785" stroke-width="1.77269"/>
<path d="M30.8663 104.491L24.8586 143.112H32.5828" stroke="#978E8D" stroke-width="3.43297" stroke-linecap="round"/>
<path d="M16.1604 63.9392L15.2092 103.013L6.19211 111.572" stroke="#978E8D" stroke-width="3.43297" stroke-linecap="round"/>
<path d="M46.3147 104.062L43.74 143.112H51.4642" stroke="#978E8D" stroke-width="3.43297" stroke-linecap="round"/>
<path d="M49.7919 67.2841L79.2251 41.4921L79.2251 30.8968" stroke="#978E8D" stroke-width="3.43297" stroke-linecap="round"/>
<path d="M18.9808 0.329597C11.2566 1.93165 6.3932 6.3373 3.36074 14.3476C2.38806 16.9223 1.98755 19.4398 1.8159 24.3604C1.52982 30.6542 1.58703 31.1692 3.36074 36.3758C4.39063 39.3511 5.53495 42.498 5.99268 43.3562C6.45041 44.2145 6.79371 46.3315 6.79371 48.1052C6.79371 51.0232 6.96536 51.4809 8.79628 53.1402C11.2566 55.4289 13.6597 60.8072 13.6597 64.0685C13.6597 65.785 14.0602 67.101 15.0901 68.4742C15.8339 69.5613 17.1499 71.335 17.9509 72.4221C20.5828 76.1984 22.4137 82.4349 22.471 88.271C22.5282 92.1617 22.757 93.7637 23.4436 94.5648C24.2447 95.423 24.3019 96.224 23.8442 99.7715C22.757 107.896 25.3318 116.135 30.1379 119.74C34.8297 123.287 43.0116 124.489 47.36 122.257C49.9348 120.941 53.1961 117.394 54.8554 114.247C57.3157 109.384 57.7734 106.008 58.1167 89.587C58.3456 77.9721 58.6316 73.452 59.2038 72.3076C60.2337 70.2479 60.2337 68.1881 59.0894 65.9566C57.8306 63.6108 57.6017 57.3742 58.5744 54.3417C59.5471 51.4237 58.9177 48.6201 56.8579 46.6748C55.1414 45.0155 55.0842 44.4433 56.6291 41.8114C58.0023 39.4655 57.8306 36.8908 56.0569 34.9454C55.4847 34.3161 54.6837 32.0274 54.2832 29.796C51.9946 16.6935 43.4121 5.47906 32.7127 1.47393C29.1081 0.157951 22.471 -0.414215 18.9808 0.329597Z" fill="#E7D8D8"/>
<path d="M19.2422 1.59013L19.2491 1.58871C20.8157 1.25483 23.2037 1.20216 25.6957 1.41216C28.1778 1.62132 30.6115 2.07818 32.2662 2.68141C42.4624 6.50058 50.7908 17.2835 53.015 30.0175L53.0161 30.0234C53.2281 31.2044 53.5453 32.3992 53.8891 33.3926C54.061 33.8892 54.2451 34.3515 54.4336 34.7451C54.6104 35.1143 54.8325 35.5124 55.1043 35.8114L55.1056 35.8128C56.4627 37.3012 56.6353 39.2524 55.5181 41.161C55.1274 41.8266 54.8026 42.4205 54.5812 42.9584C54.3581 43.5005 54.2031 44.0714 54.2349 44.6755C54.3006 45.9228 55.1413 46.8059 55.9632 47.6004L55.9686 47.6056L55.974 47.6107C57.6324 49.1769 58.1843 51.4412 57.3531 53.9346L57.3508 53.9416L57.3486 53.9485C56.7957 55.6721 56.6131 58.1621 56.7089 60.4603C56.8029 62.7174 57.1775 65.1072 57.9487 66.5537C58.9086 68.431 58.8903 70.0561 58.0523 71.7319C57.8088 72.219 57.6628 72.8976 57.5506 73.6726C57.4325 74.4889 57.3334 75.5637 57.2467 76.9399C57.0731 79.6951 56.944 83.7532 56.8296 89.5616M19.2422 1.59013L58.1167 89.587M19.2422 1.59013C15.5658 2.35265 12.6369 3.76582 10.2723 5.89266C7.90148 8.02505 6.02812 10.9378 4.56471 14.8034M19.2422 1.59013L4.56471 14.8034M56.8296 89.5616L58.1167 89.587M56.8296 89.5616C56.8296 89.5611 56.8296 89.5606 56.8296 89.5601L58.1167 89.587M56.8296 89.5616C56.4854 106.024 56.0133 109.103 53.7116 113.656M58.1167 89.587C57.7734 106.008 57.3157 109.384 54.8554 114.247M53.7116 113.656C53.7133 113.653 53.7149 113.65 53.7166 113.647L54.8554 114.247M53.7116 113.656C52.9441 115.109 51.7878 116.687 50.5086 118.062C49.2161 119.451 47.8751 120.548 46.7741 121.111L46.7723 121.112C44.9292 122.058 42.1007 122.337 39.0642 121.892C36.0508 121.451 33.0498 120.328 30.9144 118.713L30.9104 118.71C28.785 117.116 27.0639 114.419 26.0092 111.065C24.9587 107.724 24.6009 103.823 25.1201 99.9422L25.1209 99.9362C25.3464 98.1891 25.4686 96.9678 25.3996 96.0619C25.363 95.5814 25.2706 95.1394 25.0863 94.7218C24.9065 94.3142 24.6664 93.9921 24.4094 93.713M53.7116 113.656C53.7099 113.659 53.7083 113.663 53.7066 113.666L54.8554 114.247M54.8554 114.247L24.4094 93.713M24.4094 93.713C24.4134 93.7179 24.4173 93.7225 24.4211 93.727L23.4436 94.5648M24.4094 93.713L47.36 122.257C43.0116 124.489 34.8297 123.287 30.1379 119.74C25.3318 116.135 22.757 107.896 23.8442 99.7715C24.3019 96.224 24.2447 95.423 23.4436 94.5648M24.4094 93.713C24.2999 93.5777 24.1268 93.2557 23.994 92.3828C23.8582 91.4903 23.7868 90.1942 23.7582 88.2553C23.6984 82.2162 21.8152 75.715 19.007 71.686L18.9973 71.6721L18.9873 71.6584C18.8953 71.5336 18.7971 71.4004 18.6941 71.2608C17.8898 70.1706 16.7974 68.6897 16.1525 67.7472L16.1367 67.7241L16.12 67.7017C15.27 66.5685 14.947 65.5286 14.947 64.0685C14.947 62.1818 14.2696 59.8321 13.3265 57.7156C12.3816 55.5951 11.0794 53.5058 9.67311 52.1976L9.66698 52.1919L9.66077 52.1863C8.73536 51.3476 8.4542 50.9968 8.3054 50.6209C8.13927 50.2012 8.08108 49.6102 8.08108 48.1052C8.08108 47.1432 7.98868 46.0996 7.8347 45.1758C7.68746 44.2923 7.46122 43.3741 7.1286 42.7504C6.94845 42.4126 6.57856 41.5002 6.09751 40.2101C5.63062 38.958 5.09107 37.439 4.57821 35.9574M24.4094 93.713C24.4012 93.7041 24.393 93.6952 24.3848 93.6864L23.4436 94.5648M23.4436 94.5648C22.757 93.7637 22.5282 92.1617 22.471 88.271C22.4137 82.4349 20.5828 76.1984 17.9509 72.4221L4.57821 35.9574M3.36074 14.3476C2.38806 16.9223 1.98755 19.4398 1.8159 24.3604M3.36074 14.3476C6.3932 6.3373 11.2566 1.93165 18.9808 0.329597C22.471 -0.414215 29.1081 0.157951 32.7127 1.47393L1.8159 24.3604M3.36074 14.3476L4.56471 14.8034M3.36074 14.3476L4.56503 14.8025C4.56493 14.8028 4.56482 14.8031 4.56471 14.8034M1.8159 24.3604C1.52982 30.6542 1.58703 31.1692 3.36074 36.3758L1.8159 24.3604ZM4.56471 14.8034C3.6653 17.1845 3.27224 19.5388 3.10255 24.4053L3.10194 24.4189C2.95747 27.597 2.90958 29.1789 3.09287 30.6125C3.27389 32.0284 3.68551 33.3368 4.57821 35.9574M4.56471 14.8034L4.57821 35.9574" stroke="black" stroke-opacity="0.25" stroke-width="2.57473"/>
<path d="M14.0756 15.2881L14.0756 15.2882L14.0754 15.2883L14.0756 15.2881ZM14.0756 15.2881C14.0766 15.2869 14.0827 15.2798 14.0959 15.2679C14.1116 15.2537 14.1344 15.2353 14.1651 15.2145C14.228 15.172 14.3099 15.1288 14.4035 15.0933C14.4971 15.0577 14.587 15.0355 14.6621 15.0255C14.7336 15.016 14.7703 15.0201 14.7742 15.0206C14.7745 15.0206 14.7746 15.0206 14.7744 15.0206L14.7917 15.0237L14.809 15.0264C14.9167 15.0429 15.0387 15.1134 15.0849 15.355C15.1319 15.6002 15.0542 15.8786 14.8269 16.0695C14.8239 16.0718 14.821 16.0741 14.8181 16.0764C14.7191 15.9896 14.5928 15.8699 14.4274 15.7045C14.2619 15.539 14.1423 15.4127 14.0555 15.3138L14.0756 15.2881Z" stroke="black" stroke-opacity="0.25" stroke-width="2.57473"/>
<mask id="path-33-inside-1_116_2070" fill="white">
<path d="M23.2439 20.5627C21.9851 21.2493 21.9279 23.538 23.1295 24.7395C25.7042 27.3142 29.2516 23.8812 26.7913 21.1921C25.4753 19.8189 24.7315 19.6472 23.2439 20.5627ZM25.8758 22.5653C26.2764 23.5952 25.8758 24.5106 25.0176 24.5106C24.7315 24.5106 24.5026 23.9957 24.5026 23.4235C24.5026 22.7941 24.1594 22.1648 23.8161 22.0503C23.4155 21.8787 23.6444 21.707 24.2738 21.707C24.9604 21.6498 25.7042 22.0503 25.8758 22.5653Z"/>
</mask>
<path d="M23.2439 20.5627L24.5933 22.7555L24.5359 22.7908L24.4768 22.8231L23.2439 20.5627ZM26.7913 21.1921L28.6502 19.4106L28.6708 19.4321L28.6909 19.4541L26.7913 21.1921ZM25.8758 22.5653L23.4762 23.4985L23.4532 23.4395L23.4332 23.3795L25.8758 22.5653ZM23.8161 22.0503L23.0019 24.4929L22.9003 24.4591L22.8018 24.4169L23.8161 22.0503ZM24.2738 21.707L24.4876 24.2729L24.3809 24.2818H24.2738V21.707ZM24.4768 22.8231C24.6998 22.7014 24.8017 22.5424 24.8327 22.48C24.8592 22.4265 24.8402 22.4377 24.8379 22.5263C24.8357 22.6103 24.8506 22.7075 24.882 22.7935C24.9129 22.8781 24.9453 22.9141 24.9501 22.9189L21.3088 26.5601C20.1335 25.3847 19.653 23.7907 19.6902 22.3897C19.726 21.0415 20.2919 19.2401 22.011 18.3024L24.4768 22.8231ZM24.9501 22.9189C25.008 22.9768 25.0551 23.0141 25.0887 23.0374C25.1222 23.0606 25.1443 23.0713 25.154 23.0756C25.1636 23.0797 25.1646 23.0791 25.1576 23.0777C25.1507 23.0762 25.14 23.0748 25.1268 23.0749C25.0991 23.0749 25.0776 23.0811 25.0659 23.086C25.0561 23.0902 25.0548 23.0926 25.0575 23.09C25.0602 23.0874 25.0592 23.0871 25.0563 23.0933C25.0527 23.1012 25.0474 23.1171 25.0465 23.1384C25.0461 23.1484 25.0469 23.1559 25.0476 23.1599C25.0482 23.1639 25.0481 23.1602 25.0435 23.1481C25.0388 23.136 25.0281 23.1117 25.0056 23.0761C24.983 23.0402 24.9472 22.9908 24.8916 22.9301L28.6909 19.4541C29.7194 20.5782 30.2488 21.9446 30.1918 23.3475C30.1362 24.7134 29.5311 25.9262 28.6395 26.7895C27.7479 27.6528 26.5135 28.2206 25.1408 28.2243C23.7305 28.2282 22.3861 27.6374 21.3088 26.5601L24.9501 22.9189ZM24.9324 22.9736C24.799 22.8344 24.6896 22.728 24.5993 22.6467C24.5087 22.5651 24.448 22.5184 24.4132 22.494C24.3461 22.447 24.4217 22.5151 24.6095 22.5502C24.7007 22.5672 24.7893 22.5707 24.8666 22.5649C24.9409 22.5593 24.9849 22.5466 24.9907 22.5448C24.9943 22.5437 24.9643 22.5526 24.8939 22.5868C24.8233 22.6211 24.7253 22.6743 24.5933 22.7555L21.8945 18.3699C22.7814 17.8241 24.0443 17.2062 25.5544 17.4881C26.9556 17.7497 27.9599 18.6903 28.6502 19.4106L24.9324 22.9736ZM28.2755 21.6321C28.6593 22.619 28.7715 23.8336 28.2754 24.9611C27.7279 26.2056 26.5187 27.0854 25.0176 27.0854V21.9359C24.7592 21.9359 24.4386 22.0102 24.1361 22.2131C23.8399 22.4117 23.6586 22.6678 23.5621 22.8872C23.3806 23.2995 23.4929 23.5415 23.4762 23.4985L28.2755 21.6321ZM25.0176 27.0854C24.1226 27.0854 23.4582 26.6731 23.0655 26.3089C22.6849 25.9559 22.4551 25.5621 22.3175 25.2659C22.0405 24.6691 21.9279 24.016 21.9279 23.4235H27.0774C27.0774 23.4032 27.0793 23.2937 26.9881 23.0974C26.9436 23.0014 26.8246 22.7721 26.5674 22.5335C26.2981 22.2837 25.7695 21.9359 25.0176 21.9359V27.0854ZM21.9279 23.4235C21.9279 23.5492 21.9544 23.6358 21.9984 23.7214C22.0231 23.7695 22.0814 23.8713 22.199 23.9954C22.3023 24.1044 22.5604 24.3458 23.0019 24.4929L24.6303 19.6077C25.7577 19.9835 26.3391 20.9022 26.5778 21.3663C26.8792 21.9524 27.0774 22.6684 27.0774 23.4235H21.9279ZM22.8018 24.4169C22.64 24.3475 21.9185 24.0471 21.444 23.2845C21.1389 22.7941 20.906 22.0472 21.1311 21.2029C21.3361 20.434 21.8199 19.975 22.1139 19.7545C22.6501 19.3523 23.214 19.2406 23.4218 19.203C23.7182 19.1493 24.0113 19.1323 24.2738 19.1323V24.2818C24.2215 24.2818 24.2501 24.2862 24.3391 24.2701C24.3394 24.27 24.7531 24.2119 25.2035 23.8741C25.4546 23.6858 25.9115 23.2616 26.1067 22.5297C26.322 21.7223 26.0963 21.0142 25.8162 20.564C25.5698 20.1681 25.2778 19.9496 25.1497 19.8619C25.0013 19.7604 24.8817 19.7058 24.8303 19.6838L22.8018 24.4169ZM24.06 19.1412C24.9478 19.0672 25.7989 19.2845 26.4853 19.6528C27.1309 19.9993 27.9557 20.6628 28.3184 21.7511L23.4332 23.3795C23.5341 23.682 23.6876 23.8798 23.7914 23.988C23.8971 24.0983 23.9913 24.1585 24.0505 24.1903C24.1505 24.244 24.2864 24.2896 24.4876 24.2729L24.06 19.1412Z" fill="black" fill-opacity="0.25" mask="url(#path-33-inside-1_116_2070)"/>
<path d="M9.45502 23.824C8.19627 25.1972 8.25348 25.8266 9.62667 27.0854C10.6566 28.0008 10.9426 28.058 12.2014 27.3714C13.9179 26.456 14.0895 24.2246 12.5447 23.3663C10.9999 22.5653 10.5421 22.6225 9.45502 23.824Z" fill="black" fill-opacity="0.25"/>
<path d="M10.4097 24.6877L10.4097 24.6878L10.404 24.6939C10.1153 25.0089 9.96205 25.2182 9.88446 25.3586C9.86913 25.3863 9.85854 25.4082 9.8513 25.4246C9.86162 25.4435 9.87736 25.4696 9.90093 25.5035C9.99821 25.6436 10.1756 25.8416 10.4894 26.1298C10.7378 26.3503 10.8837 26.4661 10.9841 26.5309C10.9842 26.531 10.9844 26.5311 10.9845 26.5311C10.9857 26.5307 10.9868 26.5303 10.9881 26.5299C11.1036 26.4895 11.2811 26.407 11.5849 26.2413L11.5849 26.2412L11.5956 26.2355C12.0757 25.9795 12.2854 25.576 12.3131 25.2415C12.3391 24.9256 12.2153 24.6619 11.9326 24.4991C11.5736 24.3136 11.3388 24.2107 11.1714 24.1573C11.0893 24.131 11.0413 24.1227 11.0185 24.1202C11.0041 24.1278 10.9792 24.1426 10.9421 24.1699C10.8282 24.2537 10.6649 24.4056 10.4097 24.6877ZM9.83664 25.4647C9.83671 25.4647 9.83704 25.4635 9.83745 25.4612C9.83679 25.4636 9.83658 25.4648 9.83664 25.4647ZM9.83419 25.3889C9.83361 25.3868 9.83321 25.3857 9.83315 25.3857C9.83309 25.3857 9.83338 25.3868 9.83419 25.3889ZM11.002 24.1191C11.002 24.1192 11.003 24.1192 11.005 24.1191C11.0029 24.119 11.0019 24.1191 11.002 24.1191ZM11.0297 24.1147C11.0325 24.1138 11.034 24.1132 11.0341 24.1131C11.0341 24.1129 11.0327 24.1134 11.0297 24.1147Z" stroke="black" stroke-opacity="0.25" stroke-width="2.57473"/>
<mask id="path-37-inside-2_116_2070" fill="white">
<path d="M22.9284 59.3768C21.3263 60.9788 22.5278 63.8396 24.8165 63.8396C25.5031 63.8396 26.3041 63.5535 26.7046 63.153C27.1051 62.7525 27.3912 61.9515 27.3912 61.2649C27.3912 60.5783 27.1051 59.7773 26.7046 59.3768C26.3041 58.9762 25.5031 58.6902 24.8165 58.6902C24.1299 58.6902 23.3289 58.9762 22.9284 59.3768ZM26.018 60.4639C26.1897 60.8072 25.9036 61.4938 25.3887 62.0087C24.416 62.9242 24.416 62.9242 24.7021 62.0087C24.9309 61.3221 24.8165 61.1505 24.1871 61.3793C23.7866 61.551 23.3861 61.4365 23.3861 61.1505C23.3861 59.8345 25.2742 59.3195 26.018 60.4639Z"/>
</mask>
<path d="M26.018 60.4639L28.1768 59.0607L28.256 59.1825L28.3209 59.3124L26.018 60.4639ZM25.3887 62.0087L27.2093 63.8293L27.1817 63.8569L27.1533 63.8836L25.3887 62.0087ZM24.7021 62.0087L22.2445 61.2407L22.2518 61.2176L22.2595 61.1945L24.7021 62.0087ZM24.1871 61.3793L23.1729 59.0128L23.2393 58.9843L23.3072 58.9596L24.1871 61.3793ZM24.749 61.1974C24.7432 61.2031 24.7496 61.1979 24.7577 61.1817C24.7653 61.1665 24.7686 61.1533 24.7697 61.1463C24.7706 61.1404 24.7693 61.1437 24.7709 61.1564C24.7727 61.1695 24.777 61.1877 24.7857 61.2082C24.7943 61.2287 24.8049 61.2458 24.8147 61.2582C24.8242 61.2704 24.8304 61.2747 24.8298 61.2743C24.8284 61.2733 24.8222 61.2694 24.8129 61.2664C24.8025 61.263 24.8015 61.2649 24.8165 61.2649V66.4144C20.2926 66.4144 17.8424 60.8215 21.1077 57.5562L24.749 61.1974ZM24.8165 61.2649C24.8131 61.2649 24.8337 61.2649 24.8742 61.2573C24.9138 61.25 24.9553 61.2386 24.9921 61.2253C25.0096 61.219 25.023 61.2133 25.0318 61.2092C25.0408 61.2051 25.0424 61.2038 25.0373 61.2068C25.0324 61.2097 25.0166 61.2192 24.9924 61.2373C24.9686 61.2552 24.9305 61.286 24.884 61.3324L28.5252 64.9736C27.9736 65.5253 27.3025 65.8656 26.7436 66.0677C26.1614 66.2783 25.4932 66.4144 24.8165 66.4144V61.2649ZM24.884 61.3324C24.8376 61.3789 24.8068 61.417 24.7889 61.4408C24.7707 61.465 24.7613 61.4808 24.7584 61.4857C24.7554 61.4908 24.7567 61.4892 24.7608 61.4802C24.7649 61.4714 24.7706 61.458 24.7769 61.4405C24.7902 61.4037 24.8016 61.3622 24.8089 61.3226C24.8165 61.2821 24.8165 61.2615 24.8165 61.2649H29.966C29.966 61.9417 29.8299 62.6098 29.6193 63.192C29.4172 63.7509 29.0769 64.422 28.5252 64.9736L24.884 61.3324ZM24.8165 61.2649C24.8165 61.2683 24.8165 61.2477 24.8089 61.2072C24.8016 61.1676 24.7902 61.1261 24.7769 61.0893C24.7706 61.0718 24.7649 61.0584 24.7608 61.0496C24.7567 61.0406 24.7554 61.039 24.7584 61.0441C24.7613 61.049 24.7707 61.0648 24.7889 61.089C24.8068 61.1128 24.8376 61.1509 24.884 61.1974L28.5252 57.5562C29.0769 58.1078 29.4172 58.7789 29.6193 59.3378C29.8299 59.92 29.966 60.5881 29.966 61.2649H24.8165ZM24.884 61.1974C24.9305 61.2438 24.9686 61.2746 24.9924 61.2925C25.0166 61.3106 25.0324 61.3201 25.0373 61.323C25.0424 61.326 25.0408 61.3247 25.0318 61.3206C25.023 61.3165 25.0096 61.3108 24.9921 61.3045C24.9553 61.2912 24.9138 61.2798 24.8742 61.2725C24.8337 61.2649 24.8131 61.2649 24.8165 61.2649V56.1154C25.4932 56.1154 26.1614 56.2515 26.7436 56.4621C27.3025 56.6642 27.9736 57.0045 28.5252 57.5562L24.884 61.1974ZM24.8165 61.2649C24.8199 61.2649 24.7993 61.2649 24.7588 61.2725C24.7192 61.2798 24.6777 61.2912 24.6409 61.3045C24.6234 61.3108 24.61 61.3165 24.6012 61.3206C24.5922 61.3247 24.5906 61.326 24.5957 61.323C24.6006 61.3201 24.6164 61.3106 24.6406 61.2925C24.6644 61.2746 24.7025 61.2438 24.749 61.1974L21.1077 57.5562C21.6594 57.0045 22.3305 56.6642 22.8894 56.4621C23.4716 56.2515 24.1397 56.1154 24.8165 56.1154V61.2649ZM28.3209 59.3124C28.9215 60.5135 28.535 61.681 28.3429 62.1492C28.0869 62.7731 27.6843 63.3543 27.2093 63.8293L23.568 60.1881C23.6079 60.1482 23.6058 60.1286 23.5788 60.1947C23.5646 60.2292 23.5176 60.351 23.4999 60.5497C23.4834 60.7352 23.4798 61.1447 23.7151 61.6153L28.3209 59.3124ZM27.1533 63.8836C26.9294 64.0943 26.6987 64.3123 26.5151 64.4711C26.4272 64.5471 26.2803 64.6711 26.1071 64.7878C26.0202 64.8463 25.8698 64.942 25.6741 65.0305C25.5098 65.1048 25.1095 65.27 24.5733 65.27C23.921 65.27 23.1408 65.0153 22.5729 64.3359C22.1025 63.7732 22.0049 63.1818 21.9776 62.9323C21.9249 62.4497 22.0208 62.0459 22.0366 61.9734C22.0921 61.72 22.191 61.4122 22.2445 61.2407L27.1596 62.7767C27.0701 63.063 27.0617 63.0985 27.0671 63.0739C27.0717 63.053 27.0852 62.9893 27.0959 62.8984C27.1047 62.8228 27.1245 62.6273 27.0966 62.3725C27.0724 62.1516 26.9822 61.5816 26.5238 61.0332C25.9678 60.3682 25.2042 60.1206 24.5733 60.1206C24.0586 60.1206 23.6847 60.2786 23.552 60.3386C23.3879 60.4128 23.2745 60.4871 23.23 60.517C23.1417 60.5765 23.1021 60.6147 23.1465 60.5762C23.2275 60.5062 23.3616 60.3808 23.624 60.1338L27.1533 63.8836ZM22.2595 61.1945C22.2979 61.0792 22.2643 61.1475 22.2464 61.3157C22.2383 61.3923 22.1415 62.1774 22.7419 62.9414C23.4525 63.8459 24.4239 63.8713 24.7094 63.8553C24.9964 63.8392 25.1555 63.7669 25.067 63.799L23.3072 58.9596C23.5334 58.8774 23.9429 58.7407 24.4211 58.7139C24.898 58.6871 26.0017 58.7554 26.791 59.76C27.47 60.6242 27.3983 61.5666 27.3669 61.8613C27.3257 62.2476 27.2207 62.5949 27.1447 62.8229L22.2595 61.1945ZM25.2014 63.7459C24.5676 64.0175 23.7545 64.1481 22.9291 63.9122C22.0703 63.6669 20.8114 62.8089 20.8114 61.1505H25.9608C25.9608 60.5733 25.7417 60.0196 25.3617 59.6009C25.0117 59.2152 24.6162 59.0387 24.3437 58.9609C23.8187 58.8109 23.4061 58.9128 23.1729 59.0128L25.2014 63.7459ZM20.8114 61.1505C20.8114 59.0613 22.3458 57.7726 23.7617 57.3962C25.185 57.0179 27.084 57.3794 28.1768 59.0607L23.8593 61.8671C24.2083 62.404 24.7912 62.4509 25.0846 62.3729C25.244 62.3305 25.4474 62.2316 25.6299 62.0231C25.8324 61.7919 25.9608 61.475 25.9608 61.1505H20.8114Z" fill="black" fill-opacity="0.25" mask="url(#path-37-inside-2_116_2070)"/>
<path d="M27.1435 73.2684L27.1435 73.2684L27.1424 73.2591C27.0842 72.7646 26.8099 72.6133 26.7212 72.5911C26.7117 72.5887 26.7044 72.5875 26.6991 72.5869C26.6814 72.6068 26.6474 72.6558 26.6139 72.7595C26.5197 73.0526 26.4948 73.2411 26.4937 73.3476C26.6071 73.3848 26.8166 73.4234 27.1618 73.4234C27.1565 73.3753 27.1504 73.3237 27.1435 73.2684ZM26.6872 72.5867C26.6873 72.5868 26.6882 72.5868 26.6898 72.5864L26.6872 72.5867ZM26.7071 72.5787C26.7103 72.5767 26.7118 72.5754 26.7117 72.5752C26.7116 72.5751 26.71 72.5761 26.7071 72.5787ZM26.4219 73.3177C26.4219 73.3177 26.4224 73.3181 26.4235 73.3188C26.4225 73.318 26.4219 73.3177 26.4219 73.3177Z" stroke="black" stroke-opacity="0.25" stroke-width="2.57473"/>
<path d="M40.4033 80.3893L40.4033 80.3893L40.3959 80.3982C40.386 80.4101 40.3767 80.4214 40.3678 80.4323C40.3754 80.4417 40.3834 80.4514 40.3917 80.4614C40.6079 80.7145 40.7558 80.7894 40.817 80.8114C40.8523 80.7797 40.922 80.7028 41.0018 80.5432L41.0018 80.5432L41.0081 80.5308C41.1719 80.2119 41.152 80.038 41.1425 79.9945C41.1397 79.9816 41.1366 79.9736 41.1348 79.9696C41.1335 79.9668 41.1326 79.9652 41.1321 79.9645C41.1319 79.9643 41.1315 79.9641 41.1311 79.9639C41.1286 79.9625 41.1172 79.9565 41.0928 79.9537C41.0685 79.9509 41.027 79.9507 40.968 79.9662C40.854 79.9962 40.6441 80.0949 40.4033 80.3893Z" stroke="black" stroke-opacity="0.25" stroke-width="2.57473"/>
<circle cx="27.4332" cy="40.7666" r="2.14561" fill="white"/>
<circle cx="27.4332" cy="40.7666" r="3.29504" stroke="black" stroke-opacity="0.25" stroke-width="2.29887"/>
<circle cx="40.9504" cy="41.4102" r="2.78929" fill="white"/>
<circle cx="40.9504" cy="41.4102" r="3.93872" stroke="black" stroke-opacity="0.25" stroke-width="2.29887"/>
<path d="M44.2573 110.908C46.8127 107.871 47.7314 106.018 48.3568 102.244C48.7448 99.7348 50.0367 98.2734 50.4468 99.924C50.6589 100.778 49.4069 105.73 48.5165 107.698C47.7571 109.452 43.7506 114.049 42.7969 114.282C41.4964 114.598 41.8912 113.597 44.2573 110.908Z" fill="black" fill-opacity="0.25"/>
<path d="M41.7468 22.8093C40.4705 19.0512 39.3599 17.306 36.454 14.818C34.5079 13.1877 33.9258 11.326 35.5504 11.8292C36.3908 12.0895 39.981 15.7236 41.2038 17.5035C42.312 19.0611 44.1728 24.8685 43.878 25.8047C43.4761 27.0814 42.8233 26.2253 41.7468 22.8093Z" fill="black" fill-opacity="0.25"/>
<path d="M41.7726 108.566C44.8811 103.26 45.8579 100.02 46.0592 93.4176C46.1532 89.0286 47.7383 86.4753 48.6318 89.365C49.0939 90.8596 48.2106 99.5221 47.2954 102.962C46.5289 106.029 41.6249 114.061 40.2986 114.465C38.4898 115.015 38.8718 113.263 41.7726 108.566Z" fill="black" fill-opacity="0.25"/>
<path d="M43.299 57.2144C43.0996 58.7419 40.4136 57.054 36.8886 56.5938C33.3635 56.1336 30.3343 57.0753 30.5337 55.5478C30.7331 54.0203 33.7524 53.1551 37.2774 53.6153C40.8025 54.0755 43.4984 55.6868 43.299 57.2144Z" fill="#5D5D5D"/>
<path d="M36.7497 57.6576C37.9647 57.8162 39.0319 58.1192 40.0027 58.3948C40.374 58.5002 40.7311 58.6016 41.077 58.6893C41.6283 58.8293 42.2903 58.9727 42.8654 58.8879C43.1863 58.8406 43.5601 58.7122 43.8684 58.4048C44.1789 58.0951 44.3161 57.7106 44.3628 57.3532C44.4591 56.6158 44.1901 55.9539 43.7962 55.4286C43.4065 54.9089 42.8552 54.4642 42.2353 54.0937C40.9922 53.3507 39.2889 52.796 37.4163 52.5515C35.5437 52.307 33.7551 52.4059 32.3629 52.8048C31.6687 53.0038 31.0217 53.292 30.5116 53.6943C29.996 54.1008 29.5662 54.6715 29.4699 55.4089C29.4233 55.7662 29.4571 56.1732 29.6777 56.5521C29.8968 56.9284 30.2251 57.1484 30.5231 57.2765C31.0572 57.5062 31.7338 57.5375 32.3025 57.5438C32.6594 57.5478 33.0306 57.5415 33.4164 57.5349C34.4255 57.5178 35.5347 57.499 36.7497 57.6576Z" stroke="black" stroke-opacity="0.25" stroke-width="2.14561"/>
</svg>
