<svg width="85" height="146" viewBox="0 0 85 146" fill="none" xmlns="http://www.w3.org/2000/svg">
<path d="M30.6201 105.435L24.6124 144.056H32.3366" stroke="#978E8D" stroke-width="3.43297" stroke-linecap="round"/>
<path d="M15.9142 64.8831L14.963 103.957L5.94589 112.516" stroke="#978E8D" stroke-width="3.43297" stroke-linecap="round"/>
<path d="M46.0685 105.006L43.4938 144.056H51.218" stroke="#978E8D" stroke-width="3.43297" stroke-linecap="round"/>
<path d="M49.5456 68.228L78.9788 42.436L78.9788 31.8407" stroke="#978E8D" stroke-width="3.43297" stroke-linecap="round"/>
<path d="M18.7344 1.27353C11.0102 2.87558 6.14686 7.28123 3.1144 15.2915C2.14172 17.8662 1.74121 20.3838 1.56956 25.3044C1.28348 31.5981 1.34069 32.1131 3.1144 37.3198C4.14429 40.295 5.28862 43.4419 5.74635 44.3002C6.20408 45.1584 6.54737 47.2754 6.54737 49.0491C6.54737 51.9671 6.71902 52.4249 8.54994 54.0841C11.0102 56.3728 13.4133 61.7511 13.4133 65.0124C13.4133 66.7289 13.8138 68.0449 14.8437 69.4181C15.5875 70.5052 16.9035 72.2789 17.7045 73.366C20.3365 77.1423 22.1674 83.3789 22.2246 89.2149C22.2818 93.1056 22.5107 94.7077 23.1973 95.5087C23.9983 96.3669 24.0555 97.168 23.5978 100.715C22.5107 108.84 25.0854 117.079 29.8916 120.684C34.5833 124.231 42.7653 125.433 47.1137 123.201C49.6884 121.885 52.9498 118.338 54.609 115.191C57.0693 110.328 57.5271 106.952 57.8703 90.5309C58.0992 78.916 58.3853 74.3959 58.9575 73.2516C59.9874 71.1918 59.9874 69.132 58.843 66.9006C57.5843 64.5547 57.3554 58.3181 58.3281 55.2857C59.3008 52.3677 58.6714 49.564 56.6116 47.6187C54.8951 45.9594 54.8379 45.3873 56.3827 42.7553C57.7559 40.4095 57.5843 37.8347 55.8106 35.8894C55.2384 35.26 54.4374 32.9713 54.0369 30.7399C51.7482 17.6374 43.1658 6.423 32.4663 2.41786C28.8617 1.10188 22.2246 0.529716 18.7344 1.27353Z" fill="#E7D8D8"/>
<path d="M18.9959 2.53407L19.0028 2.53264C20.5693 2.19876 22.9573 2.14609 25.4494 2.35609C27.9315 2.56525 30.3652 3.02211 32.0199 3.62534C42.216 7.44451 50.5444 18.2274 52.7687 30.9614L52.7697 30.9673C52.9817 32.1483 53.2989 33.3431 53.6428 34.3365C53.8147 34.8331 53.9988 35.2955 54.1872 35.689C54.3641 36.0583 54.5861 36.4563 54.858 36.7553L54.8593 36.7567C56.2163 38.2451 56.389 40.1964 55.2717 42.105C54.8811 42.7705 54.5562 43.3645 54.3349 43.9023C54.1118 44.4444 53.9568 45.0154 53.9886 45.6194C54.0542 46.8668 54.895 47.7498 55.7168 48.5443L55.7222 48.5495L55.7277 48.5546C57.386 50.1209 57.9379 52.3851 57.1068 54.8786L57.1045 54.8855L57.1022 54.8925C56.5494 56.6161 56.3668 59.1061 56.4625 61.4042C56.5566 63.6614 56.9311 66.0511 57.7024 67.4976C58.6623 69.375 58.6439 71 57.806 72.6759C57.5625 73.1629 57.4164 73.8415 57.3043 74.6165C57.1862 75.4328 57.087 76.5076 57.0004 77.8838C56.8268 80.639 56.6977 84.6972 56.5832 90.5055M18.9959 2.53407L57.8703 90.5309M18.9959 2.53407C15.3195 3.29659 12.3906 4.70975 10.0259 6.83659C7.65514 8.96898 5.78178 11.8817 4.31838 15.7473M18.9959 2.53407L4.31838 15.7473M56.5832 90.5055L57.8703 90.5309M56.5832 90.5055C56.5832 90.505 56.5833 90.5045 56.5833 90.504L57.8703 90.5309M56.5832 90.5055C56.239 106.968 55.7669 110.047 53.4653 114.6M57.8703 90.5309C57.5271 106.952 57.0693 110.328 54.609 115.191M53.4653 114.6C53.4669 114.597 53.4686 114.594 53.4703 114.591L54.609 115.191M53.4653 114.6C52.6978 116.053 51.5415 117.631 50.2623 119.006C48.9697 120.395 47.6288 121.492 46.5278 122.055L46.5259 122.056C44.6829 123.002 41.8544 123.28 38.8179 122.836C35.8045 122.395 32.8035 121.272 30.668 119.657L30.664 119.654C28.5387 118.06 26.8176 115.363 25.7628 112.009C24.7124 108.667 24.3546 104.767 24.8738 100.886L24.8746 100.88C25.1 99.1331 25.2223 97.9117 25.1532 97.0058C25.1166 96.5253 25.0243 96.0833 24.84 95.6657C24.6601 95.2582 24.4201 94.9361 24.1631 94.6569M53.4653 114.6C53.4636 114.603 53.4619 114.607 53.4603 114.61L54.609 115.191M54.609 115.191L24.1631 94.6569M24.1631 94.6569C24.1671 94.6618 24.1709 94.6665 24.1747 94.6709L23.1973 95.5087M24.1631 94.6569L47.1137 123.201C42.7653 125.433 34.5833 124.231 29.8916 120.684C25.0854 117.079 22.5107 108.84 23.5978 100.715C24.0555 97.168 23.9983 96.3669 23.1973 95.5087M24.1631 94.6569C24.0536 94.5216 23.8805 94.1997 23.7477 93.3268C23.6118 92.4342 23.5405 91.1381 23.5119 89.1993C23.4521 83.1601 21.5688 76.659 18.7607 72.6299L18.751 72.616L18.7409 72.6024C18.649 72.4775 18.5507 72.3443 18.4477 72.2048C17.6435 71.1145 16.551 69.6336 15.9062 68.6911L15.8904 68.668L15.8736 68.6457C15.0237 67.5124 14.7007 66.4726 14.7007 65.0124C14.7007 63.1257 14.0233 60.776 13.0801 58.6595C12.1352 56.5391 10.8331 54.4498 9.42677 53.1415L9.42064 53.1358L9.41443 53.1302C8.48902 52.2916 8.20786 51.9407 8.05906 51.5648C7.89293 51.1451 7.83474 50.5541 7.83474 49.0491C7.83474 48.0871 7.74234 47.0436 7.58836 46.1197C7.44112 45.2363 7.21488 44.318 6.88226 43.6943C6.70211 43.3566 6.33222 42.4442 5.85117 41.1541C5.38428 39.9019 4.84473 38.3829 4.33187 36.9013M24.1631 94.6569C24.1549 94.648 24.1467 94.6391 24.1384 94.6303L23.1973 95.5087M23.1973 95.5087C22.5107 94.7077 22.2818 93.1056 22.2246 89.2149C22.1674 83.3789 20.3365 77.1423 17.7045 73.366L4.33187 36.9013M3.1144 15.2915C2.14172 17.8662 1.74121 20.3838 1.56956 25.3044M3.1144 15.2915C6.14686 7.28123 11.0102 2.87558 18.7344 1.27353C22.2246 0.529716 28.8617 1.10188 32.4663 2.41786L1.56956 25.3044M3.1144 15.2915L4.31838 15.7473M3.1144 15.2915L4.31869 15.7465C4.31859 15.7467 4.31848 15.747 4.31838 15.7473M1.56956 25.3044C1.28348 31.5981 1.34069 32.1131 3.1144 37.3198L1.56956 25.3044ZM4.31838 15.7473C3.41896 18.1284 3.0259 20.4827 2.85621 25.3492L2.8556 25.3628C2.71114 28.541 2.66324 30.1229 2.84653 31.5565C3.02756 32.9723 3.43917 34.2808 4.33187 36.9013M4.31838 15.7473L4.33187 36.9013" stroke="black" stroke-opacity="0.25" stroke-width="2.57473"/>
<path d="M13.8292 16.2321L13.8292 16.2321L13.8291 16.2323L13.8292 16.2321ZM13.8292 16.2321C13.8302 16.2309 13.8363 16.2238 13.8495 16.2118C13.8652 16.1976 13.888 16.1793 13.9188 16.1585C13.9817 16.1159 14.0635 16.0728 14.1572 16.0372C14.2508 16.0016 14.3407 15.9795 14.4158 15.9695C14.4873 15.9599 14.524 15.9641 14.5279 15.9645C14.5282 15.9645 14.5283 15.9645 14.5281 15.9645L14.5453 15.9676L14.5626 15.9703C14.6704 15.9869 14.7923 16.0574 14.8386 16.2989C14.8855 16.5441 14.8079 16.8226 14.5805 17.0134C14.5776 17.0158 14.5747 17.018 14.5718 17.0203C14.4728 16.9335 14.3465 16.8139 14.1811 16.6484C14.0156 16.483 13.8959 16.3567 13.8092 16.2577L13.8292 16.2321Z" stroke="black" stroke-opacity="0.25" stroke-width="2.57473"/>
<mask id="path-8-inside-1_138_668" fill="white">
<path d="M22.9976 21.5066C21.7388 22.1932 21.6816 24.4819 22.8831 25.6834C25.4579 28.2582 29.0053 24.8252 26.545 22.136C25.229 20.7628 24.4852 20.5912 22.9976 21.5066ZM25.6295 23.5092C26.03 24.5391 25.6295 25.4546 24.7713 25.4546C24.4852 25.4546 24.2563 24.9396 24.2563 24.3675C24.2563 23.7381 23.913 23.1087 23.5697 22.9943C23.1692 22.8226 23.3981 22.651 24.0274 22.651C24.714 22.5938 25.4579 22.9943 25.6295 23.5092Z"/>
</mask>
<path d="M22.9976 21.5066L24.347 23.6994L24.2896 23.7347L24.2305 23.767L22.9976 21.5066ZM26.545 22.136L28.4039 20.3546L28.4245 20.3761L28.4446 20.398L26.545 22.136ZM25.6295 23.5092L23.2298 24.4424L23.2069 24.3834L23.1869 24.3234L25.6295 23.5092ZM23.5697 22.9943L22.7555 25.4369L22.6539 25.403L22.5555 25.3608L23.5697 22.9943ZM24.0274 22.651L24.2413 25.2168L24.1345 25.2257H24.0274V22.651ZM24.2305 23.767C24.4535 23.6454 24.5553 23.4864 24.5863 23.4239C24.6128 23.3704 24.5939 23.3817 24.5915 23.4703C24.5893 23.5542 24.6042 23.6514 24.6357 23.7375C24.6665 23.822 24.6989 23.858 24.7037 23.8628L21.0625 27.504C19.8871 26.3287 19.4067 24.7346 19.4439 23.3336C19.4797 21.9854 20.0455 20.184 21.7646 19.2463L24.2305 23.767ZM24.7037 23.8628C24.7617 23.9208 24.8088 23.9581 24.8424 23.9814C24.8758 24.0046 24.8979 24.0153 24.9076 24.0195C24.9172 24.0237 24.9183 24.0231 24.9113 24.0216C24.9043 24.0202 24.8937 24.0188 24.8805 24.0188C24.8527 24.0189 24.8313 24.025 24.8196 24.0299C24.8097 24.0341 24.8085 24.0365 24.8112 24.034C24.8138 24.0314 24.8128 24.0311 24.81 24.0372C24.8063 24.0451 24.8011 24.0611 24.8002 24.0823C24.7998 24.0923 24.8006 24.0999 24.8012 24.1038C24.8019 24.1078 24.8018 24.1041 24.7971 24.0921C24.7924 24.0799 24.7818 24.0557 24.7593 24.02C24.7367 23.9842 24.7009 23.9348 24.6453 23.874L28.4446 20.398C29.4731 21.5222 30.0024 22.8885 29.9454 24.2914C29.8899 25.6574 29.2848 26.8701 28.3932 27.7334C27.5016 28.5967 26.2672 29.1645 24.8945 29.1682C23.4841 29.1721 22.1398 28.5813 21.0625 27.504L24.7037 23.8628ZM24.686 23.9175C24.5526 23.7783 24.4433 23.672 24.3529 23.5906C24.2623 23.509 24.2016 23.4624 24.1668 23.438C24.0997 23.391 24.1754 23.4591 24.3632 23.4941C24.4544 23.5111 24.543 23.5147 24.6203 23.5089C24.6945 23.5033 24.7385 23.4905 24.7443 23.4888C24.748 23.4876 24.718 23.4965 24.6476 23.5307C24.577 23.565 24.479 23.6182 24.347 23.6994L21.6481 19.3139C22.5351 18.7681 23.798 18.1502 25.3081 18.4321C26.7093 18.6936 27.7136 19.6343 28.4039 20.3546L24.686 23.9175ZM28.0292 22.576C28.413 23.5629 28.5252 24.7775 28.0291 25.905C27.4815 27.1496 26.2724 28.0293 24.7713 28.0293V22.8798C24.5129 22.8798 24.1923 22.9542 23.8897 23.157C23.5935 23.3556 23.4123 23.6117 23.3157 23.8312C23.1343 24.2435 23.2466 24.4854 23.2298 24.4424L28.0292 22.576ZM24.7713 28.0293C23.8763 28.0293 23.2118 27.6171 22.8192 27.2529C22.4386 26.8999 22.2087 26.5061 22.0712 26.2098C21.7941 25.613 21.6816 24.9599 21.6816 24.3675H26.831C26.831 24.3472 26.8329 24.2376 26.7418 24.0413C26.6972 23.9453 26.5783 23.716 26.321 23.4774C26.0518 23.2277 25.5232 22.8798 24.7713 22.8798V28.0293ZM21.6816 24.3675C21.6816 24.4932 21.7081 24.5798 21.7521 24.6653C21.7768 24.7134 21.8351 24.8152 21.9527 24.9394C22.056 25.0484 22.3141 25.2897 22.7555 25.4369L24.3839 20.5517C25.5113 20.9275 26.0928 21.8461 26.3314 22.3102C26.6329 22.8964 26.831 23.6124 26.831 24.3675H21.6816ZM22.5555 25.3608C22.3937 25.2915 21.6722 24.9911 21.1977 24.2284C20.8925 23.7381 20.6596 22.9911 20.8848 22.1468C21.0898 21.378 21.5735 20.919 21.8675 20.6985C22.4038 20.2963 22.9677 20.1845 23.1754 20.1469C23.4719 20.0933 23.765 20.0762 24.0274 20.0762V25.2257C23.9752 25.2257 24.0037 25.2301 24.0927 25.214C24.0931 25.214 24.5068 25.1558 24.9572 24.818C25.2083 24.6297 25.6652 24.2056 25.8604 23.4736C26.0757 22.6662 25.8499 21.9581 25.5699 21.508C25.3235 21.112 25.0314 20.8936 24.9033 20.8059C24.755 20.7043 24.6353 20.6497 24.584 20.6277L22.5555 25.3608ZM23.8136 20.0851C24.7014 20.0111 25.5526 20.2285 26.239 20.5968C26.8846 20.9432 27.7093 21.6067 28.0721 22.695L23.1869 24.3234C23.2877 24.6259 23.4412 24.8237 23.545 24.932C23.6508 25.0422 23.7449 25.1025 23.8042 25.1343C23.9041 25.1879 24.0401 25.2336 24.2413 25.2168L23.8136 20.0851Z" fill="black" fill-opacity="0.25" mask="url(#path-8-inside-1_138_668)"/>
<path d="M9.20856 24.768C7.94981 26.1412 8.00702 26.7705 9.38021 28.0293C10.4101 28.9448 10.6962 29.002 11.9549 28.3154C13.6714 27.3999 13.8431 25.1685 12.2982 24.3102C10.7534 23.5092 10.2957 23.5664 9.20856 24.768Z" fill="black" fill-opacity="0.25"/>
<path d="M10.1632 25.6317L10.1632 25.6317L10.1576 25.6379C9.86886 25.9528 9.71559 26.1621 9.638 26.3025C9.62267 26.3303 9.61208 26.3521 9.60484 26.3686C9.61516 26.3875 9.6309 26.4135 9.65447 26.4475C9.75175 26.5876 9.9291 26.7855 10.2429 27.0737C10.4913 27.2942 10.6372 27.4101 10.7377 27.4748C10.7378 27.4749 10.7379 27.475 10.738 27.4751C10.7392 27.4747 10.7404 27.4743 10.7416 27.4738C10.8572 27.4334 11.0346 27.351 11.3385 27.1852L11.3385 27.1852L11.3491 27.1795C11.8293 26.9234 12.039 26.5199 12.0666 26.1854C12.0927 25.8695 11.9689 25.6059 11.6861 25.443C11.3271 25.2575 11.0924 25.1547 10.925 25.1012C10.8428 25.075 10.7949 25.0666 10.772 25.0641C10.7576 25.0717 10.7327 25.0866 10.6957 25.1138C10.5817 25.1977 10.4185 25.3495 10.1632 25.6317ZM9.59018 26.4087C9.59025 26.4087 9.59058 26.4075 9.59099 26.4052C9.59033 26.4076 9.59012 26.4087 9.59018 26.4087ZM9.58773 26.3329C9.58715 26.3308 9.58675 26.3297 9.58669 26.3297C9.58663 26.3297 9.58692 26.3307 9.58773 26.3329ZM10.7555 25.0631C10.7556 25.0631 10.7566 25.0632 10.7585 25.063C10.7564 25.063 10.7555 25.063 10.7555 25.0631ZM10.7832 25.0586C10.7861 25.0578 10.7876 25.0571 10.7876 25.057C10.7877 25.0569 10.7862 25.0573 10.7832 25.0586Z" stroke="black" stroke-opacity="0.25" stroke-width="2.57473"/>
<mask id="path-12-inside-2_138_668" fill="white">
<path d="M22.6821 60.3207C21.0801 61.9228 22.2816 64.7836 24.5703 64.7836C25.2569 64.7836 26.0579 64.4975 26.4584 64.097C26.8589 63.6965 27.145 62.8954 27.145 62.2088C27.145 61.5222 26.8589 60.7212 26.4584 60.3207C26.0579 59.9202 25.2569 59.6341 24.5703 59.6341C23.8837 59.6341 23.0827 59.9202 22.6821 60.3207ZM25.7718 61.4078C25.9435 61.7511 25.6574 62.4377 25.1424 62.9526C24.1698 63.8681 24.1698 63.8681 24.4558 62.9526C24.6847 62.2661 24.5703 62.0944 23.9409 62.3233C23.5404 62.4949 23.1399 62.3805 23.1399 62.0944C23.1399 60.7784 25.028 60.2635 25.7718 61.4078Z"/>
</mask>
<path d="M25.7718 61.4078L27.9306 60.0046L28.0098 60.1264L28.0747 60.2564L25.7718 61.4078ZM25.1424 62.9526L26.963 64.7733L26.9355 64.8008L26.9071 64.8276L25.1424 62.9526ZM24.4558 62.9526L21.9983 62.1847L22.0056 62.1615L22.0132 62.1384L24.4558 62.9526ZM23.9409 62.3233L22.9267 59.9567L22.9931 59.9283L23.061 59.9036L23.9409 62.3233ZM24.5028 62.1413C24.497 62.1471 24.5033 62.1419 24.5115 62.1257C24.5191 62.1105 24.5224 62.0973 24.5235 62.0902C24.5244 62.0843 24.523 62.0876 24.5247 62.1003C24.5264 62.1134 24.5308 62.1316 24.5395 62.1521C24.5481 62.1726 24.5586 62.1897 24.5684 62.2022C24.578 62.2144 24.5842 62.2187 24.5836 62.2182C24.5822 62.2172 24.576 62.2134 24.5667 62.2103C24.5563 62.2069 24.5552 62.2088 24.5703 62.2088V67.3583C20.0464 67.3583 17.5962 61.7655 20.8615 58.5001L24.5028 62.1413ZM24.5703 62.2088C24.5669 62.2088 24.5874 62.2088 24.628 62.2013C24.6675 62.1939 24.7091 62.1825 24.7459 62.1692C24.7634 62.1629 24.7768 62.1572 24.7856 62.1532C24.7946 62.149 24.7962 62.1477 24.791 62.1507C24.7862 62.1536 24.7704 62.1631 24.7462 62.1812C24.7224 62.1991 24.6843 62.2299 24.6378 62.2764L28.279 65.9176C27.7274 66.4692 27.0563 66.8095 26.4974 67.0117C25.9152 67.2223 25.247 67.3583 24.5703 67.3583V62.2088ZM24.6378 62.2764C24.5913 62.3228 24.5605 62.3609 24.5427 62.3848C24.5245 62.409 24.515 62.4247 24.5122 62.4296C24.5092 62.4348 24.5104 62.4331 24.5146 62.4241C24.5187 62.4153 24.5243 62.402 24.5307 62.3844C24.544 62.3477 24.5553 62.3061 24.5627 62.2665C24.5702 62.226 24.5703 62.2054 24.5703 62.2088H29.7197C29.7197 62.8856 29.5837 63.5537 29.3731 64.1359C29.171 64.6948 28.8307 65.3659 28.279 65.9176L24.6378 62.2764ZM24.5703 62.2088C24.5703 62.2122 24.5702 62.1917 24.5627 62.1511C24.5553 62.1116 24.544 62.07 24.5307 62.0332C24.5243 62.0157 24.5187 62.0023 24.5146 61.9935C24.5104 61.9846 24.5092 61.9829 24.5122 61.9881C24.515 61.993 24.5245 62.0087 24.5427 62.0329C24.5605 62.0567 24.5913 62.0948 24.6378 62.1413L28.279 58.5001C28.8307 59.0518 29.171 59.7228 29.3731 60.2817C29.5837 60.8639 29.7197 61.5321 29.7197 62.2088H24.5703ZM24.6378 62.1413C24.6843 62.1878 24.7224 62.2186 24.7462 62.2364C24.7704 62.2546 24.7862 62.2641 24.791 62.2669C24.7962 62.2699 24.7946 62.2687 24.7856 62.2645C24.7768 62.2604 24.7634 62.2548 24.7459 62.2484C24.7091 62.2351 24.6675 62.2238 24.628 62.2164C24.5874 62.2089 24.5669 62.2088 24.5703 62.2088V57.0594C25.247 57.0594 25.9152 57.1954 26.4974 57.406C27.0563 57.6081 27.7274 57.9484 28.279 58.5001L24.6378 62.1413ZM24.5703 62.2088C24.5737 62.2088 24.5531 62.2089 24.5126 62.2164C24.473 62.2238 24.4315 62.2351 24.3947 62.2484C24.3771 62.2548 24.3638 62.2604 24.355 62.2645C24.346 62.2687 24.3444 62.2699 24.3495 62.2669C24.3544 62.2641 24.3701 62.2546 24.3943 62.2364C24.4182 62.2186 24.4563 62.1878 24.5028 62.1413L20.8615 58.5001C21.4132 57.9484 22.0843 57.6081 22.6432 57.406C23.2254 57.1954 23.8935 57.0594 24.5703 57.0594V62.2088ZM28.0747 60.2564C28.6753 61.4574 28.2887 62.6249 28.0967 63.0931C27.8407 63.717 27.4381 64.2982 26.963 64.7733L23.3218 61.132C23.3617 61.0922 23.3596 61.0726 23.3325 61.1386C23.3184 61.1732 23.2713 61.295 23.2537 61.4936C23.2372 61.6792 23.2336 62.0886 23.4689 62.5593L28.0747 60.2564ZM26.9071 64.8276C26.6832 65.0383 26.4525 65.2562 26.2688 65.415C26.181 65.491 26.0341 65.615 25.8609 65.7317C25.7739 65.7903 25.6236 65.8859 25.4279 65.9744C25.2636 66.0488 24.8633 66.214 24.3271 66.214C23.6748 66.214 22.8946 65.9592 22.3267 65.2799C21.8563 64.7172 21.7587 64.1257 21.7314 63.8763C21.6786 63.3937 21.7745 62.9898 21.7904 62.9174C21.8458 62.6639 21.9447 62.3561 21.9983 62.1847L26.9134 63.7206C26.8239 64.0069 26.8155 64.0424 26.8209 64.0178C26.8255 63.9969 26.839 63.9332 26.8496 63.8424C26.8585 63.7667 26.8782 63.5712 26.8504 63.3164C26.8262 63.0956 26.736 62.5256 26.2776 61.9772C25.7216 61.3121 24.958 61.0645 24.3271 61.0645C23.8124 61.0645 23.4384 61.2226 23.3058 61.2826C23.1417 61.3568 23.0282 61.431 22.9838 61.461C22.8955 61.5204 22.8558 61.5586 22.9003 61.5202C22.9813 61.4501 23.1153 61.3248 23.3778 61.0777L26.9071 64.8276ZM22.0132 62.1384C22.0517 62.0231 22.0181 62.0915 22.0002 62.2597C21.992 62.3363 21.8953 63.1213 22.4957 63.8854C23.2063 64.7898 24.1777 64.8152 24.4632 64.7992C24.7501 64.7831 24.9093 64.7108 24.8208 64.743L23.061 59.9036C23.2872 59.8213 23.6967 59.6846 24.1749 59.6578C24.6518 59.6311 25.7555 59.6994 26.5448 60.7039C27.2238 61.5681 27.1521 62.5105 27.1207 62.8053C27.0795 63.1916 26.9744 63.5389 26.8984 63.7669L22.0132 62.1384ZM24.9551 64.6898C24.3214 64.9614 23.5083 65.092 22.6829 64.8562C21.8241 64.6108 20.5651 63.7529 20.5651 62.0944H25.7146C25.7146 61.5173 25.4954 60.9636 25.1155 60.5448C24.7655 60.1591 24.37 59.9827 24.0975 59.9048C23.5724 59.7548 23.1599 59.8567 22.9267 59.9567L24.9551 64.6898ZM20.5651 62.0944C20.5651 60.0052 22.0995 58.7166 23.5155 58.3402C24.9388 57.9618 26.8378 58.3234 27.9306 60.0046L23.6131 62.811C23.962 63.3479 24.545 63.3948 24.8384 63.3168C24.9978 63.2744 25.2011 63.1756 25.3837 62.9671C25.5861 62.7358 25.7146 62.4189 25.7146 62.0944H20.5651Z" fill="black" fill-opacity="0.25" mask="url(#path-12-inside-2_138_668)"/>
<path d="M26.8973 74.2123L26.8973 74.2123L26.8962 74.2031C26.838 73.7085 26.5637 73.5572 26.475 73.535C26.4655 73.5326 26.4582 73.5314 26.4529 73.5308C26.4351 73.5508 26.4012 73.5998 26.3677 73.7035C26.2735 73.9966 26.2486 74.1851 26.2475 74.2915C26.3609 74.3287 26.5704 74.3673 26.9156 74.3673C26.9103 74.3192 26.9042 74.2677 26.8973 74.2123ZM26.441 73.5307C26.441 73.5307 26.4419 73.5307 26.4436 73.5303L26.441 73.5307ZM26.4609 73.5226C26.4641 73.5206 26.4656 73.5193 26.4655 73.5192C26.4654 73.519 26.4638 73.52 26.4609 73.5226ZM26.1757 74.2617C26.1757 74.2617 26.1762 74.262 26.1773 74.2627C26.1763 74.262 26.1757 74.2617 26.1757 74.2617Z" stroke="black" stroke-opacity="0.25" stroke-width="2.57473"/>
<path d="M40.1569 81.3332L40.157 81.3333L40.1495 81.3422C40.1397 81.354 40.1303 81.3654 40.1215 81.3763C40.1291 81.3856 40.1371 81.3953 40.1454 81.4054C40.3616 81.6585 40.5094 81.7334 40.5706 81.7554C40.606 81.7236 40.6757 81.6467 40.7555 81.4871L40.7554 81.4871L40.7617 81.4748C40.9255 81.1558 40.9057 80.9819 40.8962 80.9385C40.8933 80.9255 40.8903 80.9176 40.8884 80.9135C40.8872 80.9108 40.8863 80.9092 40.8858 80.9084C40.8855 80.9083 40.8852 80.9081 40.8848 80.9078C40.8823 80.9064 40.8709 80.9005 40.8465 80.8976C40.8222 80.8948 40.7806 80.8947 40.7217 80.9102C40.6077 80.9402 40.3978 81.0388 40.1569 81.3332Z" stroke="black" stroke-opacity="0.25" stroke-width="2.57473"/>
<circle cx="27.187" cy="41.7105" r="2.14561" fill="white"/>
<circle cx="27.187" cy="41.7105" r="3.29504" stroke="black" stroke-opacity="0.25" stroke-width="2.29887"/>
<circle cx="40.7042" cy="42.3542" r="2.78929" fill="white"/>
<circle cx="40.7042" cy="42.3542" r="3.93872" stroke="black" stroke-opacity="0.25" stroke-width="2.29887"/>
<path d="M44.011 111.852C46.5665 108.815 47.4852 106.962 48.1105 103.188C48.4986 100.679 49.7904 99.2173 50.2005 100.868C50.4127 101.722 49.1607 106.674 48.2703 108.642C47.5109 110.396 43.5043 114.993 42.5507 115.226C41.2502 115.542 41.645 114.541 44.011 111.852Z" fill="black" fill-opacity="0.25"/>
<path d="M41.5006 23.7532C40.2243 19.9951 39.1136 18.25 36.2078 15.762C34.2617 14.1317 33.6796 12.27 35.3042 12.7732C36.1446 13.0334 39.7348 16.6675 40.9575 18.4474C42.0658 20.005 43.9266 25.8124 43.6318 26.7486C43.2299 28.0253 42.5771 27.1693 41.5006 23.7532Z" fill="black" fill-opacity="0.25"/>
<path d="M41.5264 109.51C44.6349 104.204 45.6117 100.964 45.813 94.3616C45.907 89.9725 47.4921 87.4193 48.3856 90.3089C48.8477 91.8035 47.9644 100.466 47.0491 103.906C46.2826 106.973 41.3787 115.005 40.0523 115.409C38.2436 115.959 38.6255 114.207 41.5264 109.51Z" fill="black" fill-opacity="0.25"/>
<path d="M43.0528 58.1583C42.8534 59.6858 40.1674 57.998 36.6424 57.5378C33.1173 57.0776 30.088 58.0193 30.2875 56.4917C30.4869 54.9642 33.5062 54.099 37.0312 54.5592C40.5563 55.0194 43.2522 56.6308 43.0528 58.1583Z" fill="#5D5D5D"/>
<path d="M36.5035 58.6016C37.7185 58.7602 38.7857 59.0631 39.7565 59.3387C40.1278 59.4441 40.4849 59.5455 40.8308 59.6333C41.3821 59.7732 42.0441 59.9166 42.6192 59.8318C42.9401 59.7845 43.3139 59.6562 43.6222 59.3487C43.9327 59.0391 44.0699 58.6545 44.1166 58.2972C44.2129 57.5597 43.9439 56.8978 43.55 56.3726C43.1603 55.8528 42.609 55.4082 41.9891 55.0377C40.746 54.2947 39.0427 53.7399 37.1701 53.4954C35.2975 53.251 33.5089 53.3498 32.1167 53.7488C31.4224 53.9477 30.7755 54.236 30.2654 54.6382C29.7498 55.0447 29.32 55.6154 29.2237 56.3529C29.177 56.7102 29.2109 57.1171 29.4315 57.4961C29.6506 57.8724 29.9789 58.0924 30.2769 58.2205C30.811 58.4501 31.4876 58.4814 32.0563 58.4877C32.4132 58.4917 32.7844 58.4854 33.1702 58.4789C34.1792 58.4617 35.2885 58.4429 36.5035 58.6016Z" stroke="black" stroke-opacity="0.25" stroke-width="2.14561"/>
</svg>
