<svg width="240" height="146" viewBox="0 0 240 146" fill="none" xmlns="http://www.w3.org/2000/svg">
<path d="M70.6251 99.3566L64.6174 143.556H72.3416" stroke="#B29785" stroke-width="3.43297" stroke-linecap="round"/>
<path d="M101.47 58.5899L114.635 95.3913L109.3 106.62" stroke="#B29785" stroke-width="3.43297" stroke-linecap="round"/>
<path d="M86.074 98.9275L83.4993 143.556H91.2235" stroke="#B29785" stroke-width="3.43297" stroke-linecap="round"/>
<circle cx="66.8861" cy="42.0688" r="3.21841" fill="white"/>
<circle cx="66.8861" cy="42.0688" r="4.36785" stroke="black" stroke-opacity="0.25" stroke-width="2.29887"/>
<circle cx="81.1388" cy="42.0688" r="3.21841" fill="white"/>
<circle cx="81.1388" cy="42.0688" r="4.36785" stroke="black" stroke-opacity="0.25" stroke-width="2.29887"/>
<path d="M43.5745 94.3816C42.4846 92.0235 40.2582 85.0477 38.486 78.6565C35.5773 67.6476 35.1379 55.6497 37.528 48.278C39.0756 43.208 43.2797 36.6375 46.5586 33.9988C50.7597 30.6659 57.5124 29.4889 59.9017 31.6673C61.289 32.9321 62.5801 32.9153 64.4246 31.5271C70.283 27.3176 84.4817 30.371 98.5781 38.6182C113.214 47.3572 118.884 57.9841 117.93 75.1926C117.403 87.1624 114.685 93.0416 107.596 97.6642C102.258 101.154 94.0439 102.534 88.8853 100.9C85.3177 99.6942 84.9929 99.7392 81.2211 104.146C76.3482 109.595 71.5884 111.224 63.8228 110.114C56.861 109.053 46.4671 100.941 43.5745 94.3816Z" fill="#E8B89F"/>
<path d="M45.1499 93.6928L45.1439 93.679L45.1375 93.6653C44.1159 91.4549 41.9247 84.6193 40.1473 78.2106C37.2841 67.3678 36.9166 55.739 39.1653 48.8034L39.1699 48.7893L39.1742 48.7752C39.8909 46.4273 41.2505 43.6583 42.8484 41.141C44.4559 38.6086 46.2065 36.4855 47.6353 35.334C49.4854 33.8679 51.9468 32.8475 54.2061 32.4531C55.331 32.2567 56.3448 32.2264 57.1609 32.3399C57.9949 32.4559 58.4884 32.7015 58.7393 32.9303C59.6321 33.7442 60.7152 34.3396 62.0376 34.304C63.2831 34.2704 64.412 33.6803 65.4451 32.9056C67.7539 31.2574 72.1206 30.8317 78.0566 32.0771C83.8798 33.2988 90.7773 36.0419 97.6992 40.0907C104.834 44.3519 109.641 48.9869 112.579 54.529C115.518 60.0742 116.678 66.6991 116.212 75.0989L116.211 75.1086L116.211 75.1183C115.952 81.0113 115.157 85.2189 113.66 88.4708C112.187 91.6708 109.978 94.0642 106.654 96.2319L106.652 96.233C104.216 97.8258 101.061 98.9711 97.8823 99.5159C94.6963 100.062 91.6564 99.9763 89.4229 99.2732C89.3749 99.257 89.3268 99.2407 89.2787 99.2244C87.7181 98.6953 86.1251 98.1553 84.4725 98.8359C83.6682 99.1672 82.974 99.7299 82.3006 100.391C81.6256 101.053 80.8554 101.933 79.9241 103.021C77.6234 105.591 75.4535 107.145 73.0469 107.97C70.626 108.801 67.7954 108.951 64.0755 108.42C61.0168 107.951 56.9589 105.86 53.2327 102.961C49.5082 100.062 46.4339 96.6045 45.1499 93.6928Z" stroke="black" stroke-opacity="0.25" stroke-width="3.43297"/>
<circle cx="67.1925" cy="58.5899" r="2.14561" fill="white"/>
<circle cx="67.1925" cy="58.5899" r="3.29504" stroke="black" stroke-opacity="0.25" stroke-width="2.29887"/>
<circle cx="83.0699" cy="58.5899" r="2.14561" fill="white"/>
<circle cx="83.0699" cy="58.5899" r="3.29504" stroke="black" stroke-opacity="0.25" stroke-width="2.29887"/>
<path d="M41.4745 56.31C42.5513 50.9814 44.5034 47.4741 47.2536 45.7178C51.0032 43.3377 51.058 45.4343 47.4735 49.3293C45.1692 51.8332 44.0018 54.1799 43.886 56.462C43.7701 58.7441 43.225 59.9525 42.088 60.1098C41.1135 60.2446 40.8549 58.9855 41.4745 56.31Z" fill="black" fill-opacity="0.25"/>
<path d="M104.174 72.7355C104.164 66.5862 103.363 63.2979 100.19 57.5052C98.0455 53.6744 98.1174 50.67 100.352 52.7078C101.509 53.7618 105.139 61.6764 106.094 65.1053C106.988 68.1379 106.833 77.5473 105.894 78.5674C104.614 79.9585 104.055 78.2553 104.174 72.7355Z" fill="black" fill-opacity="0.25"/>
<path d="M51.8749 79.1883C54.9144 84.5339 57.2317 87.0006 62.8477 90.4772C66.6012 92.7539 68.0193 95.4036 65.0702 94.7319C63.5448 94.3845 56.4856 89.2866 53.965 86.7736C51.6923 84.5756 47.1901 76.3117 47.5043 74.9614C47.9327 73.1201 49.2582 74.3268 51.8749 79.1883Z" fill="black" fill-opacity="0.25"/>
<path d="M60.3859 98.3687C63.9261 100.163 65.9404 100.634 69.7574 100.381C72.2887 100.185 74.0066 101.109 72.4933 101.885C71.7106 102.287 66.6028 102.199 64.4841 101.782C62.6027 101.443 57.2117 98.593 56.7678 97.7176C56.1624 96.5238 57.2277 96.6794 60.3859 98.3687Z" fill="black" fill-opacity="0.25"/>
<path d="M104.614 88.8231C107.169 85.7863 108.088 83.9329 108.713 80.1589C109.101 77.6499 110.393 76.1885 110.803 77.8391C111.016 78.6929 109.764 83.6456 108.873 85.6129C108.114 87.3672 104.107 91.9645 103.154 92.1967C101.853 92.5134 102.248 91.5119 104.614 88.8231Z" fill="black" fill-opacity="0.25"/>
<path d="M44.449 70.1762L33.921 94.8627L38.1052 104.597" stroke="#B29785" stroke-width="3.43297" stroke-linecap="round"/>
<path d="M42.2257 37.9176C40.2362 32.4716 41.8816 24.5834 49.1079 19.2927C50.6133 18.1744 51.9468 17.3141 52.0758 17.4001C52.1618 17.4862 51.6457 18.2604 50.9144 19.0777C49.1939 21.0563 48.5057 23.25 48.8068 26.0459C49.0649 28.6267 50.7639 31.3365 51.4737 32.2339C52.1835 33.1312 53.4092 34.6916 53.4092 34.6916C53.4092 34.8636 53.9254 35.5088 54.5276 36.1541C55.6029 37.2724 55.6029 37.4445 55.1298 38.9929C54.8287 39.8962 54.2265 41.3587 53.7963 42.219C52.8931 43.9825 48.4197 48.585 47.5594 48.585C47.2583 48.585 46.6667 48.0414 45.9249 46.751C45.183 45.4605 44.2152 43.3636 42.2257 37.9176Z" fill="#B29785"/>
<path d="M108.72 37.9176C110.71 32.4716 109.064 24.5834 101.838 19.2927C100.333 18.1744 98.9993 17.3141 98.8702 17.4001C98.7842 17.4862 99.3004 18.2604 100.032 19.0777C101.752 21.0563 102.44 23.25 102.139 26.0459C101.881 28.6267 100.182 31.3365 99.4724 32.2339C98.7626 33.1312 97.5368 34.6916 97.5368 34.6916C97.5368 34.8636 97.0207 35.5088 96.4185 36.1541C95.3431 37.2724 95.3431 37.4445 95.8163 38.9929C96.1174 39.8962 96.7196 41.3587 97.1497 42.219C98.053 43.9825 102.526 48.585 103.387 48.585C103.688 48.585 104.279 48.0414 105.021 46.751C105.763 45.4605 106.731 43.3636 108.72 37.9176Z" fill="#B29785"/>
<path d="M77.4327 29.5968C66.7635 29.4038 64.4033 30.9115 58.555 25.3726C56.3473 24.2928 53.6261 23.1442 52.5711 22.8818C50.9192 22.412 50.6001 22.5095 50.1297 23.6896C49.4518 25.4666 51.3314 30.7099 53.6104 33.3994C54.5554 34.5778 56.5278 36.1297 58.0551 36.8634C60.7557 38.1607 65.4835 47.1301 78.779 42.4978C82.7477 42.4238 86.1746 40.9101 89.3395 41.6974C94.5033 42.9818 95.3911 42.731 96.0541 40.0658C96.7447 37.2896 96.4245 36.4435 93.7574 34.1292C90.2151 31.0666 85.3566 29.7401 77.4327 29.5968Z" fill="#E8D593"/>
<path d="M80.3608 55.6226C80.9257 54.957 82.666 54.2828 84.3264 53.8474C85.9867 53.412 87.7054 53.1791 88.4551 53.5001" stroke="#B29785" stroke-width="3.43297" stroke-linecap="round"/>
<path d="M69.8578 55.2862C69.2391 54.6702 67.5962 53.5863 65.9052 53.2916C64.2142 52.9969 62.3342 53.4668 61.6141 53.8495" stroke="#B29785" stroke-width="3.43297" stroke-linecap="round"/>
<path d="M78.9005 70.4116L78.8674 70.7612L79.0827 71.0387C80.2275 72.5136 80.5188 73.83 80.3699 74.767C80.2247 75.6811 79.6561 76.3244 78.8189 76.5738C77.8764 76.8545 76.6667 76.7115 75.8418 76.0842C75.0939 75.5155 74.4983 74.4182 74.982 72.3873L75.1005 71.8899L74.7292 71.5383C73.2131 70.1031 73.1112 68.8587 73.4261 67.9734C73.7733 66.9971 74.7076 66.2154 75.6501 65.9347C76.3565 65.7243 77.184 66.0252 77.8901 66.905C78.5879 67.7744 79.0274 69.0731 78.9005 70.4116Z" fill="#747070" stroke="#B29785" stroke-width="1.77269"/>
<path d="M171.874 104.935L165.866 143.556H173.59" stroke="#978E8D" stroke-width="3.43297" stroke-linecap="round"/>
<path d="M157.168 64.3831L156.217 103.457L147.199 112.016" stroke="#978E8D" stroke-width="3.43297" stroke-linecap="round"/>
<path d="M187.322 104.506L184.747 143.556H192.472" stroke="#978E8D" stroke-width="3.43297" stroke-linecap="round"/>
<path d="M190.799 67.728L220.232 41.936L220.232 31.3407" stroke="#978E8D" stroke-width="3.43297" stroke-linecap="round"/>
<path d="M159.988 0.773506C152.264 2.37556 147.401 6.78121 144.368 14.7915C143.395 17.3662 142.995 19.8837 142.823 24.8043C142.537 31.0981 142.594 31.6131 144.368 36.8197C145.398 39.795 146.542 42.9419 147 43.8001C147.458 44.6584 147.801 46.7754 147.801 48.5491C147.801 51.4671 147.973 51.9248 149.804 53.5841C152.264 55.8728 154.667 61.2511 154.667 64.5124C154.667 66.2289 155.067 67.5449 156.097 68.9181C156.841 70.0052 158.157 71.7789 158.958 72.866C161.59 76.6423 163.421 82.8788 163.478 88.7149C163.536 92.6056 163.764 94.2077 164.451 95.0087C165.252 95.8669 165.309 96.668 164.851 100.215C163.764 108.34 166.339 116.579 171.145 120.184C175.837 123.731 184.019 124.933 188.367 122.701C190.942 121.385 194.203 117.838 195.863 114.691C198.323 109.828 198.781 106.452 199.124 90.0309C199.353 78.416 199.639 73.8959 200.211 72.7516C201.241 70.6918 201.241 68.632 200.097 66.4006C198.838 64.0547 198.609 57.8181 199.582 54.7857C200.554 51.8676 199.925 49.064 197.865 47.1187C196.149 45.4594 196.092 44.8872 197.636 42.2553C199.01 39.9094 198.838 37.3347 197.064 35.3893C196.492 34.76 195.691 32.4713 195.291 30.2399C193.002 17.1374 184.419 5.92297 173.72 1.91784C170.115 0.60186 163.478 0.0296936 159.988 0.773506Z" fill="#E7D8D8"/>
<path d="M160.25 2.03404L160.256 2.03262C161.823 1.69874 164.211 1.64606 166.703 1.85607C169.185 2.06523 171.619 2.52209 173.274 3.12532C183.47 6.94449 191.798 17.7274 194.022 30.4614L194.023 30.4673C194.235 31.6483 194.553 32.8431 194.896 33.8365C195.068 34.3331 195.252 34.7954 195.441 35.189C195.618 35.5582 195.84 35.9563 196.112 36.2553L196.113 36.2567C197.47 37.7451 197.643 39.6963 196.525 41.6049C196.135 42.2705 195.81 42.8644 195.589 43.4023C195.365 43.9444 195.21 44.5153 195.242 45.1194C195.308 46.3667 196.149 47.2498 196.971 48.0443L196.976 48.0495L196.981 48.0546C198.64 49.6208 199.192 51.8851 198.36 54.3785L198.358 54.3855L198.356 54.3925C197.803 56.1161 197.62 58.6061 197.716 60.9042C197.81 63.1613 198.185 65.5511 198.956 66.9976C199.916 68.875 199.898 70.5 199.06 72.1758C198.816 72.6629 198.67 73.3415 198.558 74.1165C198.44 74.9328 198.341 76.0076 198.254 77.3838C198.08 80.139 197.951 84.1972 197.837 90.0055M160.25 2.03404L199.124 90.0309M160.25 2.03404C156.573 2.79656 153.644 4.20972 151.28 6.33657C148.909 8.46896 147.035 11.3817 145.572 15.2473M160.25 2.03404L145.572 15.2473M197.837 90.0055L199.124 90.0309M197.837 90.0055C197.837 90.005 197.837 90.0045 197.837 90.004L199.124 90.0309M197.837 90.0055C197.493 106.468 197.021 109.547 194.719 114.1M199.124 90.0309C198.781 106.452 198.323 109.828 195.863 114.691M194.719 114.1C194.721 114.097 194.722 114.094 194.724 114.091L195.863 114.691M194.719 114.1C193.951 115.553 192.795 117.131 191.516 118.506C190.223 119.895 188.882 120.992 187.781 121.555L187.78 121.556C185.937 122.502 183.108 122.78 180.072 122.336C177.058 121.895 174.057 120.772 171.922 119.157L171.918 119.154C169.792 117.56 168.071 114.863 167.016 111.509C165.966 108.167 165.608 104.267 166.127 100.386L166.128 100.38C166.354 98.633 166.476 97.4117 166.407 96.5058C166.37 96.0253 166.278 95.5833 166.094 95.1657C165.914 94.7581 165.674 94.4361 165.417 94.1569M194.719 114.1C194.717 114.103 194.716 114.107 194.714 114.11L195.863 114.691M195.863 114.691L165.417 94.1569M165.417 94.1569C165.421 94.1618 165.425 94.1664 165.428 94.1709L164.451 95.0087M165.417 94.1569L188.367 122.701C184.019 124.933 175.837 123.731 171.145 120.184C166.339 116.579 163.764 108.34 164.851 100.215C165.309 96.668 165.252 95.8669 164.451 95.0087M165.417 94.1569C165.307 94.0216 165.134 93.6996 165.001 92.8267C164.865 91.9342 164.794 90.6381 164.766 88.6993C164.706 82.6601 162.822 76.159 160.014 72.1299L160.005 72.116L159.995 72.1023C159.903 71.9775 159.804 71.8443 159.701 71.7047C158.897 70.6145 157.805 69.1336 157.16 68.1911L157.144 68.168L157.127 68.1456C156.277 67.0124 155.954 65.9725 155.954 64.5124C155.954 62.6257 155.277 60.276 154.334 58.1595C153.389 56.039 152.087 53.9497 150.68 52.6415L150.674 52.6358L150.668 52.6302C149.743 51.7915 149.462 51.4407 149.313 51.0648C149.147 50.6451 149.088 50.0541 149.088 48.5491C149.088 47.5871 148.996 46.5436 148.842 45.6197C148.695 44.7363 148.469 43.818 148.136 43.1943C147.956 42.8565 147.586 41.9441 147.105 40.654C146.638 39.4019 146.098 37.8829 145.586 36.4013M165.417 94.1569C165.409 94.148 165.4 94.1391 165.392 94.1303L164.451 95.0087M164.451 95.0087C163.764 94.2077 163.536 92.6056 163.478 88.7149C163.421 82.8788 161.59 76.6423 158.958 72.866L145.586 36.4013M144.368 14.7915C143.395 17.3662 142.995 19.8837 142.823 24.8043M144.368 14.7915C147.401 6.78121 152.264 2.37556 159.988 0.773506C163.478 0.0296936 170.115 0.60186 173.72 1.91784L142.823 24.8043M144.368 14.7915L145.572 15.2473M144.368 14.7915L145.572 15.2464C145.572 15.2467 145.572 15.247 145.572 15.2473M142.823 24.8043C142.537 31.0981 142.594 31.6131 144.368 36.8197L142.823 24.8043ZM145.572 15.2473C144.673 17.6284 144.28 19.9827 144.11 24.8492L144.109 24.8628C143.965 28.0409 143.917 29.6228 144.1 31.0564C144.281 32.4723 144.693 33.7807 145.586 36.4013M145.572 15.2473L145.586 36.4013" stroke="black" stroke-opacity="0.25" stroke-width="2.57473"/>
<path d="M155.083 15.7321L155.083 15.7321L155.083 15.7323L155.083 15.7321ZM155.083 15.7321C155.084 15.7309 155.09 15.7238 155.103 15.7118C155.119 15.6976 155.142 15.6793 155.172 15.6585C155.235 15.6159 155.317 15.5728 155.411 15.5372C155.504 15.5016 155.594 15.4795 155.669 15.4695C155.741 15.4599 155.778 15.4641 155.782 15.4645C155.782 15.4645 155.782 15.4645 155.782 15.4645L155.799 15.4676L155.816 15.4703C155.924 15.4869 156.046 15.5574 156.092 15.7989C156.139 16.0441 156.062 16.3226 155.834 16.5134C155.831 16.5158 155.828 16.518 155.825 16.5203C155.726 16.4335 155.6 16.3139 155.435 16.1484C155.269 15.983 155.15 15.8567 155.063 15.7577L155.083 15.7321Z" stroke="black" stroke-opacity="0.25" stroke-width="2.57473"/>
<mask id="path-33-inside-1_116_2427" fill="white">
<path d="M164.251 21.0066C162.992 21.6932 162.935 23.9819 164.137 25.1834C166.712 27.7581 170.259 24.3252 167.799 21.636C166.483 20.2628 165.739 20.0912 164.251 21.0066ZM166.883 23.0092C167.284 24.0391 166.883 24.9545 166.025 24.9545C165.739 24.9545 165.51 24.4396 165.51 23.8674C165.51 23.238 165.167 22.6087 164.823 22.4942C164.423 22.3226 164.652 22.1509 165.281 22.1509C165.968 22.0937 166.712 22.4942 166.883 23.0092Z"/>
</mask>
<path d="M164.251 21.0066L165.601 23.1994L165.543 23.2347L165.484 23.267L164.251 21.0066ZM167.799 21.636L169.658 19.8545L169.678 19.876L169.698 19.898L167.799 21.636ZM166.883 23.0092L164.484 23.9424L164.461 23.8834L164.441 23.8234L166.883 23.0092ZM164.823 22.4942L164.009 24.9368L163.908 24.903L163.809 24.8608L164.823 22.4942ZM165.281 22.1509L165.495 24.7168L165.388 24.7257H165.281V22.1509ZM165.484 23.267C165.707 23.1453 165.809 22.9863 165.84 22.9239C165.867 22.8704 165.848 22.8817 165.845 22.9702C165.843 23.0542 165.858 23.1514 165.889 23.2375C165.92 23.322 165.953 23.358 165.957 23.3628L162.316 27.004C161.141 25.8286 160.66 24.2346 160.698 22.8336C160.733 21.4854 161.299 19.684 163.018 18.7463L165.484 23.267ZM165.957 23.3628C166.015 23.4207 166.062 23.458 166.096 23.4814C166.13 23.5045 166.152 23.5152 166.161 23.5195C166.171 23.5236 166.172 23.523 166.165 23.5216C166.158 23.5201 166.147 23.5187 166.134 23.5188C166.106 23.5189 166.085 23.525 166.073 23.5299C166.063 23.5341 166.062 23.5365 166.065 23.5339C166.067 23.5313 166.067 23.531 166.064 23.5372C166.06 23.5451 166.055 23.561 166.054 23.5823C166.053 23.5923 166.054 23.5999 166.055 23.6038C166.056 23.6078 166.055 23.6041 166.051 23.592C166.046 23.5799 166.035 23.5556 166.013 23.52C165.99 23.4841 165.955 23.4347 165.899 23.374L169.698 19.898C170.727 21.0221 171.256 22.3885 171.199 23.7914C171.144 25.1574 170.538 26.3701 169.647 27.2334C168.755 28.0967 167.521 28.6645 166.148 28.6682C164.738 28.6721 163.393 28.0813 162.316 27.004L165.957 23.3628ZM165.94 23.4175C165.806 23.2783 165.697 23.1719 165.607 23.0906C165.516 23.009 165.455 22.9624 165.42 22.9379C165.353 22.8909 165.429 22.959 165.617 22.9941C165.708 23.0111 165.797 23.0147 165.874 23.0088C165.948 23.0032 165.992 22.9905 165.998 22.9887C166.002 22.9876 165.972 22.9965 165.901 23.0307C165.831 23.065 165.733 23.1182 165.601 23.1994L162.902 18.8138C163.789 18.268 165.052 17.6502 166.562 17.932C167.963 18.1936 168.967 19.1342 169.658 19.8545L165.94 23.4175ZM169.283 22.076C169.667 23.0629 169.779 24.2775 169.283 25.405C168.735 26.6495 167.526 27.5293 166.025 27.5293V22.3798C165.767 22.3798 165.446 22.4541 165.143 22.657C164.847 22.8556 164.666 23.1117 164.569 23.3311C164.388 23.7434 164.5 23.9854 164.484 23.9424L169.283 22.076ZM166.025 27.5293C165.13 27.5293 164.465 27.1171 164.073 26.7529C163.692 26.3998 163.462 26.0061 163.325 25.7098C163.048 25.113 162.935 24.4599 162.935 23.8674H168.085C168.085 23.8471 168.087 23.7376 167.995 23.5413C167.951 23.4453 167.832 23.216 167.575 22.9774C167.305 22.7276 166.777 22.3798 166.025 22.3798V27.5293ZM162.935 23.8674C162.935 23.9931 162.962 24.0798 163.006 24.1653C163.03 24.2134 163.089 24.3152 163.206 24.4393C163.31 24.5483 163.568 24.7897 164.009 24.9368L165.638 20.0516C166.765 20.4274 167.346 21.3461 167.585 21.8102C167.887 22.3963 168.085 23.1123 168.085 23.8674H162.935ZM163.809 24.8608C163.647 24.7914 162.926 24.491 162.451 23.7284C162.146 23.238 161.913 22.4911 162.138 21.6468C162.343 20.8779 162.827 20.4189 163.121 20.1984C163.657 19.7963 164.221 19.6845 164.429 19.6469C164.726 19.5932 165.019 19.5762 165.281 19.5762V24.7257C165.229 24.7257 165.257 24.7301 165.346 24.714C165.347 24.7139 165.76 24.6558 166.211 24.318C166.462 24.1297 166.919 23.7055 167.114 22.9736C167.329 22.1662 167.104 21.4581 166.824 21.0079C166.577 20.612 166.285 20.3935 166.157 20.3058C166.009 20.2043 165.889 20.1497 165.838 20.1277L163.809 24.8608ZM165.067 19.5851C165.955 19.5111 166.806 19.7284 167.493 20.0968C168.138 20.4432 168.963 21.1067 169.326 22.195L164.441 23.8234C164.541 24.1259 164.695 24.3237 164.799 24.4319C164.904 24.5422 164.999 24.6024 165.058 24.6343C165.158 24.6879 165.294 24.7335 165.495 24.7168L165.067 19.5851Z" fill="black" fill-opacity="0.25" mask="url(#path-33-inside-1_116_2427)"/>
<path d="M150.462 24.268C149.204 25.6412 149.261 26.2705 150.634 27.5293C151.664 28.4448 151.95 28.502 153.209 27.8154C154.925 26.8999 155.097 24.6685 153.552 23.8102C152.007 23.0092 151.549 23.0664 150.462 24.268Z" fill="black" fill-opacity="0.25"/>
<path d="M151.417 25.1317L151.417 25.1317L151.411 25.1379C151.123 25.4528 150.969 25.6621 150.892 25.8025C150.876 25.8303 150.866 25.8521 150.859 25.8686C150.869 25.8875 150.885 25.9135 150.908 25.9475C151.006 26.0876 151.183 26.2855 151.497 26.5737C151.745 26.7942 151.891 26.9101 151.991 26.9748C151.992 26.9749 151.992 26.975 151.992 26.9751C151.993 26.9747 151.994 26.9743 151.995 26.9738C152.111 26.9334 152.288 26.851 152.592 26.6852L152.592 26.6852L152.603 26.6795C153.083 26.4234 153.293 26.0199 153.32 25.6854C153.346 25.3695 153.223 25.1059 152.94 24.943C152.581 24.7575 152.346 24.6547 152.179 24.6012C152.097 24.575 152.049 24.5666 152.026 24.5641C152.011 24.5717 151.987 24.5866 151.949 24.6138C151.836 24.6977 151.672 24.8495 151.417 25.1317ZM150.844 25.9087C150.844 25.9087 150.844 25.9075 150.845 25.9052C150.844 25.9076 150.844 25.9087 150.844 25.9087ZM150.842 25.8329C150.841 25.8308 150.841 25.8297 150.84 25.8297C150.84 25.8297 150.841 25.8307 150.842 25.8329ZM152.009 24.5631C152.009 24.5631 152.01 24.5632 152.012 24.563C152.01 24.563 152.009 24.563 152.009 24.5631ZM152.037 24.5586C152.04 24.5578 152.041 24.5571 152.041 24.557C152.041 24.5569 152.04 24.5573 152.037 24.5586Z" stroke="black" stroke-opacity="0.25" stroke-width="2.57473"/>
<mask id="path-37-inside-2_116_2427" fill="white">
<path d="M163.936 59.8207C162.334 61.4228 163.535 64.2836 165.824 64.2836C166.51 64.2836 167.311 63.9975 167.712 63.597C168.112 63.1965 168.399 62.3954 168.399 61.7088C168.399 61.0222 168.112 60.2212 167.712 59.8207C167.311 59.4202 166.51 59.1341 165.824 59.1341C165.137 59.1341 164.336 59.4202 163.936 59.8207ZM167.025 60.9078C167.197 61.2511 166.911 61.9377 166.396 62.4526C165.423 63.3681 165.423 63.3681 165.709 62.4526C165.938 61.7661 165.824 61.5944 165.194 61.8233C164.794 61.9949 164.393 61.8805 164.393 61.5944C164.393 60.2784 166.282 59.7635 167.025 60.9078Z"/>
</mask>
<path d="M167.025 60.9078L169.184 59.5046L169.263 59.6264L169.328 59.7564L167.025 60.9078ZM166.396 62.4526L168.217 64.2733L168.189 64.3008L168.161 64.3276L166.396 62.4526ZM165.709 62.4526L163.252 61.6847L163.259 61.6615L163.267 61.6384L165.709 62.4526ZM165.194 61.8233L164.18 59.4567L164.247 59.4283L164.315 59.4036L165.194 61.8233ZM165.756 61.6413C165.751 61.6471 165.757 61.6419 165.765 61.6257C165.773 61.6105 165.776 61.5973 165.777 61.5902C165.778 61.5843 165.777 61.5876 165.778 61.6003C165.78 61.6134 165.784 61.6316 165.793 61.6521C165.802 61.6726 165.812 61.6897 165.822 61.7022C165.832 61.7144 165.838 61.7187 165.837 61.7182C165.836 61.7172 165.83 61.7134 165.82 61.7103C165.81 61.7069 165.809 61.7088 165.824 61.7088V66.8583C161.3 66.8583 158.85 61.2655 162.115 58.0001L165.756 61.6413ZM165.824 61.7088C165.82 61.7088 165.841 61.7088 165.882 61.7013C165.921 61.6939 165.963 61.6825 165.999 61.6692C166.017 61.6629 166.03 61.6572 166.039 61.6532C166.048 61.649 166.05 61.6477 166.045 61.6507C166.04 61.6536 166.024 61.6631 166 61.6812C165.976 61.6991 165.938 61.7299 165.891 61.7764L169.533 65.4176C168.981 65.9692 168.31 66.3095 167.751 66.5117C167.169 66.7223 166.501 66.8583 165.824 66.8583V61.7088ZM165.891 61.7764C165.845 61.8228 165.814 61.8609 165.796 61.8848C165.778 61.909 165.769 61.9247 165.766 61.9296C165.763 61.9348 165.764 61.9331 165.768 61.9241C165.772 61.9153 165.778 61.902 165.784 61.8844C165.798 61.8477 165.809 61.8061 165.816 61.7665C165.824 61.726 165.824 61.7054 165.824 61.7088H170.973C170.973 62.3856 170.837 63.0537 170.627 63.6359C170.425 64.1948 170.084 64.8659 169.533 65.4176L165.891 61.7764ZM165.824 61.7088C165.824 61.7122 165.824 61.6917 165.816 61.6511C165.809 61.6116 165.798 61.57 165.784 61.5332C165.778 61.5157 165.772 61.5023 165.768 61.4935C165.764 61.4846 165.763 61.4829 165.766 61.4881C165.769 61.493 165.778 61.5087 165.796 61.5329C165.814 61.5567 165.845 61.5948 165.891 61.6413L169.533 58.0001C170.084 58.5518 170.425 59.2228 170.627 59.7817C170.837 60.3639 170.973 61.0321 170.973 61.7088H165.824ZM165.891 61.6413C165.938 61.6878 165.976 61.7186 166 61.7364C166.024 61.7546 166.04 61.7641 166.045 61.7669C166.05 61.7699 166.048 61.7687 166.039 61.7645C166.03 61.7604 166.017 61.7548 165.999 61.7484C165.963 61.7351 165.921 61.7238 165.882 61.7164C165.841 61.7089 165.82 61.7088 165.824 61.7088V56.5594C166.501 56.5594 167.169 56.6954 167.751 56.906C168.31 57.1081 168.981 57.4484 169.533 58.0001L165.891 61.6413ZM165.824 61.7088C165.827 61.7088 165.807 61.7089 165.766 61.7164C165.727 61.7238 165.685 61.7351 165.648 61.7484C165.631 61.7548 165.617 61.7604 165.609 61.7645C165.6 61.7687 165.598 61.7699 165.603 61.7669C165.608 61.7641 165.624 61.7546 165.648 61.7364C165.672 61.7186 165.71 61.6878 165.756 61.6413L162.115 58.0001C162.667 57.4484 163.338 57.1081 163.897 56.906C164.479 56.6954 165.147 56.5594 165.824 56.5594V61.7088ZM169.328 59.7564C169.929 60.9574 169.542 62.1249 169.35 62.5931C169.094 63.217 168.692 63.7982 168.217 64.2733L164.575 60.632C164.615 60.5922 164.613 60.5726 164.586 60.6386C164.572 60.6732 164.525 60.795 164.507 60.9936C164.491 61.1792 164.487 61.5886 164.722 62.0593L169.328 59.7564ZM168.161 64.3276C167.937 64.5383 167.706 64.7562 167.522 64.915C167.435 64.991 167.288 65.115 167.114 65.2317C167.027 65.2903 166.877 65.3859 166.681 65.4744C166.517 65.5488 166.117 65.714 165.581 65.714C164.928 65.714 164.148 65.4592 163.58 64.7799C163.11 64.2172 163.012 63.6257 162.985 63.3763C162.932 62.8937 163.028 62.4898 163.044 62.4174C163.099 62.1639 163.198 61.8561 163.252 61.6847L168.167 63.2206C168.077 63.5069 168.069 63.5424 168.074 63.5178C168.079 63.4969 168.093 63.4332 168.103 63.3424C168.112 63.2667 168.132 63.0712 168.104 62.8164C168.08 62.5956 167.99 62.0256 167.531 61.4772C166.975 60.8121 166.212 60.5645 165.581 60.5645C165.066 60.5645 164.692 60.7226 164.559 60.7826C164.395 60.8568 164.282 60.931 164.237 60.961C164.149 61.0204 164.109 61.0586 164.154 61.0202C164.235 60.9501 164.369 60.8248 164.631 60.5777L168.161 64.3276ZM163.267 61.6384C163.305 61.5231 163.272 61.5915 163.254 61.7597C163.246 61.8363 163.149 62.6213 163.749 63.3854C164.46 64.2898 165.431 64.3152 165.717 64.2992C166.004 64.2831 166.163 64.2108 166.074 64.243L164.315 59.4036C164.541 59.3213 164.95 59.1846 165.428 59.1578C165.905 59.1311 167.009 59.1994 167.798 60.2039C168.477 61.0681 168.406 62.0105 168.374 62.3053C168.333 62.6916 168.228 63.0389 168.152 63.2669L163.267 61.6384ZM166.209 64.1898C165.575 64.4614 164.762 64.592 163.936 64.3562C163.078 64.1108 161.819 63.2529 161.819 61.5944H166.968C166.968 61.0173 166.749 60.4636 166.369 60.0448C166.019 59.6591 165.624 59.4827 165.351 59.4048C164.826 59.2548 164.413 59.3567 164.18 59.4567L166.209 64.1898ZM161.819 61.5944C161.819 59.5052 163.353 58.2166 164.769 57.8402C166.192 57.4618 168.091 57.8234 169.184 59.5046L164.867 62.311C165.216 62.8479 165.799 62.8948 166.092 62.8168C166.251 62.7744 166.455 62.6756 166.637 62.4671C166.84 62.2358 166.968 61.9189 166.968 61.5944H161.819Z" fill="black" fill-opacity="0.25" mask="url(#path-37-inside-2_116_2427)"/>
<path d="M168.151 73.7123L168.151 73.7123L168.15 73.703C168.092 73.2085 167.817 73.0572 167.729 73.035C167.719 73.0326 167.712 73.0314 167.706 73.0308C167.689 73.0507 167.655 73.0997 167.621 73.2035C167.527 73.4965 167.502 73.685 167.501 73.7915C167.614 73.8287 167.824 73.8673 168.169 73.8673C168.164 73.8192 168.158 73.7676 168.151 73.7123ZM167.695 73.0306C167.695 73.0307 167.695 73.0307 167.697 73.0303L167.695 73.0306ZM167.714 73.0226C167.718 73.0206 167.719 73.0193 167.719 73.0191C167.719 73.019 167.717 73.02 167.714 73.0226ZM167.429 73.7616C167.429 73.7616 167.43 73.762 167.431 73.7627C167.43 73.762 167.429 73.7616 167.429 73.7616Z" stroke="black" stroke-opacity="0.25" stroke-width="2.57473"/>
<path d="M181.411 80.8332L181.411 80.8333L181.403 80.8422C181.393 80.854 181.384 80.8654 181.375 80.8763C181.383 80.8856 181.391 80.8953 181.399 80.9054C181.615 81.1585 181.763 81.2334 181.824 81.2554C181.86 81.2236 181.929 81.1467 182.009 80.9871L182.009 80.9871L182.015 80.9748C182.179 80.6558 182.159 80.4819 182.15 80.4385C182.147 80.4255 182.144 80.4176 182.142 80.4135C182.141 80.4108 182.14 80.4092 182.139 80.4084C182.139 80.4083 182.139 80.4081 182.138 80.4078C182.136 80.4064 182.125 80.4005 182.1 80.3976C182.076 80.3948 182.034 80.3947 181.975 80.4102C181.861 80.4402 181.651 80.5388 181.411 80.8332Z" stroke="black" stroke-opacity="0.25" stroke-width="2.57473"/>
<circle cx="168.441" cy="41.2106" r="2.14561" fill="white"/>
<circle cx="168.441" cy="41.2106" r="3.29504" stroke="black" stroke-opacity="0.25" stroke-width="2.29887"/>
<circle cx="181.958" cy="41.8542" r="2.78929" fill="white"/>
<circle cx="181.958" cy="41.8542" r="3.93872" stroke="black" stroke-opacity="0.25" stroke-width="2.29887"/>
<path d="M185.265 111.352C187.82 108.315 188.739 106.462 189.364 102.688C189.752 100.179 191.044 98.7174 191.454 100.368C191.666 101.222 190.414 106.175 189.524 108.142C188.764 109.896 184.758 114.493 183.804 114.726C182.504 115.042 182.899 114.041 185.265 111.352Z" fill="black" fill-opacity="0.25"/>
<path d="M182.754 23.2533C181.478 19.4952 180.367 17.75 177.461 15.262C175.515 13.6317 174.933 11.77 176.558 12.2732C177.398 12.5335 180.988 16.1676 182.211 17.9475C183.319 19.5051 185.18 25.3125 184.885 26.2487C184.483 27.5254 183.831 26.6693 182.754 23.2533Z" fill="black" fill-opacity="0.25"/>
<path d="M182.78 109.01C185.888 103.704 186.865 100.464 187.067 93.8616C187.161 89.4726 188.746 86.9193 189.639 89.8089C190.101 91.3036 189.218 99.9661 188.303 103.406C187.536 106.473 182.632 114.505 181.306 114.909C179.497 115.459 179.879 113.707 182.78 109.01Z" fill="black" fill-opacity="0.25"/>
<path d="M184.306 57.6583C184.107 59.1859 181.421 57.498 177.896 57.0378C174.371 56.5776 171.342 57.5193 171.541 55.9918C171.74 54.4643 174.76 53.599 178.285 54.0592C181.81 54.5194 184.506 56.1308 184.306 57.6583Z" fill="#5D5D5D"/>
<path d="M177.757 58.1016C178.972 58.2602 180.039 58.5632 181.01 58.8388C181.381 58.9441 181.738 59.0455 182.084 59.1333C182.636 59.2732 183.298 59.4166 183.873 59.3318C184.194 59.2845 184.567 59.1562 184.876 58.8488C185.186 58.5391 185.323 58.1545 185.37 57.7972C185.466 57.0598 185.197 56.3978 184.804 55.8726C184.414 55.3529 183.863 54.9082 183.243 54.5377C182 53.7947 180.296 53.2399 178.424 52.9955C176.551 52.751 174.762 52.8499 173.37 53.2488C172.676 53.4478 172.029 53.736 171.519 54.1382C171.003 54.5447 170.574 55.1155 170.477 55.8529C170.431 56.2102 170.464 56.6171 170.685 56.9961C170.904 57.3724 171.232 57.5924 171.53 57.7205C172.065 57.9501 172.741 57.9814 173.31 57.9878C173.667 57.9917 174.038 57.9854 174.424 57.9789C175.433 57.9618 176.542 57.943 177.757 58.1016Z" stroke="black" stroke-opacity="0.25" stroke-width="2.14561"/>
</svg>
