<svg width="119" height="155" viewBox="0 0 119 155" fill="none" xmlns="http://www.w3.org/2000/svg">
<path d="M61.6244 88.99L67.6321 152.5H59.9079" stroke="#B4B4B4" stroke-width="3.43297" stroke-linecap="round"/>
<path d="M34.8943 68.5797L28.8866 107.201L18.8362 114.518" stroke="#B4B4B4" stroke-width="3.43297" stroke-linecap="round"/>
<path d="M46.176 88.5609L48.7507 152.5H41.0265" stroke="#B4B4B4" stroke-width="3.43297" stroke-linecap="round"/>
<path d="M83.8222 80.4413L90.1522 106.522L99.328 111.82" stroke="#B4B4B4" stroke-width="3.43297" stroke-linecap="round"/>
<path d="M50.7828 14.0915C51.6732 17.6216 53.4749 18.9678 69.2309 27.7148C78.0647 32.5527 84.7044 36.6484 88.1388 39.3307C91.0726 41.5928 96.3946 45.321 99.9905 47.572C103.587 49.823 106.568 51.8505 106.61 52.0057C106.652 52.1608 105.543 53.4001 104.175 54.7087C99.0396 59.7427 95.9899 64.4948 91.9868 73.5483C88.9844 80.3384 85.6283 85.3943 77.7635 94.9283C73.9963 99.4848 70.3641 104.338 69.6864 105.738C69.0087 107.139 68.3514 108.202 68.2064 108.075C68.0752 107.999 67.2635 106.831 66.424 105.56C64.1715 102.117 60.8719 99.7315 53.5157 96.2712C40.9356 90.2756 34.2026 86.0387 22.8707 77.0484C19.5535 74.3902 15.771 71.8567 14.36 71.348C11.538 70.3306 11.5555 70.603 13.7907 65.2932C15.5411 61.2772 18.7421 56.2628 22.9257 50.9851C24.2996 49.2868 26.5377 46.4702 27.8977 44.7202C29.2716 43.022 33.2814 36.6824 36.8674 30.6227C42.4597 21.088 46.8832 14.6376 49.415 12.2965C50.0281 11.6888 50.2147 11.9714 50.7828 14.0915Z" fill="#F0F0F0"/>
<path d="M45.705 19.732C47.093 17.7057 48.2796 16.1226 49.2461 14.9827C49.4908 15.8218 49.8323 16.6392 50.4267 17.4746C51.1131 18.4392 52.0716 19.3363 53.4119 20.3271C56.0538 22.2801 60.559 24.8638 68.3978 29.2156L68.4064 29.2203C77.2323 34.0539 83.7659 38.0935 87.0822 40.6835L87.0822 40.6835L87.0907 40.69C90.0676 42.9853 95.4353 46.7456 99.0798 49.027C100.864 50.1437 102.492 51.203 103.675 51.9988C103.841 52.1105 103.997 52.2164 104.143 52.3161C103.807 52.6675 103.412 53.0628 102.988 53.4686L102.981 53.4757L102.974 53.4829C97.6333 58.7175 94.475 63.6765 90.4169 72.8541C87.5057 79.4382 84.2603 84.3552 76.4397 93.8357C74.5402 96.1331 72.6733 98.507 71.1916 100.489C69.7569 102.408 68.5665 104.112 68.1412 104.991C68.1364 105.001 68.1315 105.011 68.1267 105.021C68.0383 104.889 67.9485 104.753 67.8582 104.617C65.3327 100.759 61.6613 98.2062 54.2502 94.7198C41.7965 88.7843 35.1734 84.6175 23.9411 75.7066C22.2464 74.3487 20.4333 73.0226 18.8558 71.966C17.338 70.9494 15.8743 70.0693 14.9421 69.7332C14.7981 69.6813 14.6693 69.6352 14.5539 69.5938C14.3164 69.5087 14.1352 69.4438 13.9927 69.3899C14.0298 69.2703 14.0806 69.119 14.1502 68.9303C14.3647 68.349 14.6804 67.6005 15.1163 66.5674C15.1963 66.3778 15.2803 66.1786 15.3685 65.969C17.0373 62.1444 20.1368 57.2674 24.2654 52.0582C25.6426 50.3556 27.8765 47.5444 29.2434 45.786C30.722 43.9511 34.7873 37.5082 38.3447 31.4969L38.348 31.4911C41.1318 26.7449 43.6137 22.7852 45.705 19.732ZM13.5779 69.2058C13.5776 69.2056 13.5788 69.2064 13.5812 69.2081C13.5791 69.2067 13.578 69.206 13.5779 69.2058Z" stroke="black" stroke-opacity="0.25" stroke-width="3.43297"/>
<path d="M34.64 49.12C34.8228 49.5647 35.4441 50.9568 35.985 52.2251C36.8915 54.3826 37.176 54.5501 39.4072 54.2998C45.3205 53.703 50.5635 53.6465 52.2998 54.3156C54.3058 55.0208 55.698 54.3995 61.1924 50.6602C62.4239 49.7912 63.8013 49.0386 64.195 48.9945C65.5075 48.8473 64.9126 51.8377 63.426 52.8018C61.7573 53.9192 58.5161 57.6051 58.6044 58.3926C58.7148 59.3769 60.8945 58.6673 62.7815 57.1267C64.9673 55.2868 66.5931 54.9716 67.2726 56.2907C67.8718 57.486 65.8026 59.18 62.5878 60.1386C60.6633 60.7531 60.2481 61.1984 60.3806 62.3796C60.4763 63.2327 60.9583 63.976 61.5054 64.1139C62.0524 64.2519 62.6731 65.0461 62.9 65.8845C63.1564 66.9853 63.8715 67.4367 65.826 67.6826C69.1298 68.1094 69.2777 70.0198 65.9966 70.3878C63.0436 70.719 62.7977 72.6736 65.6998 72.481C67.6758 72.3258 70.1351 74.1098 69.3121 75.0659C69.0134 75.3652 66.8191 75.9436 64.3402 76.3545C60.4979 77.0513 59.6743 77.4095 58.9684 78.8176C58.4661 79.6713 57.1629 81.678 56.0124 83.2689C56.0124 83.2689 55.1254 85.3218 53.8641 86.0349C52.6028 86.7479 49.1608 86.1637 49.1608 86.1637C45.9741 86.1889 44.2171 86.5189 43.6854 87.1101C43.2045 87.5627 42.8716 89.9257 42.9035 92.58C42.9747 97.9543 41.6433 100.894 39.7096 99.6495C38.345 98.7394 37.9635 96.523 38.8141 94.0354C39.6573 91.4823 37.8444 87.1672 34.2597 83.0509C32.1131 80.5009 31.4336 79.1817 31.0956 76.761C30.7938 74.0705 30.5528 73.6989 29.2183 73.6492C28.4161 73.6063 27.4238 73.0531 26.9565 72.4411C26.1604 71.2679 27.2085 69.3562 32.7507 62.4885C35.3724 59.2043 35.5907 58.7812 34.6923 57.2872C34.2028 56.4783 33.8735 55.3192 34.0115 54.7721C34.1495 54.2251 33.7618 53.1389 33.0756 52.3521C31.3963 50.4141 31.3362 48.6932 32.9111 48.5166C33.633 48.4356 34.399 48.7484 34.64 49.12Z" fill="#924F2B"/>
<circle cx="2.14561" cy="2.14561" r="2.14561" transform="matrix(-0.999788 -0.0206084 -0.0206084 0.999788 54.9956 45.7741)" fill="white"/>
<circle cx="2.14561" cy="2.14561" r="3.29504" transform="matrix(-0.999788 -0.0206084 -0.0206084 0.999788 54.9956 45.7741)" stroke="black" stroke-opacity="0.25" stroke-width="2.29887"/>
<circle cx="2.14561" cy="2.14561" r="2.14561" transform="matrix(-0.999788 -0.0206084 -0.0206084 0.999788 44.2709 45.4645)" fill="white"/>
<circle cx="2.14561" cy="2.14561" r="3.29504" transform="matrix(-0.999788 -0.0206084 -0.0206084 0.999788 44.2709 45.4645)" stroke="black" stroke-opacity="0.25" stroke-width="2.29887"/>
<path d="M49.5812 61.6101C49.6389 60.0707 48.4101 61.3514 46.9556 61.2969C45.5012 61.2423 44.3718 59.8731 44.314 61.4125C44.2563 62.9519 45.3886 64.2441 46.843 64.2986C48.2975 64.3532 49.5234 63.1495 49.5812 61.6101Z" fill="#5D5D5D"/>
<path d="M46.9958 60.2248C47.2016 60.2325 47.4299 60.1936 47.7011 60.1185C47.832 60.0822 47.9586 60.0418 48.0991 59.997L48.1146 59.992L48.1149 59.9919C48.251 59.9485 48.4155 59.896 48.5743 59.8561C48.7283 59.8175 48.9409 59.7735 49.1715 59.7761C49.4124 59.7789 49.7399 59.8337 50.0431 60.0608C50.6434 60.5106 50.6684 61.2454 50.6532 61.6503C50.5754 63.7236 48.9059 65.4495 46.8028 65.3707C44.6998 65.2918 43.1642 63.4456 43.242 61.3723C43.2572 60.9674 43.3371 60.2366 43.9694 59.833C44.2888 59.6292 44.6195 59.5991 44.8599 59.6144C45.0901 59.6291 45.2988 59.6888 45.4495 59.7389C45.6048 59.7905 45.7649 59.8552 45.8974 59.9087L45.8977 59.9089L45.9127 59.915C46.0495 59.9702 46.1727 60.02 46.3005 60.066C46.5653 60.1612 46.7901 60.2171 46.9958 60.2248Z" stroke="black" stroke-opacity="0.25" stroke-width="2.14561"/>
</svg>
